{
copyright = "Copyright (c) 2015, Cadson Demak (info@cadsondemak.com)";
customParameters = (
{
name = vendorID;
value = CDK;
},
{
name = description;
value = "Copyright (c) 2015, Cadson Demak (info@cadsondemak.com)";
},
{
name = license;

glyphs = (
{
glyphname = A;
lastChange = "2015-10-23 06:06:22 +0000";
layers = (
{
layerId = "03246D8C-E7A1-43FC-9121-0C6BC949C0F5";
name = Bold;
paths = (
{
closed = 1;
nodes = (
"267 0 LINE",
"313 120 LINE",
"464 120 LINE",
"510 0 LINE",
"762 0 LINE",
"514 644 LINE",
"263 644 LINE",
"15 0 LINE"
);
},
{
closed = 1;
nodes = (
"388 408 LINE",
"437 285 LINE",
"339 285 LINE"
);
}
);
width = 777;
}
);
leftKerningGroup = A;
note = A;
rightKerningGroup = A;
unicode = 0041;
},
{
glyphname = Aacute;
lastChange = "2015-10-23 06:06:22 +0000";
layers = (
{
layerId = "03246D8C-E7A1-43FC-9121-0C6BC949C0F5";
name = Bold;
paths = (
{
closed = 1;
nodes = (
"267 0 LINE",
"313 120 LINE",
"464 120 LINE",
"510 0 LINE",
"762 0 LINE",
"514 644 LINE",
"263 644 LINE",
"15 0 LINE"
);
},
{
closed = 1;
nodes = (
"388 408 LINE",
"437 285 LINE",
"339 285 LINE"
);
},
{
closed = 1;
nodes = (
"473 688 LINE",
"578 914 LINE",
"392 914 LINE",
"296 688 LINE"
);
}
);
width = 777;
}
);
leftKerningGroup = A;
note = Aacute;
rightKerningGroup = A;
unicode = 00C1;
},
{
glyphname = Abreve;
lastChange = "2015-10-23 06:06:22 +0000";
layers = (
{
layerId = "03246D8C-E7A1-43FC-9121-0C6BC949C0F5";
name = Bold;
paths = (
{
closed = 1;
nodes = (
"267 0 LINE",
"313 120 LINE",
"464 120 LINE",
"510 0 LINE",
"762 0 LINE",
"514 644 LINE",
"263 644 LINE",
"15 0 LINE"
);
},
{
closed = 1;
nodes = (
"388 408 LINE",
"437 285 LINE",
"339 285 LINE"
);
},
{
closed = 1;
nodes = (
"522 688 OFFCURVE",
"609 765 OFFCURVE",
"609 908 CURVE",
"454 908 LINE",
"454 863 OFFCURVE",
"439 820 OFFCURVE",
"388 820 CURVE SMOOTH",
"338 820 OFFCURVE",
"323 863 OFFCURVE",
"323 908 CURVE",
"168 908 LINE",
"168 765 OFFCURVE",
"255 688 OFFCURVE",
"388 688 CURVE SMOOTH"
);
}
);
width = 777;
}
);
leftKerningGroup = A;
note = Abreve;
rightKerningGroup = A;
unicode = 0102;
},
{
glyphname = Abreveacute;
lastChange = "2015-10-23 06:06:23 +0000";
layers = (
{
layerId = "03246D8C-E7A1-43FC-9121-0C6BC949C0F5";
name = Bold;
paths = (
{
closed = 1;
nodes = (
"267 0 LINE",
"313 120 LINE",
"464 120 LINE",
"510 0 LINE",
"762 0 LINE",
"514 644 LINE",
"263 644 LINE",
"15 0 LINE"
);
},
{
closed = 1;
nodes = (
"388 408 LINE",
"437 285 LINE",
"339 285 LINE"
);
},
{
closed = 1;
nodes = (
"509 688 OFFCURVE",
"587 747 OFFCURVE",
"587 876 CURVE",
"453 876 LINE",
"453 836 OFFCURVE",
"435 805 OFFCURVE",
"388 805 CURVE SMOOTH",
"342 805 OFFCURVE",
"324 836 OFFCURVE",
"324 876 CURVE",
"190 876 LINE",
"190 747 OFFCURVE",
"268 688 OFFCURVE",
"388 688 CURVE SMOOTH"
);
},
{
closed = 1;
nodes = (
"468 895 LINE",
"551 1067 LINE",
"395 1067 LINE",
"320 895 LINE"
);
}
);
width = 777;
}
);
leftKerningGroup = A;
note = Abreveacute;
rightKerningGroup = A;
unicode = 1EAE;
},
{
glyphname = Abrevedotbelow;
lastChange = "2015-10-23 06:06:23 +0000";
layers = (
{
layerId = "03246D8C-E7A1-43FC-9121-0C6BC949C0F5";
name = Bold;
paths = (
{
closed = 1;
nodes = (
"267 0 LINE",
"313 120 LINE",
"464 120 LINE",
"510 0 LINE",
"762 0 LINE",
"514 644 LINE",
"263 644 LINE",
"15 0 LINE"
);
},
{
closed = 1;
nodes = (
"466 -213 LINE",
"466 -72 LINE",
"310 -72 LINE",
"310 -213 LINE"
);
},
{
closed = 1;
nodes = (
"388 408 LINE",
"437 285 LINE",
"339 285 LINE"
);
},
{
closed = 1;
nodes = (
"522 688 OFFCURVE",
"609 765 OFFCURVE",
"609 908 CURVE",
"454 908 LINE",
"454 863 OFFCURVE",
"439 820 OFFCURVE",
"388 820 CURVE SMOOTH",
"338 820 OFFCURVE",
"323 863 OFFCURVE",
"323 908 CURVE",
"168 908 LINE",
"168 765 OFFCURVE",
"255 688 OFFCURVE",
"388 688 CURVE SMOOTH"
);
}
);
width = 777;
}
);
leftKerningGroup = A;
note = Abrevedotbelow;
rightKerningGroup = A;
unicode = 1EB6;
},
{
glyphname = Abrevegrave;
lastChange = "2015-10-23 06:06:22 +0000";
layers = (
{
layerId = "03246D8C-E7A1-43FC-9121-0C6BC949C0F5";
name = Bold;
paths = (
{
closed = 1;
nodes = (
"267 0 LINE",
"313 120 LINE",
"464 120 LINE",
"510 0 LINE",
"762 0 LINE",
"514 644 LINE",
"263 644 LINE",
"15 0 LINE"
);
},
{
closed = 1;
nodes = (
"388 408 LINE",
"437 285 LINE",
"339 285 LINE"
);
},
{
closed = 1;
nodes = (
"509 688 OFFCURVE",
"587 747 OFFCURVE",
"587 876 CURVE",
"453 876 LINE",
"453 836 OFFCURVE",
"435 805 OFFCURVE",
"389 805 CURVE SMOOTH",
"342 805 OFFCURVE",
"324 836 OFFCURVE",
"324 876 CURVE",
"190 876 LINE",
"190 747 OFFCURVE",
"268 688 OFFCURVE",
"389 688 CURVE SMOOTH"
);
},
{
closed = 1;
nodes = (
"457 895 LINE",
"382 1067 LINE",
"226 1067 LINE",
"309 895 LINE"
);
}
);
width = 777;
}
);
leftKerningGroup = A;
note = Abrevegrave;
rightKerningGroup = A;
unicode = 1EB0;
},
{
glyphname = Abrevehookabove;
lastChange = "2015-10-23 06:06:22 +0000";
layers = (
{
layerId = "03246D8C-E7A1-43FC-9121-0C6BC949C0F5";
name = Bold;
paths = (
{
closed = 1;
nodes = (
"267 0 LINE",
"313 120 LINE",
"464 120 LINE",
"510 0 LINE",
"762 0 LINE",
"514 644 LINE",
"263 644 LINE",
"15 0 LINE"
);
},
{
closed = 1;
nodes = (
"388 408 LINE",
"437 285 LINE",
"339 285 LINE"
);
},
{
closed = 1;
nodes = (
"509 688 OFFCURVE",
"587 747 OFFCURVE",
"587 876 CURVE",
"453 876 LINE",
"453 836 OFFCURVE",
"435 805 OFFCURVE",
"389 805 CURVE SMOOTH",
"342 805 OFFCURVE",
"324 836 OFFCURVE",
"324 876 CURVE",
"190 876 LINE",
"190 747 OFFCURVE",
"268 688 OFFCURVE",
"389 688 CURVE SMOOTH"
);
},
{
closed = 1;
nodes = (
"466 896 LINE",
"466 923 LINE",
"517 939 OFFCURVE",
"536 963 OFFCURVE",
"536 1009 CURVE SMOOTH",
"536 1060 OFFCURVE",
"490 1101 OFFCURVE",
"407 1101 CURVE SMOOTH",
"365 1101 OFFCURVE",
"318 1095 OFFCURVE",
"291 1088 CURVE",
"291 1006 LINE",
"304 1011 OFFCURVE",
"322 1017 OFFCURVE",
"339 1017 CURVE SMOOTH",
"368 1017 OFFCURVE",
"383 1012 OFFCURVE",
"383 992 CURVE SMOOTH",
"383 974 OFFCURVE",
"360 961 OFFCURVE",
"309 959 CURVE",
"309 896 LINE"
);
}
);
width = 777;
}
);
leftKerningGroup = A;
note = Abrevehookabove;
rightKerningGroup = A;
unicode = 1EB2;
},
{
glyphname = Abrevetilde;
lastChange = "2015-10-23 06:06:22 +0000";
layers = (
{
layerId = "03246D8C-E7A1-43FC-9121-0C6BC949C0F5";
name = Bold;
paths = (
{
closed = 1;
nodes = (
"267 0 LINE",
"313 120 LINE",
"464 120 LINE",
"510 0 LINE",
"762 0 LINE",
"514 644 LINE",
"263 644 LINE",
"15 0 LINE"
);
},
{
closed = 1;
nodes = (
"388 408 LINE",
"437 285 LINE",
"339 285 LINE"
);
},
{
closed = 1;
nodes = (
"509 688 OFFCURVE",
"587 747 OFFCURVE",
"587 876 CURVE",
"453 876 LINE",
"453 836 OFFCURVE",
"435 805 OFFCURVE",
"389 805 CURVE SMOOTH",
"342 805 OFFCURVE",
"324 836 OFFCURVE",
"324 876 CURVE",
"190 876 LINE",
"190 747 OFFCURVE",
"268 688 OFFCURVE",
"389 688 CURVE SMOOTH"
);
},
{
closed = 1;
nodes = (
"531 901 OFFCURVE",
"570 917 OFFCURVE",
"582 934 CURVE",
"582 1059 LINE",
"567 1038 OFFCURVE",
"532 1020 OFFCURVE",
"488 1020 CURVE SMOOTH",
"423 1020 OFFCURVE",
"366 1062 OFFCURVE",
"296 1062 CURVE SMOOTH",
"256 1062 OFFCURVE",
"218 1046 OFFCURVE",
"199 1029 CURVE",
"199 904 LINE",
"222 927 OFFCURVE",
"255 943 OFFCURVE",
"299 943 CURVE SMOOTH",
"358 943 OFFCURVE",
"423 901 OFFCURVE",
"491 901 CURVE SMOOTH"
);
}
);
width = 777;
}
);
leftKerningGroup = A;
note = Abrevetilde;
rightKerningGroup = A;
unicode = 1EB4;
},
{
glyphname = Acaron;
lastChange = "2015-10-23 06:06:22 +0000";
layers = (
{
layerId = "03246D8C-E7A1-43FC-9121-0C6BC949C0F5";
name = Bold;
paths = (
{
closed = 1;
nodes = (
"267 0 LINE",
"313 120 LINE",
"464 120 LINE",
"510 0 LINE",
"762 0 LINE",
"514 644 LINE",
"263 644 LINE",
"15 0 LINE"
);
},
{
closed = 1;
nodes = (
"388 408 LINE",
"437 285 LINE",
"339 285 LINE"
);
},
{
closed = 1;
nodes = (
"459 688 LINE",
"634 904 LINE",
"466 904 LINE",
"389 797 LINE",
"316 904 LINE",
"143 904 LINE",
"318 688 LINE"
);
}
);
width = 777;
}
);
leftKerningGroup = A;
note = Acaron;
rightKerningGroup = A;
unicode = 01CD;
},
{
glyphname = Acircumflex;
lastChange = "2015-10-23 06:06:22 +0000";
layers = (
{
layerId = "03246D8C-E7A1-43FC-9121-0C6BC949C0F5";
name = Bold;
paths = (
{
closed = 1;
nodes = (
"267 0 LINE",
"313 120 LINE",
"464 120 LINE",
"510 0 LINE",
"762 0 LINE",
"514 644 LINE",
"263 644 LINE",
"15 0 LINE"
);
},
{
closed = 1;
nodes = (
"388 408 LINE",
"437 285 LINE",
"339 285 LINE"
);
},
{
closed = 1;
nodes = (
"316 688 LINE",
"389 795 LINE",
"466 688 LINE",
"634 688 LINE",
"459 904 LINE",
"318 904 LINE",
"143 688 LINE"
);
}
);
width = 777;
}
);
leftKerningGroup = A;
note = Acircumflex;
rightKerningGroup = A;
unicode = 00C2;
},
{
glyphname = Acircumflexacute;
lastChange = "2015-10-23 06:06:22 +0000";
layers = (
{
layerId = "03246D8C-E7A1-43FC-9121-0C6BC949C0F5";
name = Bold;
paths = (
{
closed = 1;
nodes = (
"267 0 LINE",
"313 120 LINE",
"464 120 LINE",
"510 0 LINE",
"762 0 LINE",
"514 644 LINE",
"263 644 LINE",
"15 0 LINE"
);
},
{
closed = 1;
nodes = (
"388 408 LINE",
"437 285 LINE",
"339 285 LINE"
);
},
{
closed = 1;
nodes = (
"329 688 LINE",
"382 764 LINE",
"438 688 LINE",
"627 688 LINE",
"469 856 LINE",
"294 856 LINE",
"136 688 LINE"
);
},
{
closed = 1;
nodes = (
"693 820 LINE",
"776 992 LINE",
"600 992 LINE",
"525 820 LINE"
);
}
);
width = 777;
}
);
leftKerningGroup = A;
note = Acircumflexacute;
rightKerningGroup = A;
unicode = 1EA4;
},
{
glyphname = Acircumflexdotbelow;
lastChange = "2015-10-23 06:07:11 +0000";
layers = (
{
layerId = "03246D8C-E7A1-43FC-9121-0C6BC949C0F5";
name = Bold;
paths = (
{
closed = 1;
nodes = (
"267 0 LINE",
"313 120 LINE",
"464 120 LINE",
"510 0 LINE",
"762 0 LINE",
"514 644 LINE",
"263 644 LINE",
"15 0 LINE"
);
},
{
closed = 1;
nodes = (
"466 -213 LINE",
"466 -72 LINE",
"310 -72 LINE",
"310 -213 LINE"
);
},
{
closed = 1;
nodes = (
"388 408 LINE",
"437 285 LINE",
"339 285 LINE"
);
},
{
closed = 1;
nodes = (
"317 688 LINE",
"390 795 LINE",
"467 688 LINE",
"635 688 LINE",
"460 904 LINE",
"319 904 LINE",
"144 688 LINE"
);
}
);
width = 777;
}
);
leftKerningGroup = A;
note = Acircumflexdotbelow;
rightKerningGroup = A;
unicode = 1EAC;
},
{
glyphname = Acircumflexgrave;
lastChange = "2015-10-23 06:06:23 +0000";
layers = (
{
layerId = "03246D8C-E7A1-43FC-9121-0C6BC949C0F5";
name = Bold;
paths = (
{
closed = 1;
nodes = (
"267 0 LINE",
"313 120 LINE",
"464 120 LINE",
"510 0 LINE",
"762 0 LINE",
"514 644 LINE",
"263 644 LINE",
"15 0 LINE"
);
},
{
closed = 1;
nodes = (
"388 408 LINE",
"437 285 LINE",
"339 285 LINE"
);
},
{
closed = 1;
nodes = (
"246 820 LINE",
"171 992 LINE",
"-5 992 LINE",
"78 820 LINE"
);
},
{
closed = 1;
nodes = (
"333 688 LINE",
"389 764 LINE",
"442 688 LINE",
"635 688 LINE",
"477 856 LINE",
"302 856 LINE",
"144 688 LINE"
);
}
);
width = 777;
}
);
leftKerningGroup = A;
note = Acircumflexgrave;
rightKerningGroup = A;
unicode = 1EA6;
},
{
glyphname = Acircumflexhookabove;
lastChange = "2015-10-23 06:06:23 +0000";
layers = (
{
layerId = "03246D8C-E7A1-43FC-9121-0C6BC949C0F5";
name = Bold;
paths = (
{
closed = 1;
nodes = (
"267 0 LINE",
"313 120 LINE",
"464 120 LINE",
"510 0 LINE",
"762 0 LINE",
"514 644 LINE",
"263 644 LINE",
"15 0 LINE"
);
},
{
closed = 1;
nodes = (
"388 408 LINE",
"437 285 LINE",
"339 285 LINE"
);
},
{
closed = 1;
nodes = (
"333 688 LINE",
"386 764 LINE",
"442 688 LINE",
"631 688 LINE",
"473 856 LINE",
"298 856 LINE",
"140 688 LINE"
);
},
{
closed = 1;
nodes = (
"697 797 LINE",
"697 828 LINE",
"745 837 OFFCURVE",
"767 871 OFFCURVE",
"767 917 CURVE SMOOTH",
"767 968 OFFCURVE",
"721 1009 OFFCURVE",
"638 1009 CURVE SMOOTH",
"588 1009 OFFCURVE",
"549 1004 OFFCURVE",
"522 997 CURVE",
"522 905 LINE",
"535 910 OFFCURVE",
"553 915 OFFCURVE",
"570 915 CURVE SMOOTH",
"592 915 OFFCURVE",
"604 912 OFFCURVE",
"604 900 CURVE SMOOTH",
"604 888 OFFCURVE",
"591 879 OFFCURVE",
"540 877 CURVE",
"540 797 LINE"
);
}
);
width = 777;
}
);
leftKerningGroup = A;
note = Acircumflexhookabove;
rightKerningGroup = A;
unicode = 1EA8;
},
{
glyphname = Acircumflextilde;
lastChange = "2015-10-23 06:06:22 +0000";
layers = (
{
layerId = "03246D8C-E7A1-43FC-9121-0C6BC949C0F5";
name = Bold;
paths = (
{
closed = 1;
nodes = (
"267 0 LINE",
"313 120 LINE",
"464 120 LINE",
"510 0 LINE",
"762 0 LINE",
"514 644 LINE",
"263 644 LINE",
"15 0 LINE"
);
},
{
closed = 1;
nodes = (
"388 408 LINE",
"437 285 LINE",
"339 285 LINE"
);
},
{
closed = 1;
nodes = (
"336 688 LINE",
"389 764 LINE",
"445 688 LINE",
"634 688 LINE",
"476 856 LINE",
"301 856 LINE",
"143 688 LINE"
);
},
{
closed = 1;
nodes = (
"536 871 OFFCURVE",
"575 887 OFFCURVE",
"587 904 CURVE",
"587 1039 LINE",
"572 1018 OFFCURVE",
"537 1000 OFFCURVE",
"493 1000 CURVE SMOOTH",
"428 1000 OFFCURVE",
"371 1042 OFFCURVE",
"301 1042 CURVE SMOOTH",
"261 1042 OFFCURVE",
"223 1026 OFFCURVE",
"204 1009 CURVE",
"204 874 LINE",
"227 897 OFFCURVE",
"260 913 OFFCURVE",
"304 913 CURVE SMOOTH",
"363 913 OFFCURVE",
"428 871 OFFCURVE",
"496 871 CURVE SMOOTH"
);
}
);
width = 777;
}
);
leftKerningGroup = A;
note = Acircumflextilde;
rightKerningGroup = A;
unicode = 1EAA;
},
{
glyphname = Adieresis;
lastChange = "2015-10-23 06:06:23 +0000";
layers = (
{
layerId = "03246D8C-E7A1-43FC-9121-0C6BC949C0F5";
name = Bold;
paths = (
{
closed = 1;
nodes = (
"267 0 LINE",
"313 120 LINE",
"464 120 LINE",
"510 0 LINE",
"762 0 LINE",
"514 644 LINE",
"263 644 LINE",
"15 0 LINE"
);
},
{
closed = 1;
nodes = (
"388 408 LINE",
"437 285 LINE",
"339 285 LINE"
);
},
{
closed = 1;
nodes = (
"349 717 LINE",
"349 858 LINE",
"193 858 LINE",
"193 717 LINE"
);
},
{
closed = 1;
nodes = (
"584 717 LINE",
"584 858 LINE",
"428 858 LINE",
"428 717 LINE"
);
}
);
width = 777;
}
);
leftKerningGroup = A;
note = Adieresis;
rightKerningGroup = A;
unicode = 00C4;
},
{
glyphname = Adotbelow;
lastChange = "2015-10-23 06:06:22 +0000";
layers = (
{
layerId = "03246D8C-E7A1-43FC-9121-0C6BC949C0F5";
name = Bold;
paths = (
{
closed = 1;
nodes = (
"267 0 LINE",
"313 120 LINE",
"464 120 LINE",
"510 0 LINE",
"762 0 LINE",
"514 644 LINE",
"263 644 LINE",
"15 0 LINE"
);
},
{
closed = 1;
nodes = (
"467 -213 LINE",
"467 -72 LINE",
"311 -72 LINE",
"311 -213 LINE"
);
},
{
closed = 1;
nodes = (
"388 408 LINE",
"437 285 LINE",
"339 285 LINE"
);
}
);
width = 777;
}
);
leftKerningGroup = A;
note = Adotbelow;
rightKerningGroup = A;
unicode = 1EA0;
},
{
glyphname = Agrave;
lastChange = "2015-10-23 06:06:22 +0000";
layers = (
{
layerId = "03246D8C-E7A1-43FC-9121-0C6BC949C0F5";
name = Bold;
paths = (
{
closed = 1;
nodes = (
"267 0 LINE",
"313 120 LINE",
"464 120 LINE",
"510 0 LINE",
"762 0 LINE",
"514 644 LINE",
"263 644 LINE",
"15 0 LINE"
);
},
{
closed = 1;
nodes = (
"388 408 LINE",
"437 285 LINE",
"339 285 LINE"
);
},
{
closed = 1;
nodes = (
"474 688 LINE",
"378 914 LINE",
"192 914 LINE",
"297 688 LINE"
);
}
);
width = 777;
}
);
leftKerningGroup = A;
note = Agrave;
rightKerningGroup = A;
unicode = 00C0;
},
{
glyphname = Ahookabove;
lastChange = "2015-10-23 06:06:23 +0000";
layers = (
{
layerId = "03246D8C-E7A1-43FC-9121-0C6BC949C0F5";
name = Bold;
paths = (
{
closed = 1;
nodes = (
"267 0 LINE",
"313 120 LINE",
"464 120 LINE",
"510 0 LINE",
"762 0 LINE",
"514 644 LINE",
"263 644 LINE",
"15 0 LINE"
);
},
{
closed = 1;
nodes = (
"388 408 LINE",
"437 285 LINE",
"339 285 LINE"
);
},
{
closed = 1;
nodes = (
"482 688 LINE",
"482 724 LINE",
"540 742 OFFCURVE",
"564 768 OFFCURVE",
"564 828 CURVE SMOOTH",
"564 888 OFFCURVE",
"510 935 OFFCURVE",
"413 935 CURVE SMOOTH",
"355 935 OFFCURVE",
"315 929 OFFCURVE",
"283 920 CURVE",
"283 826 LINE",
"298 832 OFFCURVE",
"319 836 OFFCURVE",
"339 836 CURVE SMOOTH",
"373 836 OFFCURVE",
"389 828 OFFCURVE",
"389 808 CURVE SMOOTH",
"389 788 OFFCURVE",
"369 773 OFFCURVE",
"304 769 CURVE",
"304 688 LINE"
);
}
);
width = 777;
}
);
leftKerningGroup = A;
note = Ahookabove;
rightKerningGroup = A;
unicode = 1EA2;
},
{
glyphname = Amacron;
lastChange = "2015-10-23 06:06:22 +0000";
layers = (
{
layerId = "03246D8C-E7A1-43FC-9121-0C6BC949C0F5";
name = Bold;
paths = (
{
closed = 1;
nodes = (
"267 0 LINE",
"313 120 LINE",
"464 120 LINE",
"510 0 LINE",
"762 0 LINE",
"514 644 LINE",
"263 644 LINE",
"15 0 LINE"
);
},
{
closed = 1;
nodes = (
"388 408 LINE",
"437 285 LINE",
"339 285 LINE"
);
},
{
closed = 1;
nodes = (
"563 698 LINE",
"563 838 LINE",
"214 838 LINE",
"214 698 LINE"
);
}
);
width = 777;
}
);
leftKerningGroup = A;
note = Amacron;
rightKerningGroup = A;
unicode = 0100;
},
{
glyphname = Aogonek;
lastChange = "2015-10-23 06:07:29 +0000";
layers = (
{
layerId = "03246D8C-E7A1-43FC-9121-0C6BC949C0F5";
name = Bold;
paths = (
{
closed = 1;
nodes = (
"267 0 LINE",
"313 120 LINE",
"464 120 LINE",
"510 0 LINE",
"762 0 LINE",
"514 644 LINE",
"263 644 LINE",
"15 0 LINE"
);
},
{
closed = 1;
nodes = (
"684 -220 OFFCURVE",
"731 -210 OFFCURVE",
"754 -202 CURVE",
"754 -96 LINE",
"742 -103 OFFCURVE",
"720 -107 OFFCURVE",
"703 -107 CURVE SMOOTH",
"673 -107 OFFCURVE",
"656 -101 OFFCURVE",
"656 -76 CURVE SMOOTH",
"656 -47 OFFCURVE",
"677 -21 OFFCURVE",
"705 0 CURVE",
"561 0 LINE",
"520 -23 OFFCURVE",
"486 -64 OFFCURVE",
"486 -116 CURVE SMOOTH",
"486 -188 OFFCURVE",
"543 -220 OFFCURVE",
"634 -220 CURVE SMOOTH"
);
},
{
closed = 1;
nodes = (
"388 408 LINE",
"437 285 LINE",
"339 285 LINE"
);
}
);
width = 777;
}
);
leftKerningGroup = A;
note = Aogonek;
rightKerningGroup = A;
unicode = 0104;
},
{
glyphname = Aring;
lastChange = "2015-10-23 06:06:22 +0000";
layers = (
{
layerId = "03246D8C-E7A1-43FC-9121-0C6BC949C0F5";
name = Bold;
paths = (
{
closed = 1;
nodes = (
"267 0 LINE",
"313 120 LINE",
"464 120 LINE",
"510 0 LINE",
"762 0 LINE",
"514 644 LINE",
"263 644 LINE",
"15 0 LINE"
);
},
{
closed = 1;
nodes = (
"388 408 LINE",
"437 285 LINE",
"339 285 LINE"
);
},
{
closed = 1;
nodes = (
"489 588 OFFCURVE",
"542 651 OFFCURVE",
"542 731 CURVE SMOOTH",
"542 812 OFFCURVE",
"489 875 OFFCURVE",
"388 875 CURVE SMOOTH",
"288 875 OFFCURVE",
"235 812 OFFCURVE",
"235 731 CURVE SMOOTH",
"235 651 OFFCURVE",
"288 588 OFFCURVE",
"388 588 CURVE SMOOTH"
);
},
{
closed = 1;
nodes = (
"351 680 OFFCURVE",
"334 704 OFFCURVE",
"334 731 CURVE SMOOTH",
"334 758 OFFCURVE",
"351 782 OFFCURVE",
"388 782 CURVE SMOOTH",
"425 782 OFFCURVE",
"442 758 OFFCURVE",
"442 731 CURVE SMOOTH",
"442 704 OFFCURVE",
"425 680 OFFCURVE",
"388 680 CURVE SMOOTH"
);
}
);
width = 777;
}
);
leftKerningGroup = A;
note = Aring;
rightKerningGroup = A;
unicode = 00C5;
},
{
glyphname = Aringacute;
lastChange = "2015-10-23 06:06:23 +0000";
layers = (
{
layerId = "03246D8C-E7A1-43FC-9121-0C6BC949C0F5";
name = Bold;
paths = (
{
closed = 1;
nodes = (
"267 0 LINE",
"313 120 LINE",
"464 120 LINE",
"510 0 LINE",
"762 0 LINE",
"514 644 LINE",
"263 644 LINE",
"15 0 LINE"
);
},
{
closed = 1;
nodes = (
"388 408 LINE",
"437 285 LINE",
"339 285 LINE"
);
},
{
closed = 1;
nodes = (
"489 588 OFFCURVE",
"542 651 OFFCURVE",
"542 731 CURVE SMOOTH",
"542 812 OFFCURVE",
"489 875 OFFCURVE",
"388 875 CURVE SMOOTH",
"288 875 OFFCURVE",
"235 812 OFFCURVE",
"235 731 CURVE SMOOTH",
"235 651 OFFCURVE",
"288 588 OFFCURVE",
"388 588 CURVE SMOOTH"
);
},
{
closed = 1;
nodes = (
"351 680 OFFCURVE",
"334 704 OFFCURVE",
"334 731 CURVE SMOOTH",
"334 758 OFFCURVE",
"351 782 OFFCURVE",
"388 782 CURVE SMOOTH",
"425 782 OFFCURVE",
"442 758 OFFCURVE",
"442 731 CURVE SMOOTH",
"442 704 OFFCURVE",
"425 680 OFFCURVE",
"388 680 CURVE SMOOTH"
);
},
{
closed = 1;
nodes = (
"471 907 LINE",
"576 1087 LINE",
"390 1087 LINE",
"294 907 LINE"
);
}
);
width = 777;
}
);
leftKerningGroup = A;
note = Aringacute;
rightKerningGroup = A;
unicode = 01FA;
},
{
glyphname = Atilde;
lastChange = "2015-10-23 06:06:22 +0000";
layers = (
{
layerId = "03246D8C-E7A1-43FC-9121-0C6BC949C0F5";
name = Bold;
paths = (
{
closed = 1;
nodes = (
"267 0 LINE",
"313 120 LINE",
"464 120 LINE",
"510 0 LINE",
"762 0 LINE",
"514 644 LINE",
"263 644 LINE",
"15 0 LINE"
);
},
{
closed = 1;
nodes = (
"388 408 LINE",
"437 285 LINE",
"339 285 LINE"
);
},
{
closed = 1;
nodes = (
"536 693 OFFCURVE",
"576 710 OFFCURVE",
"589 728 CURVE",
"589 869 LINE",
"573 847 OFFCURVE",
"537 828 OFFCURVE",
"491 828 CURVE SMOOTH",
"422 828 OFFCURVE",
"363 872 OFFCURVE",
"290 872 CURVE SMOOTH",
"248 872 OFFCURVE",
"208 855 OFFCURVE",
"188 837 CURVE",
"188 696 LINE",
"212 720 OFFCURVE",
"247 737 OFFCURVE",
"293 737 CURVE SMOOTH",
"354 737 OFFCURVE",
"422 693 OFFCURVE",
"494 693 CURVE SMOOTH"
);
}
);
width = 777;
}
);
leftKerningGroup = A;
note = Atilde;
rightKerningGroup = A;
unicode = 00C3;
},
{
glyphname = AE;
lastChange = "2015-10-23 06:06:22 +0000";
layers = (
{
layerId = "03246D8C-E7A1-43FC-9121-0C6BC949C0F5";
name = Bold;
paths = (
{
closed = 1;
nodes = (
"267 0 LINE",
"313 120 LINE",
"404 120 LINE",
"404 0 LINE",
"859 0 LINE",
"859 174 LINE",
"636 174 LINE",
"636 232 LINE",
"821 232 LINE",
"821 412 LINE",
"636 412 LINE",
"636 470 LINE",
"859 470 LINE",
"859 644 LINE",
"263 644 LINE",
"15 0 LINE"
);
},
{
closed = 1;
nodes = (
"398 470 LINE",
"404 470 LINE",
"404 285 LINE",
"339 285 LINE"
);
}
);
width = 874;
}
);
leftKerningGroup = A;
note = AE;
rightKerningGroup = E;
unicode = 00C6;
},
{
glyphname = AEacute;
lastChange = "2015-10-23 06:06:22 +0000";
layers = (
{
layerId = "03246D8C-E7A1-43FC-9121-0C6BC949C0F5";
name = Bold;
paths = (
{
closed = 1;
nodes = (
"267 0 LINE",
"313 120 LINE",
"404 120 LINE",
"404 0 LINE",
"859 0 LINE",
"859 174 LINE",
"636 174 LINE",
"636 232 LINE",
"821 232 LINE",
"821 412 LINE",
"636 412 LINE",
"636 470 LINE",
"859 470 LINE",
"859 644 LINE",
"263 644 LINE",
"15 0 LINE"
);
},
{
closed = 1;
nodes = (
"398 470 LINE",
"404 470 LINE",
"404 285 LINE",
"339 285 LINE"
);
},
{
closed = 1;
nodes = (
"585 688 LINE",
"690 914 LINE",
"504 914 LINE",
"408 688 LINE"
);
}
);
width = 874;
}
);
leftKerningGroup = A;
note = AEacute;
rightKerningGroup = E;
unicode = 01FC;
},
{
glyphname = B;
lastChange = "2015-10-23 06:06:22 +0000";
layers = (
{
layerId = "03246D8C-E7A1-43FC-9121-0C6BC949C0F5";
name = Bold;
paths = (
{
closed = 1;
nodes = (
"421 0 LINE SMOOTH",
"563 0 OFFCURVE",
"647 74 OFFCURVE",
"647 195 CURVE SMOOTH",
"647 270 OFFCURVE",
"615 302 OFFCURVE",
"565 326 CURVE",
"601 353 OFFCURVE",
"625 398 OFFCURVE",
"625 462 CURVE SMOOTH",
"625 579 OFFCURVE",
"549 644 OFFCURVE",
"417 644 CURVE SMOOTH",
"35 644 LINE",
"35 0 LINE"
);
},
{
closed = 1;
nodes = (
"262 247 LINE",
"352 247 LINE SMOOTH",
"384 247 OFFCURVE",
"400 232 OFFCURVE",
"400 207 CURVE SMOOTH",
"400 178 OFFCURVE",
"384 164 OFFCURVE",
"352 164 CURVE SMOOTH",
"262 164 LINE"
);
},
{
closed = 1;
nodes = (
"262 480 LINE",
"352 480 LINE SMOOTH",
"384 480 OFFCURVE",
"400 465 OFFCURVE",
"400 440 CURVE SMOOTH",
"400 411 OFFCURVE",
"384 397 OFFCURVE",
"352 397 CURVE SMOOTH",
"262 397 LINE"
);
}
);
width = 662;
}
);
note = B;
unicode = 0042;
},
{
glyphname = C;
lastChange = "2015-10-23 06:06:19 +0000";
layers = (
{
layerId = "03246D8C-E7A1-43FC-9121-0C6BC949C0F5";
name = Bold;
paths = (
{
closed = 1;
nodes = (
"483 -10 OFFCURVE",
"542 3 OFFCURVE",
"603 25 CURVE",
"603 236 LINE",
"540 207 OFFCURVE",
"482 194 OFFCURVE",
"416 194 CURVE SMOOTH",
"322 194 OFFCURVE",
"262 225 OFFCURVE",
"262 322 CURVE SMOOTH",
"262 419 OFFCURVE",
"320 450 OFFCURVE",
"414 450 CURVE SMOOTH",
"480 450 OFFCURVE",
"538 437 OFFCURVE",
"601 408 CURVE",
"601 619 LINE",
"540 641 OFFCURVE",
"481 654 OFFCURVE",
"398 654 CURVE SMOOTH",
"145 654 OFFCURVE",
"15 541 OFFCURVE",
"15 322 CURVE SMOOTH",
"15 103 OFFCURVE",
"147 -10 OFFCURVE",
"400 -10 CURVE SMOOTH"
);
}
);
width = 618;
}
);
leftKerningGroup = C;
note = C;
rightKerningGroup = C;
unicode = 0043;
},
{
glyphname = Cacute;
lastChange = "2015-10-23 06:06:23 +0000";
layers = (
{
layerId = "03246D8C-E7A1-43FC-9121-0C6BC949C0F5";
name = Bold;
paths = (
{
closed = 1;
nodes = (
"483 -10 OFFCURVE",
"542 3 OFFCURVE",
"603 25 CURVE",
"603 236 LINE",
"540 207 OFFCURVE",
"482 194 OFFCURVE",
"416 194 CURVE SMOOTH",
"322 194 OFFCURVE",
"262 225 OFFCURVE",
"262 322 CURVE SMOOTH",
"262 419 OFFCURVE",
"320 450 OFFCURVE",
"414 450 CURVE SMOOTH",
"480 450 OFFCURVE",
"538 437 OFFCURVE",
"601 408 CURVE",
"601 619 LINE",
"540 641 OFFCURVE",
"481 654 OFFCURVE",
"398 654 CURVE SMOOTH",
"145 654 OFFCURVE",
"15 541 OFFCURVE",
"15 322 CURVE SMOOTH",
"15 103 OFFCURVE",
"147 -10 OFFCURVE",
"400 -10 CURVE SMOOTH"
);
},
{
closed = 1;
nodes = (
"466 688 LINE",
"571 914 LINE",
"385 914 LINE",
"289 688 LINE"
);
}
);
width = 618;
}
);
leftKerningGroup = C;
note = Cacute;
rightKerningGroup = C;
unicode = 0106;
},
{
glyphname = Ccaron;
lastChange = "2015-10-23 06:06:22 +0000";
layers = (
{
layerId = "03246D8C-E7A1-43FC-9121-0C6BC949C0F5";
name = Bold;
paths = (
{
closed = 1;
nodes = (
"483 -10 OFFCURVE",
"542 3 OFFCURVE",
"603 25 CURVE",
"603 236 LINE",
"540 207 OFFCURVE",
"482 194 OFFCURVE",
"416 194 CURVE SMOOTH",
"322 194 OFFCURVE",
"262 225 OFFCURVE",
"262 322 CURVE SMOOTH",
"262 419 OFFCURVE",
"320 450 OFFCURVE",
"414 450 CURVE SMOOTH",
"480 450 OFFCURVE",
"538 437 OFFCURVE",
"601 408 CURVE",
"601 619 LINE",
"540 641 OFFCURVE",
"481 654 OFFCURVE",
"398 654 CURVE SMOOTH",
"145 654 OFFCURVE",
"15 541 OFFCURVE",
"15 322 CURVE SMOOTH",
"15 103 OFFCURVE",
"147 -10 OFFCURVE",
"400 -10 CURVE SMOOTH"
);
},
{
closed = 1;
nodes = (
"455 688 LINE",
"630 904 LINE",
"462 904 LINE",
"385 797 LINE",
"312 904 LINE",
"139 904 LINE",
"314 688 LINE"
);
}
);
width = 618;
}
);
leftKerningGroup = C;
note = Ccaron;
rightKerningGroup = C;
unicode = 010C;
},
{
glyphname = Ccedilla;
lastChange = "2015-10-23 06:06:23 +0000";
layers = (
{
layerId = "03246D8C-E7A1-43FC-9121-0C6BC949C0F5";
name = Bold;
paths = (
{
closed = 1;
nodes = (
"483 -10 OFFCURVE",
"542 3 OFFCURVE",
"603 25 CURVE",
"603 236 LINE",
"540 207 OFFCURVE",
"482 194 OFFCURVE",
"416 194 CURVE SMOOTH",
"322 194 OFFCURVE",
"262 225 OFFCURVE",
"262 322 CURVE SMOOTH",
"262 419 OFFCURVE",
"320 450 OFFCURVE",
"414 450 CURVE SMOOTH",
"480 450 OFFCURVE",
"538 437 OFFCURVE",
"601 408 CURVE",
"601 619 LINE",
"540 641 OFFCURVE",
"481 654 OFFCURVE",
"398 654 CURVE SMOOTH",
"145 654 OFFCURVE",
"15 541 OFFCURVE",
"15 322 CURVE SMOOTH",
"15 103 OFFCURVE",
"147 -10 OFFCURVE",
"400 -10 CURVE SMOOTH"
);
},
{
closed = 1;
nodes = (
"485 -240 OFFCURVE",
"542 -199 OFFCURVE",
"542 -133 CURVE SMOOTH",
"542 -79 OFFCURVE",
"501 -37 OFFCURVE",
"434 -37 CURVE",
"447 0 LINE",
"326 0 LINE",
"298 -100 LINE",
"372 -100 LINE SMOOTH",
"394 -100 OFFCURVE",
"409 -107 OFFCURVE",
"409 -128 CURVE SMOOTH",
"409 -150 OFFCURVE",
"386 -163 OFFCURVE",
"342 -163 CURVE SMOOTH",
"323 -163 OFFCURVE",
"302 -160 OFFCURVE",
"284 -155 CURVE",
"284 -232 LINE",
"299 -236 OFFCURVE",
"347 -240 OFFCURVE",
"372 -240 CURVE SMOOTH"
);
}
);
width = 618;
}
);
leftKerningGroup = C;
note = Ccedilla;
rightKerningGroup = C;
unicode = 00C7;
},
{
glyphname = Ccircumflex;
lastChange = "2015-10-23 06:06:23 +0000";
layers = (
{
layerId = "03246D8C-E7A1-43FC-9121-0C6BC949C0F5";
name = Bold;
paths = (
{
closed = 1;
nodes = (
"483 -10 OFFCURVE",
"542 3 OFFCURVE",
"603 25 CURVE",
"603 236 LINE",
"540 207 OFFCURVE",
"482 194 OFFCURVE",
"416 194 CURVE SMOOTH",
"322 194 OFFCURVE",
"262 225 OFFCURVE",
"262 322 CURVE SMOOTH",
"262 419 OFFCURVE",
"320 450 OFFCURVE",
"414 450 CURVE SMOOTH",
"480 450 OFFCURVE",
"538 437 OFFCURVE",
"601 408 CURVE",
"601 619 LINE",
"540 641 OFFCURVE",
"481 654 OFFCURVE",
"398 654 CURVE SMOOTH",
"145 654 OFFCURVE",
"15 541 OFFCURVE",
"15 322 CURVE SMOOTH",
"15 103 OFFCURVE",
"147 -10 OFFCURVE",
"400 -10 CURVE SMOOTH"
);
},
{
closed = 1;
nodes = (
"274 688 LINE",
"347 795 LINE",
"424 688 LINE",
"592 688 LINE",
"417 904 LINE",
"276 904 LINE",
"101 688 LINE"
);
}
);
width = 618;
}
);
leftKerningGroup = C;
note = Ccircumflex;
rightKerningGroup = C;
unicode = 0108;
},
{
glyphname = Cdotaccent;
lastChange = "2015-10-23 06:06:22 +0000";
layers = (
{
layerId = "03246D8C-E7A1-43FC-9121-0C6BC949C0F5";
name = Bold;
paths = (
{
closed = 1;
nodes = (
"483 -10 OFFCURVE",
"542 3 OFFCURVE",
"603 25 CURVE",
"603 236 LINE",
"540 207 OFFCURVE",
"482 194 OFFCURVE",
"416 194 CURVE SMOOTH",
"322 194 OFFCURVE",
"262 225 OFFCURVE",
"262 322 CURVE SMOOTH",
"262 419 OFFCURVE",
"320 450 OFFCURVE",
"414 450 CURVE SMOOTH",
"480 450 OFFCURVE",
"538 437 OFFCURVE",
"601 408 CURVE",
"601 619 LINE",
"540 641 OFFCURVE",
"481 654 OFFCURVE",
"398 654 CURVE SMOOTH",
"145 654 OFFCURVE",
"15 541 OFFCURVE",
"15 322 CURVE SMOOTH",
"15 103 OFFCURVE",
"147 -10 OFFCURVE",
"400 -10 CURVE SMOOTH"
);
},
{
closed = 1;
nodes = (
"444 718 LINE",
"444 859 LINE",
"288 859 LINE",
"288 718 LINE"
);
}
);
width = 618;
}
);
leftKerningGroup = C;
note = Cdotaccent;
rightKerningGroup = C;
unicode = 010A;
},
{
glyphname = D;
lastChange = "2015-10-23 06:06:23 +0000";
layers = (
{
layerId = "03246D8C-E7A1-43FC-9121-0C6BC949C0F5";
name = Bold;
paths = (
{
closed = 1;
nodes = (
"341 0 LINE SMOOTH",
"548 0 OFFCURVE",
"675 94 OFFCURVE",
"675 318 CURVE SMOOTH",
"675 554 OFFCURVE",
"545 644 OFFCURVE",
"341 644 CURVE SMOOTH",
"35 644 LINE",
"35 0 LINE"
);
},
{
closed = 1;
nodes = (
"277 446 LINE",
"313 446 LINE SMOOTH",
"390 446 OFFCURVE",
"429 430 OFFCURVE",
"429 318 CURVE SMOOTH",
"429 206 OFFCURVE",
"384 184 OFFCURVE",
"313 184 CURVE SMOOTH",
"277 184 LINE"
);
}
);
width = 690;
}
);
note = D;
rightKerningGroup = D;
unicode = 0044;
},
{
glyphname = Eth;
lastChange = "2015-10-23 06:06:22 +0000";
layers = (
{
layerId = "03246D8C-E7A1-43FC-9121-0C6BC949C0F5";
name = Bold;
paths = (
{
closed = 1;
nodes = (
"385 0 LINE SMOOTH",
"592 0 OFFCURVE",
"719 94 OFFCURVE",
"719 318 CURVE SMOOTH",
"719 554 OFFCURVE",
"589 644 OFFCURVE",
"385 644 CURVE SMOOTH",
"79 644 LINE",
"79 0 LINE"
);
},
{
closed = 1;
nodes = (
"382 238 LINE",
"382 392 LINE",
"-5 392 LINE",
"-5 238 LINE"
);
},
{
closed = 1;
nodes = (
"321 446 LINE",
"357 446 LINE SMOOTH",
"434 446 OFFCURVE",
"473 430 OFFCURVE",
"473 318 CURVE SMOOTH",
"473 206 OFFCURVE",
"428 184 OFFCURVE",
"357 184 CURVE SMOOTH",
"321 184 LINE"
);
}
);
width = 734;
}
);
note = Eth;
rightKerningGroup = D;
unicode = 00D0;
},
{
glyphname = Dcaron;
lastChange = "2015-10-23 06:06:23 +0000";
layers = (
{
layerId = "03246D8C-E7A1-43FC-9121-0C6BC949C0F5";
name = Bold;
paths = (
{
closed = 1;
nodes = (
"341 0 LINE SMOOTH",
"548 0 OFFCURVE",
"675 94 OFFCURVE",
"675 318 CURVE SMOOTH",
"675 554 OFFCURVE",
"545 644 OFFCURVE",
"341 644 CURVE SMOOTH",
"35 644 LINE",
"35 0 LINE"
);
},
{
closed = 1;
nodes = (
"277 446 LINE",
"313 446 LINE SMOOTH",
"390 446 OFFCURVE",
"429 430 OFFCURVE",
"429 318 CURVE SMOOTH",
"429 206 OFFCURVE",
"384 184 OFFCURVE",
"313 184 CURVE SMOOTH",
"277 184 LINE"
);
},
{
closed = 1;
nodes = (
"377 688 LINE",
"552 904 LINE",
"384 904 LINE",
"307 797 LINE",
"234 904 LINE",
"61 904 LINE",
"236 688 LINE"
);
}
);
width = 690;
}
);
note = Dcaron;
rightKerningGroup = D;
unicode = 010E;
},
{
glyphname = Dcroat;
lastChange = "2015-10-23 06:06:22 +0000";
layers = (
{
layerId = "03246D8C-E7A1-43FC-9121-0C6BC949C0F5";
name = Bold;
paths = (
{
closed = 1;
nodes = (
"375 0 LINE SMOOTH",
"582 0 OFFCURVE",
"709 94 OFFCURVE",
"709 318 CURVE SMOOTH",
"709 554 OFFCURVE",
"579 644 OFFCURVE",
"375 644 CURVE SMOOTH",
"69 644 LINE",
"69 0 LINE"
);
},
{
closed = 1;
nodes = (
"372 238 LINE",
"372 392 LINE",
"-15 392 LINE",
"-15 238 LINE"
);
},
{
closed = 1;
nodes = (
"311 446 LINE",
"347 446 LINE SMOOTH",
"424 446 OFFCURVE",
"463 430 OFFCURVE",
"463 318 CURVE SMOOTH",
"463 206 OFFCURVE",
"418 184 OFFCURVE",
"347 184 CURVE SMOOTH",
"311 184 LINE"
);
}
);
width = 724;
}
);
note = Dcroat;
rightKerningGroup = D;
unicode = 0110;
},
{
glyphname = Ddotbelow;
lastChange = "2015-10-23 06:06:22 +0000";
layers = (
{
layerId = "03246D8C-E7A1-43FC-9121-0C6BC949C0F5";
name = Bold;
paths = (
{
closed = 1;
nodes = (
"341 0 LINE SMOOTH",
"548 0 OFFCURVE",
"675 94 OFFCURVE",
"675 318 CURVE SMOOTH",
"675 554 OFFCURVE",
"545 644 OFFCURVE",
"341 644 CURVE SMOOTH",
"35 644 LINE",
"35 0 LINE"
);
},
{
closed = 1;
nodes = (
"386 -213 LINE",
"386 -72 LINE",
"230 -72 LINE",
"230 -213 LINE"
);
},
{
closed = 1;
nodes = (
"277 446 LINE",
"313 446 LINE SMOOTH",
"390 446 OFFCURVE",
"429 430 OFFCURVE",
"429 318 CURVE SMOOTH",
"429 206 OFFCURVE",
"384 184 OFFCURVE",
"313 184 CURVE SMOOTH",
"277 184 LINE"
);
}
);
width = 690;
}
);
note = Ddotbelow;
rightKerningGroup = D;
unicode = 1E0C;
},
{
glyphname = Dlinebelow;
lastChange = "2015-10-23 06:06:23 +0000";
layers = (
{
layerId = "03246D8C-E7A1-43FC-9121-0C6BC949C0F5";
name = Bold;
paths = (
{
closed = 1;
nodes = (
"341 0 LINE SMOOTH",
"548 0 OFFCURVE",
"675 94 OFFCURVE",
"675 318 CURVE SMOOTH",
"675 554 OFFCURVE",
"545 644 OFFCURVE",
"341 644 CURVE SMOOTH",
"35 644 LINE",
"35 0 LINE"
);
},
{
closed = 1;
nodes = (
"441 -192 LINE",
"441 -52 LINE",
"92 -52 LINE",
"92 -192 LINE"
);
},
{
closed = 1;
nodes = (
"277 446 LINE",
"313 446 LINE SMOOTH",
"390 446 OFFCURVE",
"429 430 OFFCURVE",
"429 318 CURVE SMOOTH",
"429 206 OFFCURVE",
"384 184 OFFCURVE",
"313 184 CURVE SMOOTH",
"277 184 LINE"
);
}
);
width = 690;
}
);
note = Dlinebelow;
rightKerningGroup = D;
unicode = 1E0E;
},
{
glyphname = E;
lastChange = "2015-10-23 06:06:19 +0000";
layers = (
{
layerId = "03246D8C-E7A1-43FC-9121-0C6BC949C0F5";
name = Bold;
paths = (
{
closed = 1;
nodes = (
"550 0 LINE",
"550 174 LINE",
"277 174 LINE",
"277 232 LINE",
"512 232 LINE",
"512 412 LINE",
"277 412 LINE",
"277 470 LINE",
"550 470 LINE",
"550 644 LINE",
"35 644 LINE",
"35 0 LINE"
);
}
);
width = 555;
}
);
leftKerningGroup = E;
note = E;
rightKerningGroup = E;
unicode = 0045;
},
{
glyphname = Eacute;
lastChange = "2015-10-23 06:06:22 +0000";
layers = (
{
layerId = "03246D8C-E7A1-43FC-9121-0C6BC949C0F5";
name = Bold;
paths = (
{
closed = 1;
nodes = (
"550 0 LINE",
"550 174 LINE",
"277 174 LINE",
"277 232 LINE",
"512 232 LINE",
"512 412 LINE",
"277 412 LINE",
"277 470 LINE",
"550 470 LINE",
"550 644 LINE",
"35 644 LINE",
"35 0 LINE"
);
},
{
closed = 1;
nodes = (
"355 688 LINE",
"460 914 LINE",
"274 914 LINE",
"178 688 LINE"
);
}
);
width = 555;
}
);
leftKerningGroup = E;
note = Eacute;
rightKerningGroup = E;
unicode = 00C9;
},
{
glyphname = Ebreve;
lastChange = "2015-10-23 06:06:22 +0000";
layers = (
{
layerId = "03246D8C-E7A1-43FC-9121-0C6BC949C0F5";
name = Bold;
paths = (
{
closed = 1;
nodes = (
"550 0 LINE",
"550 174 LINE",
"277 174 LINE",
"277 232 LINE",
"512 232 LINE",
"512 412 LINE",
"277 412 LINE",
"277 470 LINE",
"550 470 LINE",
"550 644 LINE",
"35 644 LINE",
"35 0 LINE"
);
},
{
closed = 1;
nodes = (
"428 688 OFFCURVE",
"515 765 OFFCURVE",
"515 908 CURVE",
"360 908 LINE",
"360 863 OFFCURVE",
"345 820 OFFCURVE",
"294 820 CURVE SMOOTH",
"244 820 OFFCURVE",
"229 863 OFFCURVE",
"229 908 CURVE",
"74 908 LINE",
"74 765 OFFCURVE",
"161 688 OFFCURVE",
"294 688 CURVE SMOOTH"
);
}
);
width = 555;
}
);
leftKerningGroup = E;
note = Ebreve;
rightKerningGroup = E;
unicode = 0114;
},
{
glyphname = Ecaron;
lastChange = "2015-11-26 08:46:20 +0000";
layers = (
{
layerId = "03246D8C-E7A1-43FC-9121-0C6BC949C0F5";
name = Bold;
paths = (
{
closed = 1;
nodes = (
"550 0 LINE",
"550 174 LINE",
"277 174 LINE",
"277 232 LINE",
"512 232 LINE",
"512 412 LINE",
"277 412 LINE",
"277 470 LINE",
"550 470 LINE",
"550 644 LINE",
"35 644 LINE",
"35 0 LINE"
);
},
{
closed = 1;
nodes = (
"367 688 LINE",
"542 904 LINE",
"374 904 LINE",
"297 797 LINE",
"224 904 LINE",
"51 904 LINE",
"226 688 LINE"
);
}
);
width = 555;
}
);
leftKerningGroup = E;
note = Ecaron;
rightKerningGroup = E;
unicode = 011A;
},
{
glyphname = Ecircumflex;
lastChange = "2015-10-23 06:06:22 +0000";
layers = (
{
layerId = "03246D8C-E7A1-43FC-9121-0C6BC949C0F5";
name = Bold;
paths = (
{
closed = 1;
nodes = (
"550 0 LINE",
"550 174 LINE",
"277 174 LINE",
"277 232 LINE",
"512 232 LINE",
"512 412 LINE",
"277 412 LINE",
"277 470 LINE",
"550 470 LINE",
"550 644 LINE",
"35 644 LINE",
"35 0 LINE"
);
},
{
closed = 1;
nodes = (
"221 688 LINE",
"294 795 LINE",
"371 688 LINE",
"539 688 LINE",
"364 904 LINE",
"223 904 LINE",
"48 688 LINE"
);
}
);
width = 555;
}
);
leftKerningGroup = E;
note = Ecircumflex;
rightKerningGroup = E;
unicode = 00CA;
},
{
glyphname = Ecircumflexacute;
lastChange = "2015-10-23 06:06:22 +0000";
layers = (
{
layerId = "03246D8C-E7A1-43FC-9121-0C6BC949C0F5";
name = Bold;
paths = (
{
closed = 1;
nodes = (
"550 0 LINE",
"550 174 LINE",
"277 174 LINE",
"277 232 LINE",
"512 232 LINE",
"512 412 LINE",
"277 412 LINE",
"277 470 LINE",
"550 470 LINE",
"550 644 LINE",
"35 644 LINE",
"35 0 LINE"
);
},
{
closed = 1;
nodes = (
"246 688 LINE",
"299 764 LINE",
"355 688 LINE",
"544 688 LINE",
"386 856 LINE",
"211 856 LINE",
"53 688 LINE"
);
},
{
closed = 1;
nodes = (
"610 820 LINE",
"693 992 LINE",
"517 992 LINE",
"442 820 LINE"
);
}
);
width = 555;
}
);
leftKerningGroup = E;
note = Ecircumflexacute;
rightKerningGroup = E;
unicode = 1EBE;
},
{
glyphname = Ecircumflexdotbelow;
lastChange = "2015-10-23 06:08:07 +0000";
layers = (
{
layerId = "03246D8C-E7A1-43FC-9121-0C6BC949C0F5";
name = Bold;
paths = (
{
closed = 1;
nodes = (
"550 0 LINE",
"550 174 LINE",
"277 174 LINE",
"277 232 LINE",
"512 232 LINE",
"512 412 LINE",
"277 412 LINE",
"277 470 LINE",
"550 470 LINE",
"550 644 LINE",
"35 644 LINE",
"35 0 LINE"
);
},
{
closed = 1;
nodes = (
"369 -213 LINE",
"369 -72 LINE",
"213 -72 LINE",
"213 -213 LINE"
);
},
{
closed = 1;
nodes = (
"218 688 LINE",
"291 795 LINE",
"368 688 LINE",
"536 688 LINE",
"361 904 LINE",
"220 904 LINE",
"45 688 LINE"
);
}
);
width = 555;
}
);
leftKerningGroup = E;
note = Ecircumflexdotbelow;
rightKerningGroup = E;
unicode = 1EC6;
},
{
glyphname = Ecircumflexgrave;
lastChange = "2015-10-23 06:06:22 +0000";
layers = (
{
layerId = "03246D8C-E7A1-43FC-9121-0C6BC949C0F5";
name = Bold;
paths = (
{
closed = 1;
nodes = (
"550 0 LINE",
"550 174 LINE",
"277 174 LINE",
"277 232 LINE",
"512 232 LINE",
"512 412 LINE",
"277 412 LINE",
"277 470 LINE",
"550 470 LINE",
"550 644 LINE",
"35 644 LINE",
"35 0 LINE"
);
},
{
closed = 1;
nodes = (
"152 820 LINE",
"77 992 LINE",
"-99 992 LINE",
"-16 820 LINE"
);
},
{
closed = 1;
nodes = (
"239 688 LINE",
"295 764 LINE",
"348 688 LINE",
"541 688 LINE",
"383 856 LINE",
"208 856 LINE",
"50 688 LINE"
);
}
);
width = 555;
}
);
leftKerningGroup = E;
note = Ecircumflexgrave;
rightKerningGroup = E;
unicode = 1EC0;
},
{
glyphname = Ecircumflexhookabove;
lastChange = "2015-10-23 06:06:23 +0000";
layers = (
{
layerId = "03246D8C-E7A1-43FC-9121-0C6BC949C0F5";
name = Bold;
paths = (
{
closed = 1;
nodes = (
"550 0 LINE",
"550 174 LINE",
"277 174 LINE",
"277 232 LINE",
"512 232 LINE",
"512 412 LINE",
"277 412 LINE",
"277 470 LINE",
"550 470 LINE",
"550 644 LINE",
"35 644 LINE",
"35 0 LINE"
);
},
{
closed = 1;
nodes = (
"238 688 LINE",
"291 764 LINE",
"347 688 LINE",
"536 688 LINE",
"378 856 LINE",
"203 856 LINE",
"45 688 LINE"
);
},
{
closed = 1;
nodes = (
"602 797 LINE",
"602 828 LINE",
"650 837 OFFCURVE",
"672 871 OFFCURVE",
"672 917 CURVE SMOOTH",
"672 968 OFFCURVE",
"626 1009 OFFCURVE",
"543 1009 CURVE SMOOTH",
"493 1009 OFFCURVE",
"454 1004 OFFCURVE",
"427 997 CURVE",
"427 905 LINE",
"440 910 OFFCURVE",
"458 915 OFFCURVE",
"475 915 CURVE SMOOTH",
"497 915 OFFCURVE",
"509 912 OFFCURVE",
"509 900 CURVE SMOOTH",
"509 888 OFFCURVE",
"496 879 OFFCURVE",
"445 877 CURVE",
"445 797 LINE"
);
}
);
width = 555;
}
);
leftKerningGroup = E;
note = Ecircumflexhookabove;
rightKerningGroup = E;
unicode = 1EC2;
},
{
glyphname = Ecircumflextilde;
lastChange = "2015-10-23 06:06:23 +0000";
layers = (
{
layerId = "03246D8C-E7A1-43FC-9121-0C6BC949C0F5";
name = Bold;
paths = (
{
closed = 1;
nodes = (
"550 0 LINE",
"550 174 LINE",
"277 174 LINE",
"277 232 LINE",
"512 232 LINE",
"512 412 LINE",
"277 412 LINE",
"277 470 LINE",
"550 470 LINE",
"550 644 LINE",
"35 644 LINE",
"35 0 LINE"
);
},
{
closed = 1;
nodes = (
"238 688 LINE",
"291 764 LINE",
"347 688 LINE",
"536 688 LINE",
"378 856 LINE",
"203 856 LINE",
"45 688 LINE"
);
},
{
closed = 1;
nodes = (
"438 871 OFFCURVE",
"477 887 OFFCURVE",
"489 904 CURVE",
"489 1039 LINE",
"474 1018 OFFCURVE",
"439 1000 OFFCURVE",
"395 1000 CURVE SMOOTH",
"330 1000 OFFCURVE",
"273 1042 OFFCURVE",
"203 1042 CURVE SMOOTH",
"163 1042 OFFCURVE",
"125 1026 OFFCURVE",
"106 1009 CURVE",
"106 874 LINE",
"129 897 OFFCURVE",
"162 913 OFFCURVE",
"206 913 CURVE SMOOTH",
"265 913 OFFCURVE",
"330 871 OFFCURVE",
"398 871 CURVE SMOOTH"
);
}
);
width = 555;
}
);
leftKerningGroup = E;
note = Ecircumflextilde;
rightKerningGroup = E;
unicode = 1EC4;
},
{
glyphname = Edieresis;
lastChange = "2015-10-23 06:06:22 +0000";
layers = (
{
layerId = "03246D8C-E7A1-43FC-9121-0C6BC949C0F5";
name = Bold;
paths = (
{
closed = 1;
nodes = (
"550 0 LINE",
"550 174 LINE",
"277 174 LINE",
"277 232 LINE",
"512 232 LINE",
"512 412 LINE",
"277 412 LINE",
"277 470 LINE",
"550 470 LINE",
"550 644 LINE",
"35 644 LINE",
"35 0 LINE"
);
},
{
closed = 1;
nodes = (
"257 718 LINE",
"257 859 LINE",
"101 859 LINE",
"101 718 LINE"
);
},
{
closed = 1;
nodes = (
"492 718 LINE",
"492 859 LINE",
"336 859 LINE",
"336 718 LINE"
);
}
);
width = 555;
}
);
leftKerningGroup = E;
note = Edieresis;
rightKerningGroup = E;
unicode = 00CB;
},
{
glyphname = Edotaccent;
lastChange = "2015-10-23 06:06:22 +0000";
layers = (
{
layerId = "03246D8C-E7A1-43FC-9121-0C6BC949C0F5";
name = Bold;
paths = (
{
closed = 1;
nodes = (
"550 0 LINE",
"550 174 LINE",
"277 174 LINE",
"277 232 LINE",
"512 232 LINE",
"512 412 LINE",
"277 412 LINE",
"277 470 LINE",
"550 470 LINE",
"550 644 LINE",
"35 644 LINE",
"35 0 LINE"
);
},
{
closed = 1;
nodes = (
"365 718 LINE",
"365 859 LINE",
"209 859 LINE",
"209 718 LINE"
);
}
);
width = 555;
}
);
leftKerningGroup = E;
note = Edotaccent;
rightKerningGroup = E;
unicode = 0116;
},
{
glyphname = Edotbelow;
lastChange = "2015-10-23 06:06:22 +0000";
layers = (
{
layerId = "03246D8C-E7A1-43FC-9121-0C6BC949C0F5";
name = Bold;
paths = (
{
closed = 1;
nodes = (
"550 0 LINE",
"550 174 LINE",
"277 174 LINE",
"277 232 LINE",
"512 232 LINE",
"512 412 LINE",
"277 412 LINE",
"277 470 LINE",
"550 470 LINE",
"550 644 LINE",
"35 644 LINE",
"35 0 LINE"
);
},
{
closed = 1;
nodes = (
"360 -213 LINE",
"360 -72 LINE",
"204 -72 LINE",
"204 -213 LINE"
);
}
);
width = 555;
}
);
leftKerningGroup = E;
note = Edotbelow;
rightKerningGroup = E;
unicode = 1EB8;
},
{
glyphname = Egrave;
lastChange = "2015-10-23 06:06:23 +0000";
layers = (
{
layerId = "03246D8C-E7A1-43FC-9121-0C6BC949C0F5";
name = Bold;
paths = (
{
closed = 1;
nodes = (
"550 0 LINE",
"550 174 LINE",
"277 174 LINE",
"277 232 LINE",
"512 232 LINE",
"512 412 LINE",
"277 412 LINE",
"277 470 LINE",
"550 470 LINE",
"550 644 LINE",
"35 644 LINE",
"35 0 LINE"
);
},
{
closed = 1;
nodes = (
"399 688 LINE",
"303 914 LINE",
"117 914 LINE",
"222 688 LINE"
);
}
);
width = 555;
}
);
leftKerningGroup = E;
note = Egrave;
rightKerningGroup = E;
unicode = 00C8;
},
{
glyphname = Ehookabove;
lastChange = "2015-10-23 06:06:22 +0000";
layers = (
{
layerId = "03246D8C-E7A1-43FC-9121-0C6BC949C0F5";
name = Bold;
paths = (
{
closed = 1;
nodes = (
"550 0 LINE",
"550 174 LINE",
"277 174 LINE",
"277 232 LINE",
"512 232 LINE",
"512 412 LINE",
"277 412 LINE",
"277 470 LINE",
"550 470 LINE",
"550 644 LINE",
"35 644 LINE",
"35 0 LINE"
);
},
{
closed = 1;
nodes = (
"381 688 LINE",
"381 724 LINE",
"439 742 OFFCURVE",
"463 768 OFFCURVE",
"463 828 CURVE SMOOTH",
"463 888 OFFCURVE",
"409 935 OFFCURVE",
"312 935 CURVE SMOOTH",
"254 935 OFFCURVE",
"214 929 OFFCURVE",
"182 920 CURVE",
"182 826 LINE",
"197 832 OFFCURVE",
"218 836 OFFCURVE",
"238 836 CURVE SMOOTH",
"272 836 OFFCURVE",
"288 828 OFFCURVE",
"288 808 CURVE SMOOTH",
"288 788 OFFCURVE",
"268 773 OFFCURVE",
"203 769 CURVE",
"203 688 LINE"
);
}
);
width = 555;
}
);
leftKerningGroup = E;
note = Ehookabove;
rightKerningGroup = E;
unicode = 1EBA;
},
{
glyphname = Emacron;
lastChange = "2015-10-23 06:06:22 +0000";
layers = (
{
layerId = "03246D8C-E7A1-43FC-9121-0C6BC949C0F5";
name = Bold;
paths = (
{
closed = 1;
nodes = (
"550 0 LINE",
"550 174 LINE",
"277 174 LINE",
"277 232 LINE",
"512 232 LINE",
"512 412 LINE",
"277 412 LINE",
"277 470 LINE",
"550 470 LINE",
"550 644 LINE",
"35 644 LINE",
"35 0 LINE"
);
},
{
closed = 1;
nodes = (
"452 728 LINE",
"452 868 LINE",
"103 868 LINE",
"103 728 LINE"
);
}
);
width = 555;
}
);
leftKerningGroup = E;
note = Emacron;
rightKerningGroup = E;
unicode = 0112;
},
{
glyphname = Eogonek;
lastChange = "2015-10-23 06:06:22 +0000";
layers = (
{
layerId = "03246D8C-E7A1-43FC-9121-0C6BC949C0F5";
name = Bold;
paths = (
{
closed = 1;
nodes = (
"550 0 LINE",
"550 174 LINE",
"277 174 LINE",
"277 232 LINE",
"512 232 LINE",
"512 412 LINE",
"277 412 LINE",
"277 470 LINE",
"550 470 LINE",
"550 644 LINE",
"35 644 LINE",
"35 0 LINE"
);
},
{
closed = 1;
nodes = (
"464 -220 OFFCURVE",
"511 -210 OFFCURVE",
"534 -202 CURVE",
"534 -96 LINE",
"522 -103 OFFCURVE",
"500 -107 OFFCURVE",
"483 -107 CURVE SMOOTH",
"453 -107 OFFCURVE",
"436 -101 OFFCURVE",
"436 -76 CURVE SMOOTH",
"436 -47 OFFCURVE",
"457 -21 OFFCURVE",
"485 0 CURVE",
"341 0 LINE",
"300 -23 OFFCURVE",
"266 -64 OFFCURVE",
"266 -116 CURVE SMOOTH",
"266 -188 OFFCURVE",
"323 -220 OFFCURVE",
"414 -220 CURVE SMOOTH"
);
}
);
width = 555;
}
);
leftKerningGroup = E;
note = Eogonek;
rightKerningGroup = E;
unicode = 0118;
},
{
glyphname = Etilde;
lastChange = "2015-10-23 06:06:22 +0000";
layers = (
{
layerId = "03246D8C-E7A1-43FC-9121-0C6BC949C0F5";
name = Bold;
paths = (
{
closed = 1;
nodes = (
"550 0 LINE",
"550 174 LINE",
"277 174 LINE",
"277 232 LINE",
"512 232 LINE",
"512 412 LINE",
"277 412 LINE",
"277 470 LINE",
"550 470 LINE",
"550 644 LINE",
"35 644 LINE",
"35 0 LINE"
);
},
{
closed = 1;
nodes = (
"439 693 OFFCURVE",
"479 710 OFFCURVE",
"492 728 CURVE",
"492 869 LINE",
"476 847 OFFCURVE",
"440 828 OFFCURVE",
"394 828 CURVE SMOOTH",
"325 828 OFFCURVE",
"266 872 OFFCURVE",
"193 872 CURVE SMOOTH",
"151 872 OFFCURVE",
"111 855 OFFCURVE",
"91 837 CURVE",
"91 696 LINE",
"115 720 OFFCURVE",
"150 737 OFFCURVE",
"196 737 CURVE SMOOTH",
"257 737 OFFCURVE",
"325 693 OFFCURVE",
"397 693 CURVE SMOOTH"
);
}
);
width = 555;
}
);
leftKerningGroup = E;
note = Etilde;
rightKerningGroup = E;
unicode = 1EBC;
},
{
glyphname = F;
lastChange = "2015-10-23 06:06:20 +0000";
layers = (
{
layerId = "03246D8C-E7A1-43FC-9121-0C6BC949C0F5";
name = Bold;
paths = (
{
closed = 1;
nodes = (
"277 0 LINE",
"277 232 LINE",
"512 232 LINE",
"512 412 LINE",
"277 412 LINE",
"277 470 LINE",
"550 470 LINE",
"550 644 LINE",
"35 644 LINE",
"35 0 LINE"
);
}
);
width = 545;
}
);
note = F;
unicode = 0046;
},
{
glyphname = G;
lastChange = "2015-10-23 06:06:20 +0000";
layers = (
{
layerId = "03246D8C-E7A1-43FC-9121-0C6BC949C0F5";
name = Bold;
paths = (
{
closed = 1;
nodes = (
"508 -10 OFFCURVE",
"593 19 OFFCURVE",
"648 53 CURVE",
"648 386 LINE",
"341 386 LINE",
"341 240 LINE",
"448 240 LINE",
"448 201 LINE",
"428 196 OFFCURVE",
"411 194 OFFCURVE",
"388 194 CURVE SMOOTH",
"306 194 OFFCURVE",
"262 225 OFFCURVE",
"262 322 CURVE SMOOTH",
"262 419 OFFCURVE",
"329 450 OFFCURVE",
"423 450 CURVE SMOOTH",
"489 450 OFFCURVE",
"552 443 OFFCURVE",
"614 419 CURVE",
"614 625 LINE",
"553 646 OFFCURVE",
"490 654 OFFCURVE",
"407 654 CURVE SMOOTH",
"154 654 OFFCURVE",
"15 541 OFFCURVE",
"15 322 CURVE SMOOTH",
"15 103 OFFCURVE",
"147 -10 OFFCURVE",
"390 -10 CURVE SMOOTH"
);
}
);
width = 663;
}
);
leftKerningGroup = G;
note = G;
unicode = 0047;
},
{
glyphname = Gbreve;
lastChange = "2015-10-23 06:06:22 +0000";
layers = (
{
layerId = "03246D8C-E7A1-43FC-9121-0C6BC949C0F5";
name = Bold;
paths = (
{
closed = 1;
nodes = (
"508 -10 OFFCURVE",
"593 19 OFFCURVE",
"648 53 CURVE",
"648 386 LINE",
"341 386 LINE",
"341 240 LINE",
"448 240 LINE",
"448 201 LINE",
"428 196 OFFCURVE",
"411 194 OFFCURVE",
"388 194 CURVE SMOOTH",
"306 194 OFFCURVE",
"262 225 OFFCURVE",
"262 322 CURVE SMOOTH",
"262 419 OFFCURVE",
"329 450 OFFCURVE",
"423 450 CURVE SMOOTH",
"489 450 OFFCURVE",
"552 443 OFFCURVE",
"614 419 CURVE",
"614 625 LINE",
"553 646 OFFCURVE",
"490 654 OFFCURVE",
"407 654 CURVE SMOOTH",
"154 654 OFFCURVE",
"15 541 OFFCURVE",
"15 322 CURVE SMOOTH",
"15 103 OFFCURVE",
"147 -10 OFFCURVE",
"390 -10 CURVE SMOOTH"
);
},
{
closed = 1;
nodes = (
"521 688 OFFCURVE",
"608 765 OFFCURVE",
"608 908 CURVE",
"453 908 LINE",
"453 863 OFFCURVE",
"438 820 OFFCURVE",
"387 820 CURVE SMOOTH",
"337 820 OFFCURVE",
"322 863 OFFCURVE",
"322 908 CURVE",
"167 908 LINE",
"167 765 OFFCURVE",
"254 688 OFFCURVE",
"387 688 CURVE SMOOTH"
);
}
);
width = 663;
}
);
leftKerningGroup = G;
note = Gbreve;
unicode = 011E;
},
{
glyphname = Gcaron;
lastChange = "2015-10-23 06:06:22 +0000";
layers = (
{
layerId = "03246D8C-E7A1-43FC-9121-0C6BC949C0F5";
name = Bold;
paths = (
{
closed = 1;
nodes = (
"508 -10 OFFCURVE",
"593 19 OFFCURVE",
"648 53 CURVE",
"648 386 LINE",
"341 386 LINE",
"341 240 LINE",
"448 240 LINE",
"448 201 LINE",
"428 196 OFFCURVE",
"411 194 OFFCURVE",
"388 194 CURVE SMOOTH",
"306 194 OFFCURVE",
"262 225 OFFCURVE",
"262 322 CURVE SMOOTH",
"262 419 OFFCURVE",
"329 450 OFFCURVE",
"423 450 CURVE SMOOTH",
"489 450 OFFCURVE",
"552 443 OFFCURVE",
"614 419 CURVE",
"614 625 LINE",
"553 646 OFFCURVE",
"490 654 OFFCURVE",
"407 654 CURVE SMOOTH",
"154 654 OFFCURVE",
"15 541 OFFCURVE",
"15 322 CURVE SMOOTH",
"15 103 OFFCURVE",
"147 -10 OFFCURVE",
"390 -10 CURVE SMOOTH"
);
},
{
closed = 1;
nodes = (
"451 687 LINE",
"626 903 LINE",
"458 903 LINE",
"381 796 LINE",
"308 903 LINE",
"135 903 LINE",
"310 687 LINE"
);
}
);
width = 663;
}
);
leftKerningGroup = G;
note = Gcaron;
unicode = 01E6;
},
{
glyphname = Gcircumflex;
lastChange = "2015-10-23 06:06:22 +0000";
layers = (
{
layerId = "03246D8C-E7A1-43FC-9121-0C6BC949C0F5";
name = Bold;
paths = (
{
closed = 1;
nodes = (
"508 -10 OFFCURVE",
"593 19 OFFCURVE",
"648 53 CURVE",
"648 386 LINE",
"341 386 LINE",
"341 240 LINE",
"448 240 LINE",
"448 201 LINE",
"428 196 OFFCURVE",
"411 194 OFFCURVE",
"388 194 CURVE SMOOTH",
"306 194 OFFCURVE",
"262 225 OFFCURVE",
"262 322 CURVE SMOOTH",
"262 419 OFFCURVE",
"329 450 OFFCURVE",
"423 450 CURVE SMOOTH",
"489 450 OFFCURVE",
"552 443 OFFCURVE",
"614 419 CURVE",
"614 625 LINE",
"553 646 OFFCURVE",
"490 654 OFFCURVE",
"407 654 CURVE SMOOTH",
"154 654 OFFCURVE",
"15 541 OFFCURVE",
"15 322 CURVE SMOOTH",
"15 103 OFFCURVE",
"147 -10 OFFCURVE",
"390 -10 CURVE SMOOTH"
);
},
{
closed = 1;
nodes = (
"296 688 LINE",
"369 795 LINE",
"446 688 LINE",
"614 688 LINE",
"439 904 LINE",
"298 904 LINE",
"123 688 LINE"
);
}
);
width = 663;
}
);
leftKerningGroup = G;
note = Gcircumflex;
unicode = 011C;
},
{
glyphname = Gcommaaccent;
lastChange = "2015-10-23 06:06:22 +0000";
layers = (
{
layerId = "03246D8C-E7A1-43FC-9121-0C6BC949C0F5";
name = Bold;
paths = (
{
closed = 1;
nodes = (
"508 -10 OFFCURVE",
"593 19 OFFCURVE",
"648 53 CURVE",
"648 386 LINE",
"341 386 LINE",
"341 240 LINE",
"448 240 LINE",
"448 201 LINE",
"428 196 OFFCURVE",
"411 194 OFFCURVE",
"388 194 CURVE SMOOTH",
"306 194 OFFCURVE",
"262 225 OFFCURVE",
"262 322 CURVE SMOOTH",
"262 419 OFFCURVE",
"329 450 OFFCURVE",
"423 450 CURVE SMOOTH",
"489 450 OFFCURVE",
"552 443 OFFCURVE",
"614 419 CURVE",
"614 625 LINE",
"553 646 OFFCURVE",
"490 654 OFFCURVE",
"407 654 CURVE SMOOTH",
"154 654 OFFCURVE",
"15 541 OFFCURVE",
"15 322 CURVE SMOOTH",
"15 103 OFFCURVE",
"147 -10 OFFCURVE",
"390 -10 CURVE SMOOTH"
);
},
{
closed = 1;
nodes = (
"427 -286 LINE",
"492 -37 LINE",
"313 -37 LINE",
"276 -286 LINE"
);
}
);
width = 663;
}
);
leftKerningGroup = G;
note = Gcommaaccent;
unicode = 0122;
},
{
glyphname = Gdotaccent;
lastChange = "2015-10-23 06:06:22 +0000";
layers = (
{
layerId = "03246D8C-E7A1-43FC-9121-0C6BC949C0F5";
name = Bold;
paths = (
{
closed = 1;
nodes = (
"508 -10 OFFCURVE",
"593 19 OFFCURVE",
"648 53 CURVE",
"648 386 LINE",
"341 386 LINE",
"341 240 LINE",
"448 240 LINE",
"448 201 LINE",
"428 196 OFFCURVE",
"411 194 OFFCURVE",
"388 194 CURVE SMOOTH",
"306 194 OFFCURVE",
"262 225 OFFCURVE",
"262 322 CURVE SMOOTH",
"262 419 OFFCURVE",
"329 450 OFFCURVE",
"423 450 CURVE SMOOTH",
"489 450 OFFCURVE",
"552 443 OFFCURVE",
"614 419 CURVE",
"614 625 LINE",
"553 646 OFFCURVE",
"490 654 OFFCURVE",
"407 654 CURVE SMOOTH",
"154 654 OFFCURVE",
"15 541 OFFCURVE",
"15 322 CURVE SMOOTH",
"15 103 OFFCURVE",
"147 -10 OFFCURVE",
"390 -10 CURVE SMOOTH"
);
},
{
closed = 1;
nodes = (
"477 718 LINE",
"477 859 LINE",
"321 859 LINE",
"321 718 LINE"
);
}
);
width = 663;
}
);
leftKerningGroup = G;
note = Gdotaccent;
unicode = 0120;
},
{
glyphname = Gmacron;
lastChange = "2015-10-23 06:06:22 +0000";
layers = (
{
layerId = "03246D8C-E7A1-43FC-9121-0C6BC949C0F5";
name = Bold;
paths = (
{
closed = 1;
nodes = (
"508 -10 OFFCURVE",
"593 19 OFFCURVE",
"648 53 CURVE",
"648 386 LINE",
"341 386 LINE",
"341 240 LINE",
"448 240 LINE",
"448 201 LINE",
"428 196 OFFCURVE",
"411 194 OFFCURVE",
"388 194 CURVE SMOOTH",
"306 194 OFFCURVE",
"262 225 OFFCURVE",
"262 322 CURVE SMOOTH",
"262 419 OFFCURVE",
"329 450 OFFCURVE",
"423 450 CURVE SMOOTH",
"489 450 OFFCURVE",
"552 443 OFFCURVE",
"614 419 CURVE",
"614 625 LINE",
"553 646 OFFCURVE",
"490 654 OFFCURVE",
"407 654 CURVE SMOOTH",
"154 654 OFFCURVE",
"15 541 OFFCURVE",
"15 322 CURVE SMOOTH",
"15 103 OFFCURVE",
"147 -10 OFFCURVE",
"390 -10 CURVE SMOOTH"
);
},
{
closed = 1;
nodes = (
"567 718 LINE",
"567 858 LINE",
"218 858 LINE",
"218 718 LINE"
);
}
);
width = 663;
}
);
leftKerningGroup = G;
note = Gmacron;
unicode = 1E20;
},
{
glyphname = H;
lastChange = "2015-10-23 06:06:20 +0000";
layers = (
{
layerId = "03246D8C-E7A1-43FC-9121-0C6BC949C0F5";
name = Bold;
paths = (
{
closed = 1;
nodes = (
"277 0 LINE",
"277 210 LINE",
"438 210 LINE",
"438 0 LINE",
"680 0 LINE",
"680 644 LINE",
"438 644 LINE",
"438 434 LINE",
"277 434 LINE",
"277 644 LINE",
"35 644 LINE",
"35 0 LINE"
);
}
);
width = 715;
}
);
note = H;
unicode = 0048;
},
{
glyphname = Hbar;
lastChange = "2015-10-23 06:06:23 +0000";
layers = (
{
layerId = "03246D8C-E7A1-43FC-9121-0C6BC949C0F5";
name = Bold;
paths = (
{
closed = 1;
nodes = (
"288 0 LINE",
"288 210 LINE",
"449 210 LINE",
"449 0 LINE",
"691 0 LINE",
"691 644 LINE",
"449 644 LINE",
"449 434 LINE",
"288 434 LINE",
"288 644 LINE",
"46 644 LINE",
"46 0 LINE"
);
},
{
closed = 1;
nodes = (
"722 480 LINE",
"722 595 LINE",
"15 595 LINE",
"15 480 LINE"
);
}
);
width = 737;
}
);
note = Hbar;
unicode = 0126;
},
{
glyphname = Hbrevebelow;
lastChange = "2015-10-23 06:06:22 +0000";
layers = (
{
layerId = "03246D8C-E7A1-43FC-9121-0C6BC949C0F5";
name = Bold;
paths = (
{
closed = 1;
nodes = (
"277 0 LINE",
"277 210 LINE",
"438 210 LINE",
"438 0 LINE",
"680 0 LINE",
"680 644 LINE",
"438 644 LINE",
"438 434 LINE",
"277 434 LINE",
"277 644 LINE",
"35 644 LINE",
"35 0 LINE"
);
},
{
closed = 1;
nodes = (
"492 -260 OFFCURVE",
"579 -183 OFFCURVE",
"579 -40 CURVE",
"424 -40 LINE",
"424 -85 OFFCURVE",
"409 -128 OFFCURVE",
"358 -128 CURVE SMOOTH",
"308 -128 OFFCURVE",
"293 -85 OFFCURVE",
"293 -40 CURVE",
"138 -40 LINE",
"138 -183 OFFCURVE",
"225 -260 OFFCURVE",
"358 -260 CURVE SMOOTH"
);
}
);
width = 715;
}
);
note = Hbrevebelow;
unicode = 1E2A;
},
{
glyphname = Hcircumflex;
lastChange = "2015-10-23 06:06:22 +0000";
layers = (
{
layerId = "03246D8C-E7A1-43FC-9121-0C6BC949C0F5";
name = Bold;
paths = (
{
closed = 1;
nodes = (
"277 0 LINE",
"277 210 LINE",
"438 210 LINE",
"438 0 LINE",
"680 0 LINE",
"680 644 LINE",
"438 644 LINE",
"438 434 LINE",
"277 434 LINE",
"277 644 LINE",
"35 644 LINE",
"35 0 LINE"
);
},
{
closed = 1;
nodes = (
"284 688 LINE",
"357 795 LINE",
"434 688 LINE",
"602 688 LINE",
"427 904 LINE",
"286 904 LINE",
"111 688 LINE"
);
}
);
width = 715;
}
);
note = Hcircumflex;
unicode = 0124;
},
{
glyphname = Hdotbelow;
lastChange = "2015-10-23 06:06:23 +0000";
layers = (
{
layerId = "03246D8C-E7A1-43FC-9121-0C6BC949C0F5";
name = Bold;
paths = (
{
closed = 1;
nodes = (
"277 0 LINE",
"277 210 LINE",
"438 210 LINE",
"438 0 LINE",
"680 0 LINE",
"680 644 LINE",
"438 644 LINE",
"438 434 LINE",
"277 434 LINE",
"277 644 LINE",
"35 644 LINE",
"35 0 LINE"
);
},
{
closed = 1;
nodes = (
"434 -213 LINE",
"434 -72 LINE",
"278 -72 LINE",
"278 -213 LINE"
);
}
);
width = 715;
}
);
note = Hdotbelow;
unicode = 1E24;
},
{
glyphname = I;
lastChange = "2015-10-23 06:06:20 +0000";
layers = (
{
layerId = "03246D8C-E7A1-43FC-9121-0C6BC949C0F5";
name = Bold;
paths = (
{
closed = 1;
nodes = (
"277 0 LINE",
"277 644 LINE",
"35 644 LINE",
"35 0 LINE"
);
}
);
width = 312;
}
);
note = I;
unicode = 0049;
},
{
glyphname = IJ;
lastChange = "2015-10-23 06:06:22 +0000";
layers = (
{
layerId = "03246D8C-E7A1-43FC-9121-0C6BC949C0F5";
name = Bold;
paths = (
{
closed = 1;
nodes = (
"642 -10 OFFCURVE",
"740 65 OFFCURVE",
"740 216 CURVE SMOOTH",
"740 644 LINE",
"498 644 LINE",
"498 275 LINE SMOOTH",
"498 216 OFFCURVE",
"475 195 OFFCURVE",
"415 195 CURVE SMOOTH",
"376 195 OFFCURVE",
"336 201 OFFCURVE",
"303 214 CURVE",
"303 13 LINE",
"355 -4 OFFCURVE",
"408 -10 OFFCURVE",
"465 -10 CURVE SMOOTH"
);
},
{
closed = 1;
nodes = (
"277 0 LINE",
"277 644 LINE",
"35 644 LINE",
"35 0 LINE"
);
}
);
width = 770;
}
);
note = IJ;
unicode = 0132;
},
{
glyphname = Iacute;
lastChange = "2015-10-23 06:06:22 +0000";
layers = (
{
layerId = "03246D8C-E7A1-43FC-9121-0C6BC949C0F5";
name = Bold;
paths = (
{
closed = 1;
nodes = (
"277 0 LINE",
"277 644 LINE",
"35 644 LINE",
"35 0 LINE"
);
},
{
closed = 1;
nodes = (
"240 688 LINE",
"345 914 LINE",
"159 914 LINE",
"63 688 LINE"
);
}
);
width = 312;
}
);
note = Iacute;
unicode = 00CD;
},
{
glyphname = Ibreve;
lastChange = "2015-10-23 06:06:22 +0000";
layers = (
{
layerId = "03246D8C-E7A1-43FC-9121-0C6BC949C0F5";
name = Bold;
paths = (
{
closed = 1;
nodes = (
"277 0 LINE",
"277 644 LINE",
"35 644 LINE",
"35 0 LINE"
);
},
{
closed = 1;
nodes = (
"290 714 OFFCURVE",
"377 791 OFFCURVE",
"377 934 CURVE",
"222 934 LINE",
"222 889 OFFCURVE",
"207 846 OFFCURVE",
"156 846 CURVE SMOOTH",
"106 846 OFFCURVE",
"91 889 OFFCURVE",
"91 934 CURVE",
"-64 934 LINE",
"-64 791 OFFCURVE",
"23 714 OFFCURVE",
"156 714 CURVE SMOOTH"
);
}
);
width = 312;
}
);
note = Ibreve;
unicode = 012C;
},
{
glyphname = Icaron;
lastChange = "2015-10-23 06:06:22 +0000";
layers = (
{
layerId = "03246D8C-E7A1-43FC-9121-0C6BC949C0F5";
name = Bold;
paths = (
{
closed = 1;
nodes = (
"277 0 LINE",
"277 644 LINE",
"35 644 LINE",
"35 0 LINE"
);
},
{
closed = 1;
nodes = (
"227 688 LINE",
"402 904 LINE",
"234 904 LINE",
"157 797 LINE",
"84 904 LINE",
"-89 904 LINE",
"86 688 LINE"
);
}
);
width = 312;
}
);
note = Icaron;
unicode = 01CF;
},
{
glyphname = Icircumflex;
lastChange = "2015-10-23 06:06:22 +0000";
layers = (
{
layerId = "03246D8C-E7A1-43FC-9121-0C6BC949C0F5";
name = Bold;
paths = (
{
closed = 1;
nodes = (
"277 0 LINE",
"277 644 LINE",
"35 644 LINE",
"35 0 LINE"
);
},
{
closed = 1;
nodes = (
"84 688 LINE",
"157 795 LINE",
"234 688 LINE",
"402 688 LINE",
"227 904 LINE",
"86 904 LINE",
"-89 688 LINE"
);
}
);
width = 312;
}
);
note = Icircumflex;
unicode = 00CE;
},
{
glyphname = Idieresis;
lastChange = "2015-10-23 06:06:22 +0000";
layers = (
{
layerId = "03246D8C-E7A1-43FC-9121-0C6BC949C0F5";
name = Bold;
paths = (
{
closed = 1;
nodes = (
"277 0 LINE",
"277 644 LINE",
"35 644 LINE",
"35 0 LINE"
);
},
{
closed = 1;
nodes = (
"117 728 LINE",
"117 869 LINE",
"-39 869 LINE",
"-39 728 LINE"
);
},
{
closed = 1;
nodes = (
"352 728 LINE",
"352 869 LINE",
"196 869 LINE",
"196 728 LINE"
);
}
);
width = 312;
}
);
note = Idieresis;
unicode = 00CF;
},
{
glyphname = Idotaccent;
lastChange = "2015-10-23 06:06:22 +0000";
layers = (
{
layerId = "03246D8C-E7A1-43FC-9121-0C6BC949C0F5";
name = Bold;
paths = (
{
closed = 1;
nodes = (
"277 0 LINE",
"277 644 LINE",
"35 644 LINE",
"35 0 LINE"
);
},
{
closed = 1;
nodes = (
"234 728 LINE",
"234 869 LINE",
"78 869 LINE",
"78 728 LINE"
);
}
);
width = 312;
}
);
note = Idotaccent;
unicode = 0130;
},
{
glyphname = Idotbelow;
lastChange = "2015-10-23 06:06:23 +0000";
layers = (
{
layerId = "03246D8C-E7A1-43FC-9121-0C6BC949C0F5";
name = Bold;
paths = (
{
closed = 1;
nodes = (
"277 0 LINE",
"277 644 LINE",
"35 644 LINE",
"35 0 LINE"
);
},
{
closed = 1;
nodes = (
"234 -213 LINE",
"234 -72 LINE",
"78 -72 LINE",
"78 -213 LINE"
);
}
);
width = 312;
}
);
note = Idotbelow;
unicode = 1ECA;
},
{
glyphname = Igrave;
lastChange = "2015-10-23 06:06:23 +0000";
layers = (
{
layerId = "03246D8C-E7A1-43FC-9121-0C6BC949C0F5";
name = Bold;
paths = (
{
closed = 1;
nodes = (
"277 0 LINE",
"277 644 LINE",
"35 644 LINE",
"35 0 LINE"
);
},
{
closed = 1;
nodes = (
"243 688 LINE",
"147 914 LINE",
"-39 914 LINE",
"66 688 LINE"
);
}
);
width = 312;
}
);
note = Igrave;
unicode = 00CC;
},
{
glyphname = Ihookabove;
lastChange = "2015-10-23 06:06:22 +0000";
layers = (
{
layerId = "03246D8C-E7A1-43FC-9121-0C6BC949C0F5";
name = Bold;
paths = (
{
closed = 1;
nodes = (
"277 0 LINE",
"277 644 LINE",
"35 644 LINE",
"35 0 LINE"
);
},
{
closed = 1;
nodes = (
"243 688 LINE",
"243 724 LINE",
"301 742 OFFCURVE",
"325 768 OFFCURVE",
"325 828 CURVE SMOOTH",
"325 888 OFFCURVE",
"271 935 OFFCURVE",
"174 935 CURVE SMOOTH",
"116 935 OFFCURVE",
"76 929 OFFCURVE",
"44 920 CURVE",
"44 826 LINE",
"59 832 OFFCURVE",
"80 836 OFFCURVE",
"100 836 CURVE SMOOTH",
"134 836 OFFCURVE",
"150 828 OFFCURVE",
"150 808 CURVE SMOOTH",
"150 788 OFFCURVE",
"130 773 OFFCURVE",
"65 769 CURVE",
"65 688 LINE"
);
}
);
width = 312;
}
);
note = Ihookabove;
unicode = 1EC8;
},
{
glyphname = Imacron;
lastChange = "2015-10-23 06:06:23 +0000";
layers = (
{
layerId = "03246D8C-E7A1-43FC-9121-0C6BC949C0F5";
name = Bold;
paths = (
{
closed = 1;
nodes = (
"277 0 LINE",
"277 644 LINE",
"35 644 LINE",
"35 0 LINE"
);
},
{
closed = 1;
nodes = (
"331 728 LINE",
"331 868 LINE",
"-18 868 LINE",
"-18 728 LINE"
);
}
);
width = 312;
}
);
note = Imacron;
unicode = 012A;
},
{
glyphname = Iogonek;
lastChange = "2015-10-23 06:06:22 +0000";
layers = (
{
layerId = "03246D8C-E7A1-43FC-9121-0C6BC949C0F5";
name = Bold;
paths = (
{
closed = 1;
nodes = (
"277 0 LINE",
"277 644 LINE",
"35 644 LINE",
"35 0 LINE"
);
},
{
closed = 1;
nodes = (
"207 -220 OFFCURVE",
"254 -210 OFFCURVE",
"277 -202 CURVE",
"277 -96 LINE",
"265 -103 OFFCURVE",
"243 -107 OFFCURVE",
"226 -107 CURVE SMOOTH",
"196 -107 OFFCURVE",
"179 -101 OFFCURVE",
"179 -76 CURVE SMOOTH",
"179 -47 OFFCURVE",
"200 -21 OFFCURVE",
"228 0 CURVE",
"84 0 LINE",
"43 -23 OFFCURVE",
"9 -64 OFFCURVE",
"9 -116 CURVE SMOOTH",
"9 -188 OFFCURVE",
"66 -220 OFFCURVE",
"157 -220 CURVE SMOOTH"
);
}
);
width = 312;
}
);
note = Iogonek;
unicode = 012E;
},
{
glyphname = Itilde;
lastChange = "2015-10-23 06:06:22 +0000";
layers = (
{
layerId = "03246D8C-E7A1-43FC-9121-0C6BC949C0F5";
name = Bold;
paths = (
{
closed = 1;
nodes = (
"277 0 LINE",
"277 644 LINE",
"35 644 LINE",
"35 0 LINE"
);
},
{
closed = 1;
nodes = (
"304 723 OFFCURVE",
"344 740 OFFCURVE",
"357 758 CURVE",
"357 899 LINE",
"341 877 OFFCURVE",
"305 858 OFFCURVE",
"259 858 CURVE SMOOTH",
"190 858 OFFCURVE",
"131 902 OFFCURVE",
"58 902 CURVE SMOOTH",
"16 902 OFFCURVE",
"-24 885 OFFCURVE",
"-44 867 CURVE",
"-44 726 LINE",
"-20 750 OFFCURVE",
"15 767 OFFCURVE",
"61 767 CURVE SMOOTH",
"122 767 OFFCURVE",
"190 723 OFFCURVE",
"262 723 CURVE SMOOTH"
);
}
);
width = 312;
}
);
note = Itilde;
unicode = 0128;
},
{
glyphname = J;
lastChange = "2015-10-23 06:06:20 +0000";
layers = (
{
layerId = "03246D8C-E7A1-43FC-9121-0C6BC949C0F5";
name = Bold;
paths = (
{
closed = 1;
nodes = (
"334 -10 OFFCURVE",
"432 65 OFFCURVE",
"432 216 CURVE SMOOTH",
"432 644 LINE",
"190 644 LINE",
"190 275 LINE SMOOTH",
"190 216 OFFCURVE",
"167 195 OFFCURVE",
"107 195 CURVE SMOOTH",
"68 195 OFFCURVE",
"28 201 OFFCURVE",
"-5 214 CURVE",
"-5 13 LINE",
"47 -4 OFFCURVE",
"100 -10 OFFCURVE",
"157 -10 CURVE SMOOTH"
);
}
);
width = 462;
}
);
note = J;
unicode = 004A;
},
{
glyphname = Jcircumflex;
lastChange = "2015-10-23 06:06:22 +0000";
layers = (
{
layerId = "03246D8C-E7A1-43FC-9121-0C6BC949C0F5";
name = Bold;
paths = (
{
closed = 1;
nodes = (
"334 -10 OFFCURVE",
"432 65 OFFCURVE",
"432 216 CURVE SMOOTH",
"432 644 LINE",
"190 644 LINE",
"190 275 LINE SMOOTH",
"190 216 OFFCURVE",
"167 195 OFFCURVE",
"107 195 CURVE SMOOTH",
"68 195 OFFCURVE",
"28 201 OFFCURVE",
"-5 214 CURVE",
"-5 13 LINE",
"47 -4 OFFCURVE",
"100 -10 OFFCURVE",
"157 -10 CURVE SMOOTH"
);
},
{
closed = 1;
nodes = (
"244 688 LINE",
"317 795 LINE",
"394 688 LINE",
"562 688 LINE",
"387 904 LINE",
"246 904 LINE",
"71 688 LINE"
);
}
);
width = 462;
}
);
note = Jcircumflex;
unicode = 0134;
},
{
glyphname = K;
lastChange = "2015-10-23 06:06:20 +0000";
layers = (
{
layerId = "03246D8C-E7A1-43FC-9121-0C6BC949C0F5";
name = Bold;
paths = (
{
closed = 1;
nodes = (
"277 0 LINE",
"277 168 LINE",
"323 224 LINE",
"455 0 LINE",
"711 0 LINE",
"471 377 LINE",
"691 644 LINE",
"418 644 LINE",
"277 464 LINE",
"277 644 LINE",
"35 644 LINE",
"35 0 LINE"
);
}
);
width = 726;
}
);
leftKerningGroup = K;
note = K;
rightKerningGroup = K;
unicode = 004B;
},
{
glyphname = Kcommaaccent;
lastChange = "2015-10-23 06:06:22 +0000";
layers = (
{
layerId = "03246D8C-E7A1-43FC-9121-0C6BC949C0F5";
name = Bold;
paths = (
{
closed = 1;
nodes = (
"277 0 LINE",
"277 168 LINE",
"323 224 LINE",
"455 0 LINE",
"711 0 LINE",
"471 377 LINE",
"691 644 LINE",
"418 644 LINE",
"277 464 LINE",
"277 644 LINE",
"35 644 LINE",
"35 0 LINE"
);
},
{
closed = 1;
nodes = (
"401 -286 LINE",
"466 -37 LINE",
"287 -37 LINE",
"250 -286 LINE"
);
}
);
width = 726;
}
);
leftKerningGroup = K;
note = Kcommaaccent;
rightKerningGroup = K;
unicode = 0136;
},
{
glyphname = L;
lastChange = "2015-10-23 06:06:20 +0000";
layers = (
{
layerId = "03246D8C-E7A1-43FC-9121-0C6BC949C0F5";
name = Bold;
paths = (
{
closed = 1;
nodes = (
"540 0 LINE",
"540 184 LINE",
"277 184 LINE",
"277 644 LINE",
"35 644 LINE",
"35 0 LINE"
);
}
);
width = 535;
}
);
note = L;
rightKerningGroup = L;
unicode = 004C;
},
{
glyphname = Lacute;
lastChange = "2015-10-23 06:06:22 +0000";
layers = (
{
layerId = "03246D8C-E7A1-43FC-9121-0C6BC949C0F5";
name = Bold;
paths = (
{
closed = 1;
nodes = (
"540 0 LINE",
"540 184 LINE",
"277 184 LINE",
"277 644 LINE",
"35 644 LINE",
"35 0 LINE"
);
},
{
closed = 1;
nodes = (
"247 688 LINE",
"352 914 LINE",
"166 914 LINE",
"70 688 LINE"
);
}
);
width = 535;
}
);
note = Lacute;
rightKerningGroup = L;
unicode = 0139;
},
{
glyphname = Lcaron;
lastChange = "2015-10-23 06:06:23 +0000";
layers = (
{
layerId = "03246D8C-E7A1-43FC-9121-0C6BC949C0F5";
name = Bold;
paths = (
{
closed = 1;
nodes = (
"540 0 LINE",
"540 184 LINE",
"277 184 LINE",
"277 644 LINE",
"35 644 LINE",
"35 0 LINE"
);
},
{
closed = 1;
nodes = (
"235 688 LINE",
"300 937 LINE",
"121 937 LINE",
"84 688 LINE"
);
}
);
width = 535;
}
);
note = Lcaron;
rightKerningGroup = L;
unicode = 013D;
},
{
glyphname = Lcommaaccent;
lastChange = "2015-10-23 06:06:22 +0000";
layers = (
{
layerId = "03246D8C-E7A1-43FC-9121-0C6BC949C0F5";
name = Bold;
paths = (
{
closed = 1;
nodes = (
"540 0 LINE",
"540 184 LINE",
"277 184 LINE",
"277 644 LINE",
"35 644 LINE",
"35 0 LINE"
);
},
{
closed = 1;
nodes = (
"353 -286 LINE",
"418 -37 LINE",
"239 -37 LINE",
"202 -286 LINE"
);
}
);
width = 535;
}
);
note = Lcommaaccent;
rightKerningGroup = L;
unicode = 013B;
},
{
glyphname = Ldot;
lastChange = "2015-10-23 06:06:22 +0000";
layers = (
{
layerId = "03246D8C-E7A1-43FC-9121-0C6BC949C0F5";
name = Bold;
paths = (
{
closed = 1;
nodes = (
"540 0 LINE",
"540 184 LINE",
"277 184 LINE",
"277 644 LINE",
"35 644 LINE",
"35 0 LINE"
);
},
{
closed = 1;
nodes = (
"481 310 LINE",
"481 451 LINE",
"325 451 LINE",
"325 310 LINE"
);
}
);
width = 535;
}
);
note = Ldot;
rightKerningGroup = L;
unicode = 013F;
},
{
glyphname = Ldotbelow;
lastChange = "2015-10-23 06:06:22 +0000";
layers = (
{
layerId = "03246D8C-E7A1-43FC-9121-0C6BC949C0F5";
name = Bold;
paths = (
{
closed = 1;
nodes = (
"540 0 LINE",
"540 184 LINE",
"277 184 LINE",
"277 644 LINE",
"35 644 LINE",
"35 0 LINE"
);
},
{
closed = 1;
nodes = (
"355 -213 LINE",
"355 -72 LINE",
"199 -72 LINE",
"199 -213 LINE"
);
}
);
width = 535;
}
);
note = Ldotbelow;
rightKerningGroup = L;
unicode = 1E36;
},
{
glyphname = Ldotbelowmacron;
lastChange = "2015-10-23 06:06:23 +0000";
layers = (
{
layerId = "03246D8C-E7A1-43FC-9121-0C6BC949C0F5";
name = Bold;
paths = (
{
closed = 1;
nodes = (
"544 0 LINE",
"544 184 LINE",
"281 184 LINE",
"281 644 LINE",
"39 644 LINE",
"39 0 LINE"
);
},
{
closed = 1;
nodes = (
"357 -213 LINE",
"357 -72 LINE",
"201 -72 LINE",
"201 -213 LINE"
);
},
{
closed = 1;
nodes = (
"330 718 LINE",
"330 858 LINE",
"-19 858 LINE",
"-19 718 LINE"
);
}
);
width = 539;
}
);
note = Ldotbelowmacron;
rightKerningGroup = L;
unicode = 1E38;
},
{
glyphname = Llinebelow;
lastChange = "2015-10-23 06:06:22 +0000";
layers = (
{
layerId = "03246D8C-E7A1-43FC-9121-0C6BC949C0F5";
name = Bold;
paths = (
{
closed = 1;
nodes = (
"540 0 LINE",
"540 184 LINE",
"277 184 LINE",
"277 644 LINE",
"35 644 LINE",
"35 0 LINE"
);
},
{
closed = 1;
nodes = (
"451 -214 LINE",
"451 -74 LINE",
"102 -74 LINE",
"102 -214 LINE"
);
}
);
width = 535;
}
);
note = Llinebelow;
rightKerningGroup = L;
unicode = 1E3A;
},
{
glyphname = Lslash;
lastChange = "2015-10-23 06:06:22 +0000";
layers = (
{
layerId = "03246D8C-E7A1-43FC-9121-0C6BC949C0F5";
name = Bold;
paths = (
{
closed = 1;
nodes = (
"581 0 LINE",
"581 184 LINE",
"318 184 LINE",
"318 644 LINE",
"76 644 LINE",
"76 0 LINE"
);
},
{
closed = 1;
nodes = (
"387 350 LINE",
"387 519 LINE",
"15 356 LINE",
"15 187 LINE"
);
}
);
width = 576;
}
);
note = Lslash;
rightKerningGroup = L;
unicode = 0141;
},
{
glyphname = M;
lastChange = "2015-10-23 06:06:20 +0000";
layers = (
{
layerId = "03246D8C-E7A1-43FC-9121-0C6BC949C0F5";
name = Bold;
paths = (
{
closed = 1;
nodes = (
"277 0 LINE",
"277 226 LINE",
"334 110 LINE",
"457 110 LINE",
"514 226 LINE",
"514 0 LINE",
"756 0 LINE",
"756 644 LINE",
"526 644 LINE",
"396 378 LINE",
"265 644 LINE",
"35 644 LINE",
"35 0 LINE"
);
}
);
width = 791;
}
);
note = M;
unicode = 004D;
},
{
glyphname = Mdotbelow;
lastChange = "2015-10-23 06:06:23 +0000";
layers = (
{
layerId = "03246D8C-E7A1-43FC-9121-0C6BC949C0F5";
name = Bold;
paths = (
{
closed = 1;
nodes = (
"277 0 LINE",
"277 226 LINE",
"334 110 LINE",
"457 110 LINE",
"514 226 LINE",
"514 0 LINE",
"756 0 LINE",
"756 644 LINE",
"526 644 LINE",
"396 378 LINE",
"265 644 LINE",
"35 644 LINE",
"35 0 LINE"
);
},
{
closed = 1;
nodes = (
"474 -213 LINE",
"474 -72 LINE",
"318 -72 LINE",
"318 -213 LINE"
);
}
);
width = 791;
}
);
note = Mdotbelow;
unicode = 1E42;
},
{
glyphname = N;
lastChange = "2015-10-23 06:06:20 +0000";
layers = (
{
layerId = "03246D8C-E7A1-43FC-9121-0C6BC949C0F5";
name = Bold;
paths = (
{
closed = 1;
nodes = (
"277 0 LINE",
"277 252 LINE",
"456 0 LINE",
"660 0 LINE",
"660 644 LINE",
"418 644 LINE",
"418 392 LINE",
"238 644 LINE",
"35 644 LINE",
"35 0 LINE"
);
}
);
width = 695;
}
);
note = N;
unicode = 004E;
},
{
glyphname = Nacute;
lastChange = "2015-10-23 06:06:22 +0000";
layers = (
{
layerId = "03246D8C-E7A1-43FC-9121-0C6BC949C0F5";
name = Bold;
paths = (
{
closed = 1;
nodes = (
"277 0 LINE",
"277 252 LINE",
"456 0 LINE",
"660 0 LINE",
"660 644 LINE",
"418 644 LINE",
"418 392 LINE",
"238 644 LINE",
"35 644 LINE",
"35 0 LINE"
);
},
{
closed = 1;
nodes = (
"403 688 LINE",
"508 914 LINE",
"322 914 LINE",
"226 688 LINE"
);
}
);
width = 695;
}
);
note = Nacute;
unicode = 0143;
},
{
glyphname = Ncaron;
lastChange = "2015-10-23 06:06:22 +0000";
layers = (
{
layerId = "03246D8C-E7A1-43FC-9121-0C6BC949C0F5";
name = Bold;
paths = (
{
closed = 1;
nodes = (
"277 0 LINE",
"277 252 LINE",
"456 0 LINE",
"660 0 LINE",
"660 644 LINE",
"418 644 LINE",
"418 392 LINE",
"238 644 LINE",
"35 644 LINE",
"35 0 LINE"
);
},
{
closed = 1;
nodes = (
"412 688 LINE",
"587 904 LINE",
"419 904 LINE",
"342 797 LINE",
"269 904 LINE",
"96 904 LINE",
"271 688 LINE"
);
}
);
width = 695;
}
);
note = Ncaron;
unicode = 0147;
},
{
glyphname = Ncommaaccent;
lastChange = "2015-10-23 06:06:22 +0000";
layers = (
{
layerId = "03246D8C-E7A1-43FC-9121-0C6BC949C0F5";
name = Bold;
paths = (
{
closed = 1;
nodes = (
"277 0 LINE",
"277 252 LINE",
"456 0 LINE",
"660 0 LINE",
"660 644 LINE",
"418 644 LINE",
"418 392 LINE",
"238 644 LINE",
"35 644 LINE",
"35 0 LINE"
);
},
{
closed = 1;
nodes = (
"391 -286 LINE",
"456 -37 LINE",
"277 -37 LINE",
"240 -286 LINE"
);
}
);
width = 695;
}
);
note = Ncommaaccent;
unicode = 0145;
},
{
glyphname = Ndotaccent;
lastChange = "2015-10-23 06:06:22 +0000";
layers = (
{
layerId = "03246D8C-E7A1-43FC-9121-0C6BC949C0F5";
name = Bold;
paths = (
{
closed = 1;
nodes = (
"277 0 LINE",
"277 252 LINE",
"456 0 LINE",
"660 0 LINE",
"660 644 LINE",
"418 644 LINE",
"418 392 LINE",
"238 644 LINE",
"35 644 LINE",
"35 0 LINE"
);
},
{
closed = 1;
nodes = (
"423 718 LINE",
"423 859 LINE",
"267 859 LINE",
"267 718 LINE"
);
}
);
width = 695;
}
);
note = Ndotaccent;
unicode = 1E44;
},
{
glyphname = Ndotbelow;
lastChange = "2015-10-23 06:06:23 +0000";
layers = (
{
layerId = "03246D8C-E7A1-43FC-9121-0C6BC949C0F5";
name = Bold;
paths = (
{
closed = 1;
nodes = (
"277 0 LINE",
"277 252 LINE",
"456 0 LINE",
"660 0 LINE",
"660 644 LINE",
"418 644 LINE",
"418 392 LINE",
"238 644 LINE",
"35 644 LINE",
"35 0 LINE"
);
},
{
closed = 1;
nodes = (
"432 -213 LINE",
"432 -72 LINE",
"276 -72 LINE",
"276 -213 LINE"
);
}
);
width = 695;
}
);
note = Ndotbelow;
unicode = 1E46;
},
{
glyphname = Eng;
lastChange = "2015-10-23 06:06:20 +0000";
layers = (
{
layerId = "03246D8C-E7A1-43FC-9121-0C6BC949C0F5";
name = Bold;
paths = (
{
closed = 1;
nodes = (
"602 -234 OFFCURVE",
"660 -153 OFFCURVE",
"660 -43 CURVE SMOOTH",
"660 644 LINE",
"418 644 LINE",
"418 392 LINE",
"238 644 LINE",
"35 644 LINE",
"35 0 LINE",
"277 0 LINE",
"277 252 LINE",
"418 53 LINE",
"418 -27 LINE SMOOTH",
"418 -52 OFFCURVE",
"403 -67 OFFCURVE",
"371 -67 CURVE SMOOTH",
"350 -67 OFFCURVE",
"331 -64 OFFCURVE",
"311 -57 CURVE",
"311 -207 LINE",
"353 -225 OFFCURVE",
"397 -234 OFFCURVE",
"458 -234 CURVE SMOOTH"
);
}
);
width = 695;
}
);
note = Eng;
unicode = 014A;
},
{
glyphname = Nlinebelow;
lastChange = "2015-10-23 06:06:23 +0000";
layers = (
{
layerId = "03246D8C-E7A1-43FC-9121-0C6BC949C0F5";
name = Bold;
paths = (
{
closed = 1;
nodes = (
"277 0 LINE",
"277 252 LINE",
"456 0 LINE",
"660 0 LINE",
"660 644 LINE",
"418 644 LINE",
"418 392 LINE",
"238 644 LINE",
"35 644 LINE",
"35 0 LINE"
);
},
{
closed = 1;
nodes = (
"521 -208 LINE",
"521 -68 LINE",
"172 -68 LINE",
"172 -208 LINE"
);
}
);
width = 695;
}
);
note = Nlinebelow;
unicode = 1E48;
},
{
glyphname = Ntilde;
lastChange = "2015-10-23 06:06:23 +0000";
layers = (
{
layerId = "03246D8C-E7A1-43FC-9121-0C6BC949C0F5";
name = Bold;
paths = (
{
closed = 1;
nodes = (
"277 0 LINE",
"277 252 LINE",
"456 0 LINE",
"660 0 LINE",
"660 644 LINE",
"418 644 LINE",
"418 392 LINE",
"238 644 LINE",
"35 644 LINE",
"35 0 LINE"
);
},
{
closed = 1;
nodes = (
"501 693 OFFCURVE",
"541 710 OFFCURVE",
"554 728 CURVE",
"554 869 LINE",
"538 847 OFFCURVE",
"502 828 OFFCURVE",
"456 828 CURVE SMOOTH",
"387 828 OFFCURVE",
"328 872 OFFCURVE",
"255 872 CURVE SMOOTH",
"213 872 OFFCURVE",
"173 855 OFFCURVE",
"153 837 CURVE",
"153 696 LINE",
"177 720 OFFCURVE",
"212 737 OFFCURVE",
"258 737 CURVE SMOOTH",
"319 737 OFFCURVE",
"387 693 OFFCURVE",
"459 693 CURVE SMOOTH"
);
}
);
width = 695;
}
);
note = Ntilde;
unicode = 00D1;
},
{
glyphname = O;
lastChange = "2015-10-23 06:06:22 +0000";
layers = (
{
layerId = "03246D8C-E7A1-43FC-9121-0C6BC949C0F5";
name = Bold;
paths = (
{
closed = 1;
nodes = (
"578 -10 OFFCURVE",
"705 79 OFFCURVE",
"705 322 CURVE SMOOTH",
"705 565 OFFCURVE",
"578 654 OFFCURVE",
"360 654 CURVE SMOOTH",
"142 654 OFFCURVE",
"15 565 OFFCURVE",
"15 322 CURVE SMOOTH",
"15 79 OFFCURVE",
"142 -10 OFFCURVE",
"360 -10 CURVE SMOOTH"
);
},
{
closed = 1;
nodes = (
"289 195 OFFCURVE",
"262 229 OFFCURVE",
"262 322 CURVE SMOOTH",
"262 415 OFFCURVE",
"289 449 OFFCURVE",
"360 449 CURVE SMOOTH",
"431 449 OFFCURVE",
"458 415 OFFCURVE",
"458 322 CURVE SMOOTH",
"458 229 OFFCURVE",
"431 195 OFFCURVE",
"360 195 CURVE SMOOTH"
);
}
);
width = 720;
}
);
leftKerningGroup = O;
note = O;
rightKerningGroup = O;
unicode = 004F;
},
{
glyphname = Oacute;
lastChange = "2015-10-23 06:06:22 +0000";
layers = (
{
layerId = "03246D8C-E7A1-43FC-9121-0C6BC949C0F5";
name = Bold;
paths = (
{
closed = 1;
nodes = (
"578 -10 OFFCURVE",
"705 79 OFFCURVE",
"705 322 CURVE SMOOTH",
"705 565 OFFCURVE",
"578 654 OFFCURVE",
"360 654 CURVE SMOOTH",
"142 654 OFFCURVE",
"15 565 OFFCURVE",
"15 322 CURVE SMOOTH",
"15 79 OFFCURVE",
"142 -10 OFFCURVE",
"360 -10 CURVE SMOOTH"
);
},
{
closed = 1;
nodes = (
"289 195 OFFCURVE",
"262 229 OFFCURVE",
"262 322 CURVE SMOOTH",
"262 415 OFFCURVE",
"289 449 OFFCURVE",
"360 449 CURVE SMOOTH",
"431 449 OFFCURVE",
"458 415 OFFCURVE",
"458 322 CURVE SMOOTH",
"458 229 OFFCURVE",
"431 195 OFFCURVE",
"360 195 CURVE SMOOTH"
);
},
{
closed = 1;
nodes = (
"429 688 LINE",
"534 914 LINE",
"348 914 LINE",
"252 688 LINE"
);
}
);
width = 720;
}
);
leftKerningGroup = O;
note = Oacute;
rightKerningGroup = O;
unicode = 00D3;
},
{
glyphname = Obreve;
lastChange = "2015-10-23 06:06:23 +0000";
layers = (
{
layerId = "03246D8C-E7A1-43FC-9121-0C6BC949C0F5";
name = Bold;
paths = (
{
closed = 1;
nodes = (
"578 -10 OFFCURVE",
"705 79 OFFCURVE",
"705 322 CURVE SMOOTH",
"705 565 OFFCURVE",
"578 654 OFFCURVE",
"360 654 CURVE SMOOTH",
"142 654 OFFCURVE",
"15 565 OFFCURVE",
"15 322 CURVE SMOOTH",
"15 79 OFFCURVE",
"142 -10 OFFCURVE",
"360 -10 CURVE SMOOTH"
);
},
{
closed = 1;
nodes = (
"289 195 OFFCURVE",
"262 229 OFFCURVE",
"262 322 CURVE SMOOTH",
"262 415 OFFCURVE",
"289 449 OFFCURVE",
"360 449 CURVE SMOOTH",
"431 449 OFFCURVE",
"458 415 OFFCURVE",
"458 322 CURVE SMOOTH",
"458 229 OFFCURVE",
"431 195 OFFCURVE",
"360 195 CURVE SMOOTH"
);
},
{
closed = 1;
nodes = (
"494 688 OFFCURVE",
"581 765 OFFCURVE",
"581 908 CURVE",
"426 908 LINE",
"426 863 OFFCURVE",
"411 820 OFFCURVE",
"360 820 CURVE SMOOTH",
"310 820 OFFCURVE",
"295 863 OFFCURVE",
"295 908 CURVE",
"140 908 LINE",
"140 765 OFFCURVE",
"227 688 OFFCURVE",
"360 688 CURVE SMOOTH"
);
}
);
width = 720;
}
);
leftKerningGroup = O;
note = Obreve;
rightKerningGroup = O;
unicode = 014E;
},
{
glyphname = Ocaron;
lastChange = "2015-10-23 06:06:22 +0000";
layers = (
{
layerId = "03246D8C-E7A1-43FC-9121-0C6BC949C0F5";
name = Bold;
paths = (
{
closed = 1;
nodes = (
"578 -10 OFFCURVE",
"705 79 OFFCURVE",
"705 322 CURVE SMOOTH",
"705 565 OFFCURVE",
"578 654 OFFCURVE",
"360 654 CURVE SMOOTH",
"142 654 OFFCURVE",
"15 565 OFFCURVE",
"15 322 CURVE SMOOTH",
"15 79 OFFCURVE",
"142 -10 OFFCURVE",
"360 -10 CURVE SMOOTH"
);
},
{
closed = 1;
nodes = (
"289 195 OFFCURVE",
"262 229 OFFCURVE",
"262 322 CURVE SMOOTH",
"262 415 OFFCURVE",
"289 449 OFFCURVE",
"360 449 CURVE SMOOTH",
"431 449 OFFCURVE",
"458 415 OFFCURVE",
"458 322 CURVE SMOOTH",
"458 229 OFFCURVE",
"431 195 OFFCURVE",
"360 195 CURVE SMOOTH"
);
},
{
closed = 1;
nodes = (
"431 688 LINE",
"606 904 LINE",
"438 904 LINE",
"361 797 LINE",
"288 904 LINE",
"115 904 LINE",
"290 688 LINE"
);
}
);
width = 720;
}
);
leftKerningGroup = O;
note = Ocaron;
rightKerningGroup = O;
unicode = 01D1;
},
{
glyphname = Ocircumflex;
lastChange = "2015-10-23 06:06:22 +0000";
layers = (
{
layerId = "03246D8C-E7A1-43FC-9121-0C6BC949C0F5";
name = Bold;
paths = (
{
closed = 1;
nodes = (
"578 -10 OFFCURVE",
"705 79 OFFCURVE",
"705 322 CURVE SMOOTH",
"705 565 OFFCURVE",
"578 654 OFFCURVE",
"360 654 CURVE SMOOTH",
"142 654 OFFCURVE",
"15 565 OFFCURVE",
"15 322 CURVE SMOOTH",
"15 79 OFFCURVE",
"142 -10 OFFCURVE",
"360 -10 CURVE SMOOTH"
);
},
{
closed = 1;
nodes = (
"289 195 OFFCURVE",
"262 229 OFFCURVE",
"262 322 CURVE SMOOTH",
"262 415 OFFCURVE",
"289 449 OFFCURVE",
"360 449 CURVE SMOOTH",
"431 449 OFFCURVE",
"458 415 OFFCURVE",
"458 322 CURVE SMOOTH",
"458 229 OFFCURVE",
"431 195 OFFCURVE",
"360 195 CURVE SMOOTH"
);
},
{
closed = 1;
nodes = (
"288 688 LINE",
"361 795 LINE",
"438 688 LINE",
"606 688 LINE",
"431 904 LINE",
"290 904 LINE",
"115 688 LINE"
);
}
);
width = 720;
}
);
leftKerningGroup = O;
note = Ocircumflex;
rightKerningGroup = O;
unicode = 00D4;
},
{
glyphname = Ocircumflexacute;
lastChange = "2015-10-23 06:06:23 +0000";
layers = (
{
layerId = "03246D8C-E7A1-43FC-9121-0C6BC949C0F5";
name = Bold;
paths = (
{
closed = 1;
nodes = (
"578 -10 OFFCURVE",
"705 79 OFFCURVE",
"705 322 CURVE SMOOTH",
"705 565 OFFCURVE",
"578 654 OFFCURVE",
"360 654 CURVE SMOOTH",
"142 654 OFFCURVE",
"15 565 OFFCURVE",
"15 322 CURVE SMOOTH",
"15 79 OFFCURVE",
"142 -10 OFFCURVE",
"360 -10 CURVE SMOOTH"
);
},
{
closed = 1;
nodes = (
"289 195 OFFCURVE",
"262 229 OFFCURVE",
"262 322 CURVE SMOOTH",
"262 415 OFFCURVE",
"289 449 OFFCURVE",
"360 449 CURVE SMOOTH",
"431 449 OFFCURVE",
"458 415 OFFCURVE",
"458 322 CURVE SMOOTH",
"458 229 OFFCURVE",
"431 195 OFFCURVE",
"360 195 CURVE SMOOTH"
);
},
{
closed = 1;
nodes = (
"306 688 LINE",
"359 764 LINE",
"415 688 LINE",
"604 688 LINE",
"446 856 LINE",
"271 856 LINE",
"113 688 LINE"
);
},
{
closed = 1;
nodes = (
"670 820 LINE",
"753 992 LINE",
"577 992 LINE",
"502 820 LINE"
);
}
);
width = 720;
}
);
leftKerningGroup = O;
note = Ocircumflexacute;
rightKerningGroup = O;
unicode = 1ED0;
},
{
glyphname = Ocircumflexdotbelow;
lastChange = "2015-11-26 08:47:07 +0000";
layers = (
{
layerId = "03246D8C-E7A1-43FC-9121-0C6BC949C0F5";
name = Bold;
paths = (
{
closed = 1;
nodes = (
"578 -10 OFFCURVE",
"705 79 OFFCURVE",
"705 322 CURVE SMOOTH",
"705 565 OFFCURVE",
"578 654 OFFCURVE",
"360 654 CURVE SMOOTH",
"142 654 OFFCURVE",
"15 565 OFFCURVE",
"15 322 CURVE SMOOTH",
"15 79 OFFCURVE",
"142 -10 OFFCURVE",
"360 -10 CURVE SMOOTH"
);
},
{
closed = 1;
nodes = (
"289 195 OFFCURVE",
"262 229 OFFCURVE",
"262 322 CURVE SMOOTH",
"262 415 OFFCURVE",
"289 449 OFFCURVE",
"360 449 CURVE SMOOTH",
"431 449 OFFCURVE",
"458 415 OFFCURVE",
"458 322 CURVE SMOOTH",
"458 229 OFFCURVE",
"431 195 OFFCURVE",
"360 195 CURVE SMOOTH"
);
},
{
closed = 1;
nodes = (
"288 688 LINE",
"361 795 LINE",
"438 688 LINE",
"606 688 LINE",
"431 904 LINE",
"290 904 LINE",
"115 688 LINE"
);
},
{
closed = 1;
nodes = (
"439 -213 LINE",
"439 -72 LINE",
"283 -72 LINE",
"283 -213 LINE"
);
}
);
width = 720;
}
);
leftKerningGroup = O;
note = Ocircumflexdotbelow;
rightKerningGroup = O;
unicode = 1ED8;
},
{
glyphname = Ocircumflexgrave;
lastChange = "2015-10-23 06:06:23 +0000";
layers = (
{
layerId = "03246D8C-E7A1-43FC-9121-0C6BC949C0F5";
name = Bold;
paths = (
{
closed = 1;
nodes = (
"578 -10 OFFCURVE",
"705 79 OFFCURVE",
"705 322 CURVE SMOOTH",
"705 565 OFFCURVE",
"578 654 OFFCURVE",
"360 654 CURVE SMOOTH",
"142 654 OFFCURVE",
"15 565 OFFCURVE",
"15 322 CURVE SMOOTH",
"15 79 OFFCURVE",
"142 -10 OFFCURVE",
"360 -10 CURVE SMOOTH"
);
},
{
closed = 1;
nodes = (
"289 195 OFFCURVE",
"262 229 OFFCURVE",
"262 322 CURVE SMOOTH",
"262 415 OFFCURVE",
"289 449 OFFCURVE",
"360 449 CURVE SMOOTH",
"431 449 OFFCURVE",
"458 415 OFFCURVE",
"458 322 CURVE SMOOTH",
"458 229 OFFCURVE",
"431 195 OFFCURVE",
"360 195 CURVE SMOOTH"
);
},
{
closed = 1;
nodes = (
"216 820 LINE",
"141 992 LINE",
"-35 992 LINE",
"48 820 LINE"
);
},
{
closed = 1;
nodes = (
"303 688 LINE",
"359 764 LINE",
"412 688 LINE",
"605 688 LINE",
"447 856 LINE",
"272 856 LINE",
"114 688 LINE"
);
}
);
width = 720;
}
);
leftKerningGroup = O;
note = Ocircumflexgrave;
rightKerningGroup = O;
unicode = 1ED2;
},
{
glyphname = Ocircumflexhookabove;
lastChange = "2015-10-23 06:06:22 +0000";
layers = (
{
layerId = "03246D8C-E7A1-43FC-9121-0C6BC949C0F5";
name = Bold;
paths = (
{
closed = 1;
nodes = (
"578 -10 OFFCURVE",
"705 79 OFFCURVE",
"705 322 CURVE SMOOTH",
"705 565 OFFCURVE",
"578 654 OFFCURVE",
"360 654 CURVE SMOOTH",
"142 654 OFFCURVE",
"15 565 OFFCURVE",
"15 322 CURVE SMOOTH",
"15 79 OFFCURVE",
"142 -10 OFFCURVE",
"360 -10 CURVE SMOOTH"
);
},
{
closed = 1;
nodes = (
"289 195 OFFCURVE",
"262 229 OFFCURVE",
"262 322 CURVE SMOOTH",
"262 415 OFFCURVE",
"289 449 OFFCURVE",
"360 449 CURVE SMOOTH",
"431 449 OFFCURVE",
"458 415 OFFCURVE",
"458 322 CURVE SMOOTH",
"458 229 OFFCURVE",
"431 195 OFFCURVE",
"360 195 CURVE SMOOTH"
);
},
{
closed = 1;
nodes = (
"300 688 LINE",
"353 764 LINE",
"409 688 LINE",
"598 688 LINE",
"440 856 LINE",
"265 856 LINE",
"107 688 LINE"
);
},
{
closed = 1;
nodes = (
"664 797 LINE",
"664 828 LINE",
"712 837 OFFCURVE",
"734 871 OFFCURVE",
"734 917 CURVE SMOOTH",
"734 968 OFFCURVE",
"688 1009 OFFCURVE",
"605 1009 CURVE SMOOTH",
"555 1009 OFFCURVE",
"516 1004 OFFCURVE",
"489 997 CURVE",
"489 905 LINE",
"502 910 OFFCURVE",
"520 915 OFFCURVE",
"537 915 CURVE SMOOTH",
"559 915 OFFCURVE",
"571 912 OFFCURVE",
"571 900 CURVE SMOOTH",
"571 888 OFFCURVE",
"558 879 OFFCURVE",
"507 877 CURVE",
"507 797 LINE"
);
}
);
width = 720;
}
);
leftKerningGroup = O;
note = Ocircumflexhookabove;
rightKerningGroup = O;
unicode = 1ED4;
},
{
glyphname = Ocircumflextilde;
lastChange = "2015-10-23 06:06:22 +0000";
layers = (
{
layerId = "03246D8C-E7A1-43FC-9121-0C6BC949C0F5";
name = Bold;
paths = (
{
closed = 1;
nodes = (
"578 -10 OFFCURVE",
"705 79 OFFCURVE",
"705 322 CURVE SMOOTH",
"705 565 OFFCURVE",
"578 654 OFFCURVE",
"360 654 CURVE SMOOTH",
"142 654 OFFCURVE",
"15 565 OFFCURVE",
"15 322 CURVE SMOOTH",
"15 79 OFFCURVE",
"142 -10 OFFCURVE",
"360 -10 CURVE SMOOTH"
);
},
{
closed = 1;
nodes = (
"289 195 OFFCURVE",
"262 229 OFFCURVE",
"262 322 CURVE SMOOTH",
"262 415 OFFCURVE",
"289 449 OFFCURVE",
"360 449 CURVE SMOOTH",
"431 449 OFFCURVE",
"458 415 OFFCURVE",
"458 322 CURVE SMOOTH",
"458 229 OFFCURVE",
"431 195 OFFCURVE",
"360 195 CURVE SMOOTH"
);
},
{
closed = 1;
nodes = (
"481 688 OFFCURVE",
"559 747 OFFCURVE",
"559 876 CURVE",
"425 876 LINE",
"425 836 OFFCURVE",
"407 805 OFFCURVE",
"361 805 CURVE SMOOTH",
"314 805 OFFCURVE",
"296 836 OFFCURVE",
"296 876 CURVE",
"162 876 LINE",
"162 747 OFFCURVE",
"240 688 OFFCURVE",
"361 688 CURVE SMOOTH"
);
},
{
closed = 1;
nodes = (
"503 901 OFFCURVE",
"542 917 OFFCURVE",
"554 934 CURVE",
"554 1059 LINE",
"539 1038 OFFCURVE",
"504 1020 OFFCURVE",
"460 1020 CURVE SMOOTH",
"395 1020 OFFCURVE",
"338 1062 OFFCURVE",
"268 1062 CURVE SMOOTH",
"228 1062 OFFCURVE",
"190 1046 OFFCURVE",
"171 1029 CURVE",
"171 904 LINE",
"194 927 OFFCURVE",
"227 943 OFFCURVE",
"271 943 CURVE SMOOTH",
"330 943 OFFCURVE",
"395 901 OFFCURVE",
"463 901 CURVE SMOOTH"
);
}
);
width = 720;
}
);
leftKerningGroup = O;
note = Ocircumflextilde;
rightKerningGroup = O;
unicode = 1ED6;
},
{
glyphname = Odieresis;
lastChange = "2015-10-23 06:06:23 +0000";
layers = (
{
layerId = "03246D8C-E7A1-43FC-9121-0C6BC949C0F5";
name = Bold;
paths = (
{
closed = 1;
nodes = (
"578 -10 OFFCURVE",
"705 79 OFFCURVE",
"705 322 CURVE SMOOTH",
"705 565 OFFCURVE",
"578 654 OFFCURVE",
"360 654 CURVE SMOOTH",
"142 654 OFFCURVE",
"15 565 OFFCURVE",
"15 322 CURVE SMOOTH",
"15 79 OFFCURVE",
"142 -10 OFFCURVE",
"360 -10 CURVE SMOOTH"
);
},
{
closed = 1;
nodes = (
"289 195 OFFCURVE",
"262 229 OFFCURVE",
"262 322 CURVE SMOOTH",
"262 415 OFFCURVE",
"289 449 OFFCURVE",
"360 449 CURVE SMOOTH",
"431 449 OFFCURVE",
"458 415 OFFCURVE",
"458 322 CURVE SMOOTH",
"458 229 OFFCURVE",
"431 195 OFFCURVE",
"360 195 CURVE SMOOTH"
);
},
{
closed = 1;
nodes = (
"321 718 LINE",
"321 859 LINE",
"165 859 LINE",
"165 718 LINE"
);
},
{
closed = 1;
nodes = (
"556 718 LINE",
"556 859 LINE",
"400 859 LINE",
"400 718 LINE"
);
}
);
width = 720;
}
);
leftKerningGroup = O;
note = Odieresis;
rightKerningGroup = O;
unicode = 00D6;
},
{
glyphname = Odotbelow;
lastChange = "2015-11-26 08:47:31 +0000";
layers = (
{
layerId = "03246D8C-E7A1-43FC-9121-0C6BC949C0F5";
name = Bold;
paths = (
{
closed = 1;
nodes = (
"578 -10 OFFCURVE",
"705 79 OFFCURVE",
"705 322 CURVE SMOOTH",
"705 565 OFFCURVE",
"578 654 OFFCURVE",
"360 654 CURVE SMOOTH",
"142 654 OFFCURVE",
"15 565 OFFCURVE",
"15 322 CURVE SMOOTH",
"15 79 OFFCURVE",
"142 -10 OFFCURVE",
"360 -10 CURVE SMOOTH"
);
},
{
closed = 1;
nodes = (
"289 195 OFFCURVE",
"262 229 OFFCURVE",
"262 322 CURVE SMOOTH",
"262 415 OFFCURVE",
"289 449 OFFCURVE",
"360 449 CURVE SMOOTH",
"431 449 OFFCURVE",
"458 415 OFFCURVE",
"458 322 CURVE SMOOTH",
"458 229 OFFCURVE",
"431 195 OFFCURVE",
"360 195 CURVE SMOOTH"
);
},
{
closed = 1;
nodes = (
"438 -213 LINE",
"438 -72 LINE",
"282 -72 LINE",
"282 -213 LINE"
);
}
);
width = 720;
}
);
leftKerningGroup = O;
note = Odotbelow;
rightKerningGroup = O;
unicode = 1ECC;
},
{
glyphname = Ograve;
lastChange = "2015-10-23 06:06:22 +0000";
layers = (
{
layerId = "03246D8C-E7A1-43FC-9121-0C6BC949C0F5";
name = Bold;
paths = (
{
closed = 1;
nodes = (
"578 -10 OFFCURVE",
"705 79 OFFCURVE",
"705 322 CURVE SMOOTH",
"705 565 OFFCURVE",
"578 654 OFFCURVE",
"360 654 CURVE SMOOTH",
"142 654 OFFCURVE",
"15 565 OFFCURVE",
"15 322 CURVE SMOOTH",
"15 79 OFFCURVE",
"142 -10 OFFCURVE",
"360 -10 CURVE SMOOTH"
);
},
{
closed = 1;
nodes = (
"289 195 OFFCURVE",
"262 229 OFFCURVE",
"262 322 CURVE SMOOTH",
"262 415 OFFCURVE",
"289 449 OFFCURVE",
"360 449 CURVE SMOOTH",
"431 449 OFFCURVE",
"458 415 OFFCURVE",
"458 322 CURVE SMOOTH",
"458 229 OFFCURVE",
"431 195 OFFCURVE",
"360 195 CURVE SMOOTH"
);
},
{
closed = 1;
nodes = (
"454 688 LINE",
"358 914 LINE",
"172 914 LINE",
"277 688 LINE"
);
}
);
width = 720;
}
);
leftKerningGroup = O;
note = Ograve;
rightKerningGroup = O;
unicode = 00D2;
},
{
glyphname = Ohookabove;
lastChange = "2015-10-23 06:06:22 +0000";
layers = (
{
layerId = "03246D8C-E7A1-43FC-9121-0C6BC949C0F5";
name = Bold;
paths = (
{
closed = 1;
nodes = (
"578 -10 OFFCURVE",
"705 79 OFFCURVE",
"705 322 CURVE SMOOTH",
"705 565 OFFCURVE",
"578 654 OFFCURVE",
"360 654 CURVE SMOOTH",
"142 654 OFFCURVE",
"15 565 OFFCURVE",
"15 322 CURVE SMOOTH",
"15 79 OFFCURVE",
"142 -10 OFFCURVE",
"360 -10 CURVE SMOOTH"
);
},
{
closed = 1;
nodes = (
"289 195 OFFCURVE",
"262 229 OFFCURVE",
"262 322 CURVE SMOOTH",
"262 415 OFFCURVE",
"289 449 OFFCURVE",
"360 449 CURVE SMOOTH",
"431 449 OFFCURVE",
"458 415 OFFCURVE",
"458 322 CURVE SMOOTH",
"458 229 OFFCURVE",
"431 195 OFFCURVE",
"360 195 CURVE SMOOTH"
);
},
{
closed = 1;
nodes = (
"445 688 LINE",
"445 724 LINE",
"503 742 OFFCURVE",
"527 768 OFFCURVE",
"527 828 CURVE SMOOTH",
"527 888 OFFCURVE",
"473 935 OFFCURVE",
"376 935 CURVE SMOOTH",
"318 935 OFFCURVE",
"278 929 OFFCURVE",
"246 920 CURVE",
"246 826 LINE",
"261 832 OFFCURVE",
"282 836 OFFCURVE",
"302 836 CURVE SMOOTH",
"336 836 OFFCURVE",
"352 828 OFFCURVE",
"352 808 CURVE SMOOTH",
"352 788 OFFCURVE",
"332 773 OFFCURVE",
"267 769 CURVE",
"267 688 LINE"
);
}
);
width = 720;
}
);
leftKerningGroup = O;
note = Ohookabove;
rightKerningGroup = O;
unicode = 1ECE;
},
{
glyphname = Ohorn;
lastChange = "2015-10-23 06:06:22 +0000";
layers = (
{
layerId = "03246D8C-E7A1-43FC-9121-0C6BC949C0F5";
name = Bold;
paths = (
{
closed = 1;
nodes = (
"578 -10 OFFCURVE",
"705 79 OFFCURVE",
"705 322 CURVE SMOOTH",
"705 374 OFFCURVE",
"699 420 OFFCURVE",
"687 458 CURVE",
"788 483 OFFCURVE",
"826 551 OFFCURVE",
"826 688 CURVE",
"657 688 LINE",
"657 627 OFFCURVE",
"643 606 OFFCURVE",
"585 601 CURVE",
"528 638 OFFCURVE",
"452 654 OFFCURVE",
"360 654 CURVE SMOOTH",
"142 654 OFFCURVE",
"15 565 OFFCURVE",
"15 322 CURVE SMOOTH",
"15 79 OFFCURVE",
"142 -10 OFFCURVE",
"360 -10 CURVE SMOOTH"
);
},
{
closed = 1;
nodes = (
"289 195 OFFCURVE",
"262 229 OFFCURVE",
"262 322 CURVE SMOOTH",
"262 415 OFFCURVE",
"289 449 OFFCURVE",
"360 449 CURVE SMOOTH",
"431 449 OFFCURVE",
"458 415 OFFCURVE",
"458 322 CURVE SMOOTH",
"458 229 OFFCURVE",
"431 195 OFFCURVE",
"360 195 CURVE SMOOTH"
);
}
);
width = 821;
}
);
leftKerningGroup = O;
note = Ohorn;
rightKerningGroup = O;
unicode = 01A0;
},
{
glyphname = Ohornacute;
lastChange = "2015-10-23 06:06:22 +0000";
layers = (
{
layerId = "03246D8C-E7A1-43FC-9121-0C6BC949C0F5";
name = Bold;
paths = (
{
closed = 1;
nodes = (
"578 -10 OFFCURVE",
"705 79 OFFCURVE",
"705 322 CURVE SMOOTH",
"705 374 OFFCURVE",
"699 420 OFFCURVE",
"687 458 CURVE",
"788 483 OFFCURVE",
"826 551 OFFCURVE",
"826 688 CURVE",
"657 688 LINE",
"657 627 OFFCURVE",
"643 606 OFFCURVE",
"585 601 CURVE",
"528 638 OFFCURVE",
"452 654 OFFCURVE",
"360 654 CURVE SMOOTH",
"142 654 OFFCURVE",
"15 565 OFFCURVE",
"15 322 CURVE SMOOTH",
"15 79 OFFCURVE",
"142 -10 OFFCURVE",
"360 -10 CURVE SMOOTH"
);
},
{
closed = 1;
nodes = (
"289 195 OFFCURVE",
"262 229 OFFCURVE",
"262 322 CURVE SMOOTH",
"262 415 OFFCURVE",
"289 449 OFFCURVE",
"360 449 CURVE SMOOTH",
"431 449 OFFCURVE",
"458 415 OFFCURVE",
"458 322 CURVE SMOOTH",
"458 229 OFFCURVE",
"431 195 OFFCURVE",
"360 195 CURVE SMOOTH"
);
},
{
closed = 1;
nodes = (
"455 688 LINE",
"560 914 LINE",
"374 914 LINE",
"278 688 LINE"
);
}
);
width = 821;
}
);
leftKerningGroup = O;
note = Ohornacute;
rightKerningGroup = O;
unicode = 1EDA;
},
{
glyphname = Ohorndotbelow;
lastChange = "2015-11-26 08:47:37 +0000";
layers = (
{
layerId = "03246D8C-E7A1-43FC-9121-0C6BC949C0F5";
name = Bold;
paths = (
{
closed = 1;
nodes = (
"578 -10 OFFCURVE",
"705 79 OFFCURVE",
"705 322 CURVE SMOOTH",
"705 374 OFFCURVE",
"699 420 OFFCURVE",
"687 458 CURVE",
"788 483 OFFCURVE",
"826 551 OFFCURVE",
"826 688 CURVE",
"657 688 LINE",
"657 627 OFFCURVE",
"643 606 OFFCURVE",
"585 601 CURVE",
"528 638 OFFCURVE",
"452 654 OFFCURVE",
"360 654 CURVE SMOOTH",
"142 654 OFFCURVE",
"15 565 OFFCURVE",
"15 322 CURVE SMOOTH",
"15 79 OFFCURVE",
"142 -10 OFFCURVE",
"360 -10 CURVE SMOOTH"
);
},
{
closed = 1;
nodes = (
"289 195 OFFCURVE",
"262 229 OFFCURVE",
"262 322 CURVE SMOOTH",
"262 415 OFFCURVE",
"289 449 OFFCURVE",
"360 449 CURVE SMOOTH",
"431 449 OFFCURVE",
"458 415 OFFCURVE",
"458 322 CURVE SMOOTH",
"458 229 OFFCURVE",
"431 195 OFFCURVE",
"360 195 CURVE SMOOTH"
);
},
{
closed = 1;
nodes = (
"440 -213 LINE",
"440 -72 LINE",
"284 -72 LINE",
"284 -213 LINE"
);
}
);
width = 821;
}
);
leftKerningGroup = O;
note = Ohorndotbelow;
rightKerningGroup = O;
unicode = 1EE2;
},
{
glyphname = Ohorngrave;
lastChange = "2015-10-23 06:06:23 +0000";
layers = (
{
layerId = "03246D8C-E7A1-43FC-9121-0C6BC949C0F5";
name = Bold;
paths = (
{
closed = 1;
nodes = (
"578 -10 OFFCURVE",
"705 79 OFFCURVE",
"705 322 CURVE SMOOTH",
"705 374 OFFCURVE",
"699 420 OFFCURVE",
"687 458 CURVE",
"788 483 OFFCURVE",
"826 551 OFFCURVE",
"826 688 CURVE",
"657 688 LINE",
"657 627 OFFCURVE",
"643 606 OFFCURVE",
"585 601 CURVE",
"528 638 OFFCURVE",
"452 654 OFFCURVE",
"360 654 CURVE SMOOTH",
"142 654 OFFCURVE",
"15 565 OFFCURVE",
"15 322 CURVE SMOOTH",
"15 79 OFFCURVE",
"142 -10 OFFCURVE",
"360 -10 CURVE SMOOTH"
);
},
{
closed = 1;
nodes = (
"289 195 OFFCURVE",
"262 229 OFFCURVE",
"262 322 CURVE SMOOTH",
"262 415 OFFCURVE",
"289 449 OFFCURVE",
"360 449 CURVE SMOOTH",
"431 449 OFFCURVE",
"458 415 OFFCURVE",
"458 322 CURVE SMOOTH",
"458 229 OFFCURVE",
"431 195 OFFCURVE",
"360 195 CURVE SMOOTH"
);
},
{
closed = 1;
nodes = (
"468 688 LINE",
"372 914 LINE",
"186 914 LINE",
"291 688 LINE"
);
}
);
width = 821;
}
);
leftKerningGroup = O;
note = Ohorngrave;
rightKerningGroup = O;
unicode = 1EDC;
},
{
glyphname = Ohornhookabove;
lastChange = "2015-10-23 06:06:22 +0000";
layers = (
{
layerId = "03246D8C-E7A1-43FC-9121-0C6BC949C0F5";
name = Bold;
paths = (
{
closed = 1;
nodes = (
"578 -10 OFFCURVE",
"705 79 OFFCURVE",
"705 322 CURVE SMOOTH",
"705 374 OFFCURVE",
"699 420 OFFCURVE",
"687 458 CURVE",
"788 483 OFFCURVE",
"826 551 OFFCURVE",
"826 688 CURVE",
"657 688 LINE",
"657 627 OFFCURVE",
"643 606 OFFCURVE",
"585 601 CURVE",
"528 638 OFFCURVE",
"452 654 OFFCURVE",
"360 654 CURVE SMOOTH",
"142 654 OFFCURVE",
"15 565 OFFCURVE",
"15 322 CURVE SMOOTH",
"15 79 OFFCURVE",
"142 -10 OFFCURVE",
"360 -10 CURVE SMOOTH"
);
},
{
closed = 1;
nodes = (
"289 195 OFFCURVE",
"262 229 OFFCURVE",
"262 322 CURVE SMOOTH",
"262 415 OFFCURVE",
"289 449 OFFCURVE",
"360 449 CURVE SMOOTH",
"431 449 OFFCURVE",
"458 415 OFFCURVE",
"458 322 CURVE SMOOTH",
"458 229 OFFCURVE",
"431 195 OFFCURVE",
"360 195 CURVE SMOOTH"
);
},
{
closed = 1;
nodes = (
"446 688 LINE",
"446 724 LINE",
"504 742 OFFCURVE",
"528 768 OFFCURVE",
"528 828 CURVE SMOOTH",
"528 888 OFFCURVE",
"474 935 OFFCURVE",
"377 935 CURVE SMOOTH",
"319 935 OFFCURVE",
"279 929 OFFCURVE",
"247 920 CURVE",
"247 826 LINE",
"262 832 OFFCURVE",
"283 836 OFFCURVE",
"303 836 CURVE SMOOTH",
"337 836 OFFCURVE",
"353 828 OFFCURVE",
"353 808 CURVE SMOOTH",
"353 788 OFFCURVE",
"333 773 OFFCURVE",
"268 769 CURVE",
"268 688 LINE"
);
}
);
width = 821;
}
);
leftKerningGroup = O;
note = Ohornhookabove;
rightKerningGroup = O;
unicode = 1EDE;
},
{
glyphname = Ohorntilde;
lastChange = "2015-10-23 06:06:22 +0000";
layers = (
{
layerId = "03246D8C-E7A1-43FC-9121-0C6BC949C0F5";
name = Bold;
paths = (
{
closed = 1;
nodes = (
"578 -10 OFFCURVE",
"705 79 OFFCURVE",
"705 322 CURVE SMOOTH",
"705 374 OFFCURVE",
"699 420 OFFCURVE",
"687 458 CURVE",
"788 483 OFFCURVE",
"826 551 OFFCURVE",
"826 688 CURVE",
"657 688 LINE",
"657 627 OFFCURVE",
"643 606 OFFCURVE",
"585 601 CURVE",
"528 638 OFFCURVE",
"452 654 OFFCURVE",
"360 654 CURVE SMOOTH",
"142 654 OFFCURVE",
"15 565 OFFCURVE",
"15 322 CURVE SMOOTH",
"15 79 OFFCURVE",
"142 -10 OFFCURVE",
"360 -10 CURVE SMOOTH"
);
},
{
closed = 1;
nodes = (
"289 195 OFFCURVE",
"262 229 OFFCURVE",
"262 322 CURVE SMOOTH",
"262 415 OFFCURVE",
"289 449 OFFCURVE",
"360 449 CURVE SMOOTH",
"431 449 OFFCURVE",
"458 415 OFFCURVE",
"458 322 CURVE SMOOTH",
"458 229 OFFCURVE",
"431 195 OFFCURVE",
"360 195 CURVE SMOOTH"
);
},
{
closed = 1;
nodes = (
"510 688 OFFCURVE",
"550 705 OFFCURVE",
"563 723 CURVE",
"563 864 LINE",
"547 842 OFFCURVE",
"511 823 OFFCURVE",
"465 823 CURVE SMOOTH",
"396 823 OFFCURVE",
"337 867 OFFCURVE",
"264 867 CURVE SMOOTH",
"222 867 OFFCURVE",
"182 850 OFFCURVE",
"162 832 CURVE",
"162 691 LINE",
"186 715 OFFCURVE",
"221 732 OFFCURVE",
"267 732 CURVE SMOOTH",
"328 732 OFFCURVE",
"396 688 OFFCURVE",
"468 688 CURVE SMOOTH"
);
}
);
width = 821;
}
);
leftKerningGroup = O;
note = Ohorntilde;
rightKerningGroup = O;
unicode = 1EE0;
},
{
glyphname = Ohungarumlaut;
lastChange = "2015-10-23 06:06:23 +0000";
layers = (
{
layerId = "03246D8C-E7A1-43FC-9121-0C6BC949C0F5";
name = Bold;
paths = (
{
closed = 1;
nodes = (
"578 -10 OFFCURVE",
"705 79 OFFCURVE",
"705 322 CURVE SMOOTH",
"705 565 OFFCURVE",
"578 654 OFFCURVE",
"360 654 CURVE SMOOTH",
"142 654 OFFCURVE",
"15 565 OFFCURVE",
"15 322 CURVE SMOOTH",
"15 79 OFFCURVE",
"142 -10 OFFCURVE",
"360 -10 CURVE SMOOTH"
);
},
{
closed = 1;
nodes = (
"289 195 OFFCURVE",
"262 229 OFFCURVE",
"262 322 CURVE SMOOTH",
"262 415 OFFCURVE",
"289 449 OFFCURVE",
"360 449 CURVE SMOOTH",
"431 449 OFFCURVE",
"458 415 OFFCURVE",
"458 322 CURVE SMOOTH",
"458 229 OFFCURVE",
"431 195 OFFCURVE",
"360 195 CURVE SMOOTH"
);
},
{
closed = 1;
nodes = (
"277 688 LINE",
"391 891 LINE",
"185 891 LINE",
"90 688 LINE"
);
},
{
closed = 1;
nodes = (
"547 688 LINE",
"661 891 LINE",
"455 891 LINE",
"360 688 LINE"
);
}
);
width = 720;
}
);
leftKerningGroup = O;
note = Ohungarumlaut;
rightKerningGroup = O;
unicode = 0150;
},
{
glyphname = Omacron;
lastChange = "2015-10-23 06:06:22 +0000";
layers = (
{
layerId = "03246D8C-E7A1-43FC-9121-0C6BC949C0F5";
name = Bold;
paths = (
{
closed = 1;
nodes = (
"578 -10 OFFCURVE",
"705 79 OFFCURVE",
"705 322 CURVE SMOOTH",
"705 565 OFFCURVE",
"578 654 OFFCURVE",
"360 654 CURVE SMOOTH",
"142 654 OFFCURVE",
"15 565 OFFCURVE",
"15 322 CURVE SMOOTH",
"15 79 OFFCURVE",
"142 -10 OFFCURVE",
"360 -10 CURVE SMOOTH"
);
},
{
closed = 1;
nodes = (
"289 195 OFFCURVE",
"262 229 OFFCURVE",
"262 322 CURVE SMOOTH",
"262 415 OFFCURVE",
"289 449 OFFCURVE",
"360 449 CURVE SMOOTH",
"431 449 OFFCURVE",
"458 415 OFFCURVE",
"458 322 CURVE SMOOTH",
"458 229 OFFCURVE",
"431 195 OFFCURVE",
"360 195 CURVE SMOOTH"
);
},
{
closed = 1;
nodes = (
"528 729 LINE",
"528 869 LINE",
"179 869 LINE",
"179 729 LINE"
);
}
);
width = 720;
}
);
leftKerningGroup = O;
note = Omacron;
rightKerningGroup = O;
unicode = 014C;
},
{
glyphname = Oslash;
lastChange = "2015-10-23 06:06:22 +0000";
layers = (
{
layerId = "03246D8C-E7A1-43FC-9121-0C6BC949C0F5";
name = Bold;
paths = (
{
closed = 1;
nodes = (
"245 -53 LINE",
"265 -3 LINE",
"294 -8 OFFCURVE",
"326 -10 OFFCURVE",
"360 -10 CURVE SMOOTH",
"578 -10 OFFCURVE",
"705 79 OFFCURVE",
"705 322 CURVE SMOOTH",
"705 495 OFFCURVE",
"640 590 OFFCURVE",
"523 630 CURVE",
"549 693 LINE",
"472 693 LINE",
"453 647 LINE",
"424 652 OFFCURVE",
"393 654 OFFCURVE",
"360 654 CURVE SMOOTH",
"142 654 OFFCURVE",
"15 565 OFFCURVE",
"15 322 CURVE SMOOTH",
"15 149 OFFCURVE",
"79 54 OFFCURVE",
"195 14 CURVE",
"168 -53 LINE"
);
},
{
closed = 1;
nodes = (
"263 241 OFFCURVE",
"257 274 OFFCURVE",
"257 322 CURVE SMOOTH",
"257 420 OFFCURVE",
"285 455 OFFCURVE",
"360 455 CURVE SMOOTH",
"365 455 OFFCURVE",
"370 455 OFFCURVE",
"374 454 CURVE",
"279 220 LINE"
);
},
{
closed = 1;
nodes = (
"439 425 LINE",
"455 404 OFFCURVE",
"463 371 OFFCURVE",
"463 322 CURVE SMOOTH",
"463 224 OFFCURVE",
"435 189 OFFCURVE",
"360 189 CURVE SMOOTH",
"343 189 LINE"
);
}
);
width = 720;
}
);
leftKerningGroup = O;
note = Oslash;
rightKerningGroup = O;
unicode = 00D8;
},
{
glyphname = Oslashacute;
lastChange = "2015-10-23 06:06:22 +0000";
layers = (
{
layerId = "03246D8C-E7A1-43FC-9121-0C6BC949C0F5";
name = Bold;
paths = (
{
closed = 1;
nodes = (
"245 -53 LINE",
"265 -3 LINE",
"294 -8 OFFCURVE",
"326 -10 OFFCURVE",
"360 -10 CURVE SMOOTH",
"578 -10 OFFCURVE",
"705 79 OFFCURVE",
"705 322 CURVE SMOOTH",
"705 495 OFFCURVE",
"640 590 OFFCURVE",
"523 630 CURVE",
"549 693 LINE",
"472 693 LINE",
"453 647 LINE",
"424 652 OFFCURVE",
"393 654 OFFCURVE",
"360 654 CURVE SMOOTH",
"142 654 OFFCURVE",
"15 565 OFFCURVE",
"15 322 CURVE SMOOTH",
"15 149 OFFCURVE",
"79 54 OFFCURVE",
"195 14 CURVE",
"168 -53 LINE"
);
},
{
closed = 1;
nodes = (
"263 241 OFFCURVE",
"257 274 OFFCURVE",
"257 322 CURVE SMOOTH",
"257 420 OFFCURVE",
"285 455 OFFCURVE",
"360 455 CURVE SMOOTH",
"365 455 OFFCURVE",
"370 455 OFFCURVE",
"374 454 CURVE",
"279 220 LINE"
);
},
{
closed = 1;
nodes = (
"439 425 LINE",
"455 404 OFFCURVE",
"463 371 OFFCURVE",
"463 322 CURVE SMOOTH",
"463 224 OFFCURVE",
"435 189 OFFCURVE",
"360 189 CURVE SMOOTH",
"343 189 LINE"
);
},
{
closed = 1;
nodes = (
"395 688 LINE",
"500 914 LINE",
"314 914 LINE",
"218 688 LINE"
);
}
);
width = 720;
}
);
leftKerningGroup = O;
note = Oslashacute;
rightKerningGroup = O;
unicode = 01FE;
},
{
glyphname = Otilde;
lastChange = "2015-10-23 06:06:23 +0000";
layers = (
{
layerId = "03246D8C-E7A1-43FC-9121-0C6BC949C0F5";
name = Bold;
paths = (
{
closed = 1;
nodes = (
"578 -10 OFFCURVE",
"705 79 OFFCURVE",
"705 322 CURVE SMOOTH",
"705 565 OFFCURVE",
"578 654 OFFCURVE",
"360 654 CURVE SMOOTH",
"142 654 OFFCURVE",
"15 565 OFFCURVE",
"15 322 CURVE SMOOTH",
"15 79 OFFCURVE",
"142 -10 OFFCURVE",
"360 -10 CURVE SMOOTH"
);
},
{
closed = 1;
nodes = (
"289 195 OFFCURVE",
"262 229 OFFCURVE",
"262 322 CURVE SMOOTH",
"262 415 OFFCURVE",
"289 449 OFFCURVE",
"360 449 CURVE SMOOTH",
"431 449 OFFCURVE",
"458 415 OFFCURVE",
"458 322 CURVE SMOOTH",
"458 229 OFFCURVE",
"431 195 OFFCURVE",
"360 195 CURVE SMOOTH"
);
},
{
closed = 1;
nodes = (
"508 713 OFFCURVE",
"548 730 OFFCURVE",
"561 748 CURVE",
"561 889 LINE",
"545 867 OFFCURVE",
"509 848 OFFCURVE",
"463 848 CURVE SMOOTH",
"394 848 OFFCURVE",
"335 892 OFFCURVE",
"262 892 CURVE SMOOTH",
"220 892 OFFCURVE",
"180 875 OFFCURVE",
"160 857 CURVE",
"160 716 LINE",
"184 740 OFFCURVE",
"219 757 OFFCURVE",
"265 757 CURVE SMOOTH",
"326 757 OFFCURVE",
"394 713 OFFCURVE",
"466 713 CURVE SMOOTH"
);
}
);
width = 720;
}
);
leftKerningGroup = O;
note = Otilde;
rightKerningGroup = O;
unicode = 00D5;
},
{
glyphname = OE;
lastChange = "2015-10-23 06:06:22 +0000";
layers = (
{
layerId = "03246D8C-E7A1-43FC-9121-0C6BC949C0F5";
name = Bold;
paths = (
{
closed = 1;
nodes = (
"578 -10 OFFCURVE",
"705 79 OFFCURVE",
"705 322 CURVE SMOOTH",
"705 565 OFFCURVE",
"578 654 OFFCURVE",
"360 654 CURVE SMOOTH",
"142 654 OFFCURVE",
"15 565 OFFCURVE",
"15 322 CURVE SMOOTH",
"15 79 OFFCURVE",
"142 -10 OFFCURVE",
"360 -10 CURVE SMOOTH"
);
},
{
closed = 1;
nodes = (
"289 195 OFFCURVE",
"262 229 OFFCURVE",
"262 322 CURVE SMOOTH",
"262 415 OFFCURVE",
"289 449 OFFCURVE",
"360 449 CURVE SMOOTH",
"431 449 OFFCURVE",
"458 415 OFFCURVE",
"458 322 CURVE SMOOTH",
"458 229 OFFCURVE",
"431 195 OFFCURVE",
"360 195 CURVE SMOOTH"
);
},
{
closed = 1;
nodes = (
"976 0 LINE",
"976 174 LINE",
"703 174 LINE",
"703 232 LINE",
"938 232 LINE",
"938 412 LINE",
"703 412 LINE",
"703 470 LINE",
"976 470 LINE",
"976 644 LINE",
"461 644 LINE",
"461 0 LINE"
);
}
);
width = 991;
}
);
leftKerningGroup = O;
note = OE;
rightKerningGroup = E;
unicode = 0152;
},
{
glyphname = P;
lastChange = "2015-10-23 06:06:22 +0000";
layers = (
{
layerId = "03246D8C-E7A1-43FC-9121-0C6BC949C0F5";
name = Bold;
paths = (
{
closed = 1;
nodes = (
"277 0 LINE",
"277 144 LINE",
"393 144 LINE SMOOTH",
"544 144 OFFCURVE",
"641 252 OFFCURVE",
"641 393 CURVE SMOOTH",
"641 530 OFFCURVE",
"562 644 OFFCURVE",
"397 644 CURVE SMOOTH",
"35 644 LINE",
"35 0 LINE"
);
},
{
closed = 1;
nodes = (
"277 455 LINE",
"340 455 LINE SMOOTH",
"377 455 OFFCURVE",
"395 433 OFFCURVE",
"395 393 CURVE SMOOTH",
"395 356 OFFCURVE",
"375 333 OFFCURVE",
"336 333 CURVE SMOOTH",
"277 333 LINE"
);
}
);
width = 636;
}
);
note = P;
unicode = 0050;
},
{
glyphname = Thorn;
lastChange = "2015-11-26 08:47:52 +0000";
layers = (
{
layerId = "03246D8C-E7A1-43FC-9121-0C6BC949C0F5";
name = Bold;
paths = (
{
closed = 1;
nodes = (
"277 0 LINE",
"277 72 LINE",
"393 72 LINE SMOOTH",
"544 72 OFFCURVE",
"641 180 OFFCURVE",
"641 321 CURVE SMOOTH",
"641 458 OFFCURVE",
"562 572 OFFCURVE",
"397 572 CURVE SMOOTH",
"277 572 LINE",
"277 644 LINE",
"35 644 LINE",
"35 0 LINE"
);
},
{
closed = 1;
nodes = (
"277 383 LINE",
"340 383 LINE SMOOTH",
"377 383 OFFCURVE",
"395 361 OFFCURVE",
"395 321 CURVE SMOOTH",
"395 284 OFFCURVE",
"375 261 OFFCURVE",
"336 261 CURVE SMOOTH",
"277 261 LINE"
);
}
);
width = 636;
}
);
note = Thorn;
unicode = 00DE;
},
{
glyphname = Q;
lastChange = "2015-10-23 06:06:23 +0000";
layers = (
{
layerId = "03246D8C-E7A1-43FC-9121-0C6BC949C0F5";
name = Bold;
paths = (
{
closed = 1;
nodes = (
"499 -172 OFFCURVE",
"551 -164 OFFCURVE",
"578 -156 CURVE",
"578 -22 LINE",
"555 -30 OFFCURVE",
"531 -34 OFFCURVE",
"506 -34 CURVE SMOOTH",
"473 -34 OFFCURVE",
"456 -25 OFFCURVE",
"451 -4 CURVE",
"613 19 OFFCURVE",
"705 115 OFFCURVE",
"705 322 CURVE SMOOTH",
"705 565 OFFCURVE",
"578 654 OFFCURVE",
"360 654 CURVE SMOOTH",
"142 654 OFFCURVE",
"15 565 OFFCURVE",
"15 322 CURVE SMOOTH",
"15 120 OFFCURVE",
"102 24 OFFCURVE",
"256 -2 CURVE",
"261 -103 OFFCURVE",
"316 -172 OFFCURVE",
"445 -172 CURVE SMOOTH"
);
},
{
closed = 1;
nodes = (
"289 195 OFFCURVE",
"262 229 OFFCURVE",
"262 322 CURVE SMOOTH",
"262 415 OFFCURVE",
"289 449 OFFCURVE",
"360 449 CURVE SMOOTH",
"431 449 OFFCURVE",
"458 415 OFFCURVE",
"458 322 CURVE SMOOTH",
"458 229 OFFCURVE",
"431 195 OFFCURVE",
"360 195 CURVE SMOOTH"
);
}
);
width = 720;
}
);
leftKerningGroup = O;
note = Q;
rightKerningGroup = O;
unicode = 0051;
},
{
glyphname = R;
lastChange = "2015-10-23 06:06:23 +0000";
layers = (
{
layerId = "03246D8C-E7A1-43FC-9121-0C6BC949C0F5";
name = Bold;
paths = (
{
closed = 1;
nodes = (
"277 0 LINE",
"277 164 LINE",
"287 164 LINE SMOOTH",
"302 164 OFFCURVE",
"308 159 OFFCURVE",
"315 143 CURVE SMOOTH",
"378 0 LINE",
"630 0 LINE",
"554 175 LINE SMOOTH",
"549 187 OFFCURVE",
"541 198 OFFCURVE",
"527 208 CURVE",
"590 250 OFFCURVE",
"641 316 OFFCURVE",
"641 403 CURVE SMOOTH",
"641 540 OFFCURVE",
"562 644 OFFCURVE",
"397 644 CURVE SMOOTH",
"35 644 LINE",
"35 0 LINE"
);
},
{
closed = 1;
nodes = (
"277 455 LINE",
"340 455 LINE SMOOTH",
"377 455 OFFCURVE",
"395 440 OFFCURVE",
"395 403 CURVE SMOOTH",
"395 369 OFFCURVE",
"375 353 OFFCURVE",
"336 353 CURVE SMOOTH",
"277 353 LINE"
);
}
);
width = 656;
}
);
note = R;
rightKerningGroup = R;
unicode = 0052;
},
{
glyphname = Racute;
lastChange = "2015-10-23 06:06:22 +0000";
layers = (
{
layerId = "03246D8C-E7A1-43FC-9121-0C6BC949C0F5";
name = Bold;
paths = (
{
closed = 1;
nodes = (
"277 0 LINE",
"277 164 LINE",
"287 164 LINE SMOOTH",
"302 164 OFFCURVE",
"308 159 OFFCURVE",
"315 143 CURVE SMOOTH",
"378 0 LINE",
"630 0 LINE",
"554 175 LINE SMOOTH",
"549 187 OFFCURVE",
"541 198 OFFCURVE",
"527 208 CURVE",
"590 250 OFFCURVE",
"641 316 OFFCURVE",
"641 403 CURVE SMOOTH",
"641 540 OFFCURVE",
"562 644 OFFCURVE",
"397 644 CURVE SMOOTH",
"35 644 LINE",
"35 0 LINE"
);
},
{
closed = 1;
nodes = (
"277 455 LINE",
"340 455 LINE SMOOTH",
"377 455 OFFCURVE",
"395 440 OFFCURVE",
"395 403 CURVE SMOOTH",
"395 369 OFFCURVE",
"375 353 OFFCURVE",
"336 353 CURVE SMOOTH",
"277 353 LINE"
);
},
{
closed = 1;
nodes = (
"376 688 LINE",
"481 914 LINE",
"295 914 LINE",
"199 688 LINE"
);
}
);
width = 656;
}
);
note = Racute;
rightKerningGroup = R;
unicode = 0154;
},
{
glyphname = Rcaron;
lastChange = "2015-10-23 06:06:23 +0000";
layers = (
{
layerId = "03246D8C-E7A1-43FC-9121-0C6BC949C0F5";
name = Bold;
paths = (
{
closed = 1;
nodes = (
"277 0 LINE",
"277 164 LINE",
"287 164 LINE SMOOTH",
"302 164 OFFCURVE",
"308 159 OFFCURVE",
"315 143 CURVE SMOOTH",
"378 0 LINE",
"630 0 LINE",
"554 175 LINE SMOOTH",
"549 187 OFFCURVE",
"541 198 OFFCURVE",
"527 208 CURVE",
"590 250 OFFCURVE",
"641 316 OFFCURVE",
"641 403 CURVE SMOOTH",
"641 540 OFFCURVE",
"562 644 OFFCURVE",
"397 644 CURVE SMOOTH",
"35 644 LINE",
"35 0 LINE"
);
},
{
closed = 1;
nodes = (
"277 455 LINE",
"340 455 LINE SMOOTH",
"377 455 OFFCURVE",
"395 440 OFFCURVE",
"395 403 CURVE SMOOTH",
"395 369 OFFCURVE",
"375 353 OFFCURVE",
"336 353 CURVE SMOOTH",
"277 353 LINE"
);
},
{
closed = 1;
nodes = (
"375 688 LINE",
"550 904 LINE",
"382 904 LINE",
"305 797 LINE",
"232 904 LINE",
"59 904 LINE",
"234 688 LINE"
);
}
);
width = 656;
}
);
note = Rcaron;
rightKerningGroup = R;
unicode = 0158;
},
{
glyphname = Rcommaaccent;
lastChange = "2015-11-26 08:47:58 +0000";
layers = (
{
layerId = "03246D8C-E7A1-43FC-9121-0C6BC949C0F5";
name = Bold;
paths = (
{
closed = 1;
nodes = (
"277 0 LINE",
"277 164 LINE",
"287 164 LINE SMOOTH",
"302 164 OFFCURVE",
"308 159 OFFCURVE",
"315 143 CURVE SMOOTH",
"378 0 LINE",
"630 0 LINE",
"554 175 LINE SMOOTH",
"549 187 OFFCURVE",
"541 198 OFFCURVE",
"527 208 CURVE",
"590 250 OFFCURVE",
"641 316 OFFCURVE",
"641 403 CURVE SMOOTH",
"641 540 OFFCURVE",
"562 644 OFFCURVE",
"397 644 CURVE SMOOTH",
"35 644 LINE",
"35 0 LINE"
);
},
{
closed = 1;
nodes = (
"277 455 LINE",
"340 455 LINE SMOOTH",
"377 455 OFFCURVE",
"395 440 OFFCURVE",
"395 403 CURVE SMOOTH",
"395 369 OFFCURVE",
"375 353 OFFCURVE",
"336 353 CURVE SMOOTH",
"277 353 LINE"
);
},
{
closed = 1;
nodes = (
"354 -286 LINE",
"419 -37 LINE",
"240 -37 LINE",
"203 -286 LINE"
);
}
);
width = 656;
}
);
note = Rcommaaccent;
rightKerningGroup = R;
unicode = 0156;
},
{
glyphname = Rdotbelow;
lastChange = "2015-11-26 08:48:04 +0000";
layers = (
{
layerId = "03246D8C-E7A1-43FC-9121-0C6BC949C0F5";
name = Bold;
paths = (
{
closed = 1;
nodes = (
"277 0 LINE",
"277 164 LINE",
"287 164 LINE SMOOTH",
"302 164 OFFCURVE",
"308 159 OFFCURVE",
"315 143 CURVE SMOOTH",
"378 0 LINE",
"630 0 LINE",
"554 175 LINE SMOOTH",
"549 187 OFFCURVE",
"541 198 OFFCURVE",
"527 208 CURVE",
"590 250 OFFCURVE",
"641 316 OFFCURVE",
"641 403 CURVE SMOOTH",
"641 540 OFFCURVE",
"562 644 OFFCURVE",
"397 644 CURVE SMOOTH",
"35 644 LINE",
"35 0 LINE"
);
},
{
closed = 1;
nodes = (
"277 455 LINE",
"340 455 LINE SMOOTH",
"377 455 OFFCURVE",
"395 440 OFFCURVE",
"395 403 CURVE SMOOTH",
"395 369 OFFCURVE",
"375 353 OFFCURVE",
"336 353 CURVE SMOOTH",
"277 353 LINE"
);
},
{
closed = 1;
nodes = (
"391 -213 LINE",
"391 -72 LINE",
"235 -72 LINE",
"235 -213 LINE"
);
}
);
width = 656;
}
);
note = Rdotbelow;
rightKerningGroup = R;
unicode = 1E5A;
},
{
glyphname = Rdotbelowmacron;
lastChange = "2015-11-26 08:48:07 +0000";
layers = (
{
layerId = "03246D8C-E7A1-43FC-9121-0C6BC949C0F5";
name = Bold;
paths = (
{
closed = 1;
nodes = (
"277 0 LINE",
"277 164 LINE",
"287 164 LINE SMOOTH",
"302 164 OFFCURVE",
"308 159 OFFCURVE",
"315 143 CURVE SMOOTH",
"378 0 LINE",
"630 0 LINE",
"554 175 LINE SMOOTH",
"549 187 OFFCURVE",
"541 198 OFFCURVE",
"527 208 CURVE",
"590 250 OFFCURVE",
"641 316 OFFCURVE",
"641 403 CURVE SMOOTH",
"641 540 OFFCURVE",
"562 644 OFFCURVE",
"397 644 CURVE SMOOTH",
"35 644 LINE",
"35 0 LINE"
);
},
{
closed = 1;
nodes = (
"277 455 LINE",
"340 455 LINE SMOOTH",
"377 455 OFFCURVE",
"395 440 OFFCURVE",
"395 403 CURVE SMOOTH",
"395 369 OFFCURVE",
"375 353 OFFCURVE",
"336 353 CURVE SMOOTH",
"277 353 LINE"
);
},
{
closed = 1;
nodes = (
"474 718 LINE",
"474 858 LINE",
"125 858 LINE",
"125 718 LINE"
);
},
{
closed = 1;
nodes = (
"391 -213 LINE",
"391 -72 LINE",
"235 -72 LINE",
"235 -213 LINE"
);
}
);
width = 656;
}
);
note = Rdotbelowmacron;
rightKerningGroup = R;
unicode = 1E5C;
},
{
glyphname = Rlinebelow;
lastChange = "2015-11-26 08:48:13 +0000";
layers = (
{
layerId = "03246D8C-E7A1-43FC-9121-0C6BC949C0F5";
name = Bold;
paths = (
{
closed = 1;
nodes = (
"277 0 LINE",
"277 164 LINE",
"287 164 LINE SMOOTH",
"302 164 OFFCURVE",
"308 159 OFFCURVE",
"315 143 CURVE SMOOTH",
"378 0 LINE",
"630 0 LINE",
"554 175 LINE SMOOTH",
"549 187 OFFCURVE",
"541 198 OFFCURVE",
"527 208 CURVE",
"590 250 OFFCURVE",
"641 316 OFFCURVE",
"641 403 CURVE SMOOTH",
"641 540 OFFCURVE",
"562 644 OFFCURVE",
"397 644 CURVE SMOOTH",
"35 644 LINE",
"35 0 LINE"
);
},
{
closed = 1;
nodes = (
"277 455 LINE",
"340 455 LINE SMOOTH",
"377 455 OFFCURVE",
"395 440 OFFCURVE",
"395 403 CURVE SMOOTH",
"395 369 OFFCURVE",
"375 353 OFFCURVE",
"336 353 CURVE SMOOTH",
"277 353 LINE"
);
},
{
closed = 1;
nodes = (
"487 -208 LINE",
"487 -68 LINE",
"138 -68 LINE",
"138 -208 LINE"
);
}
);
width = 656;
}
);
note = Rlinebelow;
rightKerningGroup = R;
unicode = 1E5E;
},
{
glyphname = S;
lastChange = "2015-10-23 06:06:20 +0000";
layers = (
{
layerId = "03246D8C-E7A1-43FC-9121-0C6BC949C0F5";
name = Bold;
paths = (
{
closed = 1;
nodes = (
"448 -10 OFFCURVE",
"545 70 OFFCURVE",
"545 193 CURVE SMOOTH",
"545 301 OFFCURVE",
"517 369 OFFCURVE",
"358 413 CURVE SMOOTH",
"291 432 OFFCURVE",
"262 437 OFFCURVE",
"262 455 CURVE SMOOTH",
"262 476 OFFCURVE",
"305 480 OFFCURVE",
"339 480 CURVE SMOOTH",
"381 480 OFFCURVE",
"437 471 OFFCURVE",
"510 441 CURVE",
"510 623 LINE",
"457 639 OFFCURVE",
"362 654 OFFCURVE",
"298 654 CURVE SMOOTH",
"110 654 OFFCURVE",
"15 589 OFFCURVE",
"15 453 CURVE SMOOTH",
"15 343 OFFCURVE",
"56 296 OFFCURVE",
"180 249 CURVE SMOOTH",
"249 223 OFFCURVE",
"296 216 OFFCURVE",
"296 192 CURVE SMOOTH",
"296 173 OFFCURVE",
"272 163 OFFCURVE",
"232 163 CURVE SMOOTH",
"170 163 OFFCURVE",
"84 185 OFFCURVE",
"21 216 CURVE",
"21 35 LINE",
"78 6 OFFCURVE",
"167 -10 OFFCURVE",
"258 -10 CURVE SMOOTH"
);
}
);
width = 560;
}
);
leftKerningGroup = S;
note = S;
rightKerningGroup = S;
unicode = 0053;
},
{
glyphname = Sacute;
lastChange = "2015-10-23 06:06:22 +0000";
layers = (
{
layerId = "03246D8C-E7A1-43FC-9121-0C6BC949C0F5";
name = Bold;
paths = (
{
closed = 1;
nodes = (
"448 -10 OFFCURVE",
"545 70 OFFCURVE",
"545 193 CURVE SMOOTH",
"545 301 OFFCURVE",
"517 369 OFFCURVE",
"358 413 CURVE SMOOTH",
"291 432 OFFCURVE",
"262 437 OFFCURVE",
"262 455 CURVE SMOOTH",
"262 476 OFFCURVE",
"305 480 OFFCURVE",
"339 480 CURVE SMOOTH",
"381 480 OFFCURVE",
"437 471 OFFCURVE",
"510 441 CURVE",
"510 623 LINE",
"457 639 OFFCURVE",
"362 654 OFFCURVE",
"298 654 CURVE SMOOTH",
"110 654 OFFCURVE",
"15 589 OFFCURVE",
"15 453 CURVE SMOOTH",
"15 343 OFFCURVE",
"56 296 OFFCURVE",
"180 249 CURVE SMOOTH",
"249 223 OFFCURVE",
"296 216 OFFCURVE",
"296 192 CURVE SMOOTH",
"296 173 OFFCURVE",
"272 163 OFFCURVE",
"232 163 CURVE SMOOTH",
"170 163 OFFCURVE",
"84 185 OFFCURVE",
"21 216 CURVE",
"21 35 LINE",
"78 6 OFFCURVE",
"167 -10 OFFCURVE",
"258 -10 CURVE SMOOTH"
);
},
{
closed = 1;
nodes = (
"356 688 LINE",
"461 914 LINE",
"275 914 LINE",
"179 688 LINE"
);
}
);
width = 560;
}
);
leftKerningGroup = S;
note = Sacute;
rightKerningGroup = S;
unicode = 015A;
},
{
glyphname = Scaron;
lastChange = "2015-10-23 06:06:22 +0000";
layers = (
{
layerId = "03246D8C-E7A1-43FC-9121-0C6BC949C0F5";
name = Bold;
paths = (
{
closed = 1;
nodes = (
"448 -10 OFFCURVE",
"545 70 OFFCURVE",
"545 193 CURVE SMOOTH",
"545 301 OFFCURVE",
"517 369 OFFCURVE",
"358 413 CURVE SMOOTH",
"291 432 OFFCURVE",
"262 437 OFFCURVE",
"262 455 CURVE SMOOTH",
"262 476 OFFCURVE",
"305 480 OFFCURVE",
"339 480 CURVE SMOOTH",
"381 480 OFFCURVE",
"437 471 OFFCURVE",
"510 441 CURVE",
"510 623 LINE",
"457 639 OFFCURVE",
"362 654 OFFCURVE",
"298 654 CURVE SMOOTH",
"110 654 OFFCURVE",
"15 589 OFFCURVE",
"15 453 CURVE SMOOTH",
"15 343 OFFCURVE",
"56 296 OFFCURVE",
"180 249 CURVE SMOOTH",
"249 223 OFFCURVE",
"296 216 OFFCURVE",
"296 192 CURVE SMOOTH",
"296 173 OFFCURVE",
"272 163 OFFCURVE",
"232 163 CURVE SMOOTH",
"170 163 OFFCURVE",
"84 185 OFFCURVE",
"21 216 CURVE",
"21 35 LINE",
"78 6 OFFCURVE",
"167 -10 OFFCURVE",
"258 -10 CURVE SMOOTH"
);
},
{
closed = 1;
nodes = (
"354 688 LINE",
"529 904 LINE",
"361 904 LINE",
"284 797 LINE",
"211 904 LINE",
"38 904 LINE",
"213 688 LINE"
);
}
);
width = 560;
}
);
leftKerningGroup = S;
note = Scaron;
rightKerningGroup = S;
unicode = 0160;
},
{
glyphname = Scedilla;
lastChange = "2015-10-23 06:06:22 +0000";
layers = (
{
layerId = "03246D8C-E7A1-43FC-9121-0C6BC949C0F5";
name = Bold;
paths = (
{
closed = 1;
nodes = (
"448 -10 OFFCURVE",
"545 70 OFFCURVE",
"545 193 CURVE SMOOTH",
"545 301 OFFCURVE",
"517 369 OFFCURVE",
"358 413 CURVE SMOOTH",
"291 432 OFFCURVE",
"262 437 OFFCURVE",
"262 455 CURVE SMOOTH",
"262 476 OFFCURVE",
"305 480 OFFCURVE",
"339 480 CURVE SMOOTH",
"381 480 OFFCURVE",
"437 471 OFFCURVE",
"510 441 CURVE",
"510 623 LINE",
"457 639 OFFCURVE",
"362 654 OFFCURVE",
"298 654 CURVE SMOOTH",
"110 654 OFFCURVE",
"15 589 OFFCURVE",
"15 453 CURVE SMOOTH",
"15 343 OFFCURVE",
"56 296 OFFCURVE",
"180 249 CURVE SMOOTH",
"249 223 OFFCURVE",
"296 216 OFFCURVE",
"296 192 CURVE SMOOTH",
"296 173 OFFCURVE",
"272 163 OFFCURVE",
"232 163 CURVE SMOOTH",
"170 163 OFFCURVE",
"84 185 OFFCURVE",
"21 216 CURVE",
"21 35 LINE",
"78 6 OFFCURVE",
"167 -10 OFFCURVE",
"258 -10 CURVE SMOOTH"
);
},
{
closed = 1;
nodes = (
"353 -240 OFFCURVE",
"410 -199 OFFCURVE",
"410 -133 CURVE SMOOTH",
"410 -79 OFFCURVE",
"369 -37 OFFCURVE",
"302 -37 CURVE",
"315 0 LINE",
"194 0 LINE",
"166 -100 LINE",
"240 -100 LINE SMOOTH",
"262 -100 OFFCURVE",
"277 -107 OFFCURVE",
"277 -128 CURVE SMOOTH",
"277 -150 OFFCURVE",
"254 -163 OFFCURVE",
"210 -163 CURVE SMOOTH",
"191 -163 OFFCURVE",
"170 -160 OFFCURVE",
"152 -155 CURVE",
"152 -232 LINE",
"167 -236 OFFCURVE",
"215 -240 OFFCURVE",
"240 -240 CURVE SMOOTH"
);
}
);
width = 560;
}
);
leftKerningGroup = S;
note = Scedilla;
rightKerningGroup = S;
unicode = 015E;
},
{
glyphname = Scircumflex;
lastChange = "2015-11-26 08:48:26 +0000";
layers = (
{
layerId = "03246D8C-E7A1-43FC-9121-0C6BC949C0F5";
name = Bold;
paths = (
{
closed = 1;
nodes = (
"448 -10 OFFCURVE",
"545 70 OFFCURVE",
"545 193 CURVE SMOOTH",
"545 301 OFFCURVE",
"517 369 OFFCURVE",
"358 413 CURVE SMOOTH",
"291 432 OFFCURVE",
"262 437 OFFCURVE",
"262 455 CURVE SMOOTH",
"262 476 OFFCURVE",
"305 480 OFFCURVE",
"339 480 CURVE SMOOTH",
"381 480 OFFCURVE",
"437 471 OFFCURVE",
"510 441 CURVE",
"510 623 LINE",
"457 639 OFFCURVE",
"362 654 OFFCURVE",
"298 654 CURVE SMOOTH",
"110 654 OFFCURVE",
"15 589 OFFCURVE",
"15 453 CURVE SMOOTH",
"15 343 OFFCURVE",
"56 296 OFFCURVE",
"180 249 CURVE SMOOTH",
"249 223 OFFCURVE",
"296 216 OFFCURVE",
"296 192 CURVE SMOOTH",
"296 173 OFFCURVE",
"272 163 OFFCURVE",
"232 163 CURVE SMOOTH",
"170 163 OFFCURVE",
"84 185 OFFCURVE",
"21 216 CURVE",
"21 35 LINE",
"78 6 OFFCURVE",
"167 -10 OFFCURVE",
"258 -10 CURVE SMOOTH"
);
},
{
closed = 1;
nodes = (
"238 688 LINE",
"311 795 LINE",
"388 688 LINE",
"556 688 LINE",
"381 904 LINE",
"240 904 LINE",
"65 688 LINE"
);
}
);
width = 560;
}
);
leftKerningGroup = S;
note = Scircumflex;
rightKerningGroup = S;
unicode = 015C;
},
{
glyphname = Scommaaccent;
lastChange = "2015-10-23 06:06:22 +0000";
layers = (
{
layerId = "03246D8C-E7A1-43FC-9121-0C6BC949C0F5";
name = Bold;
paths = (
{
closed = 1;
nodes = (
"448 -10 OFFCURVE",
"545 70 OFFCURVE",
"545 193 CURVE SMOOTH",
"545 301 OFFCURVE",
"517 369 OFFCURVE",
"358 413 CURVE SMOOTH",
"291 432 OFFCURVE",
"262 437 OFFCURVE",
"262 455 CURVE SMOOTH",
"262 476 OFFCURVE",
"305 480 OFFCURVE",
"339 480 CURVE SMOOTH",
"381 480 OFFCURVE",
"437 471 OFFCURVE",
"510 441 CURVE",
"510 623 LINE",
"457 639 OFFCURVE",
"362 654 OFFCURVE",
"298 654 CURVE SMOOTH",
"110 654 OFFCURVE",
"15 589 OFFCURVE",
"15 453 CURVE SMOOTH",
"15 343 OFFCURVE",
"56 296 OFFCURVE",
"180 249 CURVE SMOOTH",
"249 223 OFFCURVE",
"296 216 OFFCURVE",
"296 192 CURVE SMOOTH",
"296 173 OFFCURVE",
"272 163 OFFCURVE",
"232 163 CURVE SMOOTH",
"170 163 OFFCURVE",
"84 185 OFFCURVE",
"21 216 CURVE",
"21 35 LINE",
"78 6 OFFCURVE",
"167 -10 OFFCURVE",
"258 -10 CURVE SMOOTH"
);
},
{
closed = 1;
nodes = (
"338 -241 LINE",
"389 -37 LINE",
"188 -37 LINE",
"154 -241 LINE"
);
}
);
width = 560;
}
);
leftKerningGroup = S;
note = Scommaaccent;
rightKerningGroup = S;
unicode = 0218;
},
{
glyphname = Sdotaccent;
lastChange = "2015-10-23 06:06:23 +0000";
layers = (
{
layerId = "03246D8C-E7A1-43FC-9121-0C6BC949C0F5";
name = Bold;
paths = (
{
closed = 1;
nodes = (
"448 -10 OFFCURVE",
"545 70 OFFCURVE",
"545 193 CURVE SMOOTH",
"545 301 OFFCURVE",
"517 369 OFFCURVE",
"358 413 CURVE SMOOTH",
"291 432 OFFCURVE",
"262 437 OFFCURVE",
"262 455 CURVE SMOOTH",
"262 476 OFFCURVE",
"305 480 OFFCURVE",
"339 480 CURVE SMOOTH",
"381 480 OFFCURVE",
"437 471 OFFCURVE",
"510 441 CURVE",
"510 623 LINE",
"457 639 OFFCURVE",
"362 654 OFFCURVE",
"298 654 CURVE SMOOTH",
"110 654 OFFCURVE",
"15 589 OFFCURVE",
"15 453 CURVE SMOOTH",
"15 343 OFFCURVE",
"56 296 OFFCURVE",
"180 249 CURVE SMOOTH",
"249 223 OFFCURVE",
"296 216 OFFCURVE",
"296 192 CURVE SMOOTH",
"296 173 OFFCURVE",
"272 163 OFFCURVE",
"232 163 CURVE SMOOTH",
"170 163 OFFCURVE",
"84 185 OFFCURVE",
"21 216 CURVE",
"21 35 LINE",
"78 6 OFFCURVE",
"167 -10 OFFCURVE",
"258 -10 CURVE SMOOTH"
);
},
{
closed = 1;
nodes = (
"352 718 LINE",
"352 859 LINE",
"196 859 LINE",
"196 718 LINE"
);
}
);
width = 560;
}
);
leftKerningGroup = S;
note = Sdotaccent;
rightKerningGroup = S;
unicode = 1E60;
},
{
glyphname = Sdotbelow;
lastChange = "2015-10-23 06:06:23 +0000";
layers = (
{
layerId = "03246D8C-E7A1-43FC-9121-0C6BC949C0F5";
name = Bold;
paths = (
{
closed = 1;
nodes = (
"448 -10 OFFCURVE",
"545 70 OFFCURVE",
"545 193 CURVE SMOOTH",
"545 301 OFFCURVE",
"517 369 OFFCURVE",
"358 413 CURVE SMOOTH",
"291 432 OFFCURVE",
"262 437 OFFCURVE",
"262 455 CURVE SMOOTH",
"262 476 OFFCURVE",
"305 480 OFFCURVE",
"339 480 CURVE SMOOTH",
"381 480 OFFCURVE",
"437 471 OFFCURVE",
"510 441 CURVE",
"510 623 LINE",
"457 639 OFFCURVE",
"362 654 OFFCURVE",
"298 654 CURVE SMOOTH",
"110 654 OFFCURVE",
"15 589 OFFCURVE",
"15 453 CURVE SMOOTH",
"15 343 OFFCURVE",
"56 296 OFFCURVE",
"180 249 CURVE SMOOTH",
"249 223 OFFCURVE",
"296 216 OFFCURVE",
"296 192 CURVE SMOOTH",
"296 173 OFFCURVE",
"272 163 OFFCURVE",
"232 163 CURVE SMOOTH",
"170 163 OFFCURVE",
"84 185 OFFCURVE",
"21 216 CURVE",
"21 35 LINE",
"78 6 OFFCURVE",
"167 -10 OFFCURVE",
"258 -10 CURVE SMOOTH"
);
},
{
closed = 1;
nodes = (
"355 -213 LINE",
"355 -72 LINE",
"199 -72 LINE",
"199 -213 LINE"
);
}
);
width = 560;
}
);
leftKerningGroup = S;
note = Sdotbelow;
rightKerningGroup = S;
unicode = 1E62;
},
{
glyphname = Germandbls;
lastChange = "2015-10-23 06:06:20 +0000";
layers = (
{
layerId = "03246D8C-E7A1-43FC-9121-0C6BC949C0F5";
name = Bold;
paths = (
{
closed = 1;
nodes = (
"558 -10 OFFCURVE",
"642 44 OFFCURVE",
"642 165 CURVE SMOOTH",
"642 256 OFFCURVE",
"592 306 OFFCURVE",
"520 306 CURVE SMOOTH",
"509 306 LINE",
"620 409 LINE",
"620 546 OFFCURVE",
"532 654 OFFCURVE",
"327 654 CURVE SMOOTH",
"146 654 OFFCURVE",
"30 553 OFFCURVE",
"30 401 CURVE SMOOTH",
"30 0 LINE",
"257 0 LINE",
"257 398 LINE SMOOTH",
"257 433 OFFCURVE",
"274 460 OFFCURVE",
"327 460 CURVE SMOOTH",
"374 460 OFFCURVE",
"395 447 OFFCURVE",
"395 429 CURVE",
"288 331 LINE",
"288 224 LINE",
"342 224 LINE SMOOTH",
"380 224 OFFCURVE",
"395 213 OFFCURVE",
"395 194 CURVE SMOOTH",
"395 169 OFFCURVE",
"384 154 OFFCURVE",
"348 154 CURVE SMOOTH",
"331 154 OFFCURVE",
"302 157 OFFCURVE",
"287 163 CURVE",
"287 12 LINE",
"313 -1 OFFCURVE",
"365 -10 OFFCURVE",
"416 -10 CURVE SMOOTH"
);
}
);
width = 657;
}
);
note = uni1E9E;
unicode = 1E9E;
},
{
glyphname = Schwa;
lastChange = "2015-10-23 06:06:22 +0000";
layers = (
{
layerId = "03246D8C-E7A1-43FC-9121-0C6BC949C0F5";
name = Bold;
paths = (
{
closed = 1;
nodes = (
"581 -10 OFFCURVE",
"689 117 OFFCURVE",
"689 312 CURVE SMOOTH",
"689 518 OFFCURVE",
"545 654 OFFCURVE",
"328 654 CURVE SMOOTH",
"217 654 OFFCURVE",
"112 631 OFFCURVE",
"46 605 CURVE",
"46 458 LINE",
"91 478 OFFCURVE",
"209 502 OFFCURVE",
"276 502 CURVE SMOOTH",
"404 502 OFFCURVE",
"454 473 OFFCURVE",
"468 402 CURVE",
"15 402 LINE",
"15 289 LINE SMOOTH",
"15 97 OFFCURVE",
"140 -10 OFFCURVE",
"349 -10 CURVE SMOOTH"
);
},
{
closed = 1;
nodes = (
"261 132 OFFCURVE",
"222 184 OFFCURVE",
"222 232 CURVE SMOOTH",
"222 251 LINE",
"468 251 LINE",
"468 180 OFFCURVE",
"437 132 OFFCURVE",
"349 132 CURVE SMOOTH"
);
}
);
width = 704;
}
);
note = uni018F;
unicode = 018F;
},
{
glyphname = T;
lastChange = "2015-10-23 06:06:20 +0000";
layers = (
{
layerId = "03246D8C-E7A1-43FC-9121-0C6BC949C0F5";
name = Bold;
paths = (
{
closed = 1;
nodes = (
"401 0 LINE",
"401 470 LINE",
"565 470 LINE",
"565 644 LINE",
"-5 644 LINE",
"-5 470 LINE",
"159 470 LINE",
"159 0 LINE"
);
}
);
width = 560;
}
);
leftKerningGroup = T;
note = T;
rightKerningGroup = T;
unicode = 0054;
},
{
glyphname = Tbar;
lastChange = "2015-10-23 06:06:22 +0000";
layers = (
{
layerId = "03246D8C-E7A1-43FC-9121-0C6BC949C0F5";
name = Bold;
paths = (
{
closed = 1;
nodes = (
"401 0 LINE",
"401 470 LINE",
"565 470 LINE",
"565 644 LINE",
"-5 644 LINE",
"-5 470 LINE",
"159 470 LINE",
"159 0 LINE"
);
},
{
closed = 1;
nodes = (
"468 239 LINE",
"468 393 LINE",
"82 393 LINE",
"82 239 LINE"
);
}
);
width = 560;
}
);
leftKerningGroup = T;
note = Tbar;
rightKerningGroup = T;
unicode = 0166;
},
{
glyphname = Tcaron;
lastChange = "2015-10-23 06:06:22 +0000";
layers = (
{
layerId = "03246D8C-E7A1-43FC-9121-0C6BC949C0F5";
name = Bold;
paths = (
{
closed = 1;
nodes = (
"401 0 LINE",
"401 470 LINE",
"565 470 LINE",
"565 644 LINE",
"-5 644 LINE",
"-5 470 LINE",
"159 470 LINE",
"159 0 LINE"
);
},
{
closed = 1;
nodes = (
"351 688 LINE",
"526 904 LINE",
"358 904 LINE",
"281 797 LINE",
"208 904 LINE",
"35 904 LINE",
"210 688 LINE"
);
}
);
width = 560;
}
);
leftKerningGroup = T;
note = Tcaron;
rightKerningGroup = T;
unicode = 0164;
},
{
glyphname = Tcedilla;
lastChange = "2015-10-23 06:06:23 +0000";
layers = (
{
layerId = "03246D8C-E7A1-43FC-9121-0C6BC949C0F5";
name = Bold;
paths = (
{
closed = 1;
nodes = (
"401 0 LINE",
"401 470 LINE",
"565 470 LINE",
"565 644 LINE",
"-5 644 LINE",
"-5 470 LINE",
"159 470 LINE",
"159 0 LINE"
);
},
{
closed = 1;
nodes = (
"376 -240 OFFCURVE",
"433 -199 OFFCURVE",
"433 -133 CURVE SMOOTH",
"433 -79 OFFCURVE",
"392 -37 OFFCURVE",
"325 -37 CURVE",
"338 0 LINE",
"217 0 LINE",
"189 -100 LINE",
"263 -100 LINE SMOOTH",
"285 -100 OFFCURVE",
"300 -107 OFFCURVE",
"300 -128 CURVE SMOOTH",
"300 -150 OFFCURVE",
"277 -163 OFFCURVE",
"233 -163 CURVE SMOOTH",
"214 -163 OFFCURVE",
"193 -160 OFFCURVE",
"175 -155 CURVE",
"175 -232 LINE",
"190 -236 OFFCURVE",
"238 -240 OFFCURVE",
"263 -240 CURVE SMOOTH"
);
}
);
width = 560;
}
);
leftKerningGroup = T;
note = Tcedilla;
rightKerningGroup = T;
unicode = 0162;
},
{
glyphname = Tcommaaccent;
lastChange = "2015-11-26 08:49:08 +0000";
layers = (
{
layerId = "03246D8C-E7A1-43FC-9121-0C6BC949C0F5";
name = Bold;
paths = (
{
closed = 1;
nodes = (
"401 0 LINE",
"401 470 LINE",
"565 470 LINE",
"565 644 LINE",
"-5 644 LINE",
"-5 470 LINE",
"159 470 LINE",
"159 0 LINE"
);
},
{
closed = 1;
nodes = (
"315 -286 LINE",
"380 -37 LINE",
"201 -37 LINE",
"164 -286 LINE"
);
}
);
width = 560;
}
);
leftKerningGroup = T;
note = Tcommaaccent;
rightKerningGroup = T;
unicode = 021A;
},
{
glyphname = Tdotbelow;
lastChange = "2015-10-23 06:06:22 +0000";
layers = (
{
layerId = "03246D8C-E7A1-43FC-9121-0C6BC949C0F5";
name = Bold;
paths = (
{
closed = 1;
nodes = (
"401 0 LINE",
"401 470 LINE",
"565 470 LINE",
"565 644 LINE",
"-5 644 LINE",
"-5 470 LINE",
"159 470 LINE",
"159 0 LINE"
);
},
{
closed = 1;
nodes = (
"354 -193 LINE",
"354 -52 LINE",
"198 -52 LINE",
"198 -193 LINE"
);
}
);
width = 560;
}
);
leftKerningGroup = T;
note = Tdotbelow;
rightKerningGroup = T;
unicode = 1E6C;
},
{
glyphname = Tlinebelow;
lastChange = "2015-10-23 06:06:23 +0000";
layers = (
{
layerId = "03246D8C-E7A1-43FC-9121-0C6BC949C0F5";
name = Bold;
paths = (
{
closed = 1;
nodes = (
"401 0 LINE",
"401 470 LINE",
"565 470 LINE",
"565 644 LINE",
"-5 644 LINE",
"-5 470 LINE",
"159 470 LINE",
"159 0 LINE"
);
},
{
closed = 1;
nodes = (
"455 -188 LINE",
"455 -48 LINE",
"106 -48 LINE",
"106 -188 LINE"
);
}
);
width = 560;
}
);
leftKerningGroup = T;
note = Tlinebelow;
rightKerningGroup = T;
unicode = 1E6E;
},
{
glyphname = U;
lastChange = "2015-10-23 06:06:20 +0000";
layers = (
{
layerId = "03246D8C-E7A1-43FC-9121-0C6BC949C0F5";
name = Bold;
paths = (
{
closed = 1;
nodes = (
"534 -10 OFFCURVE",
"674 82 OFFCURVE",
"674 254 CURVE SMOOTH",
"674 644 LINE",
"432 644 LINE",
"432 285 LINE SMOOTH",
"432 224 OFFCURVE",
"405 195 OFFCURVE",
"352 195 CURVE SMOOTH",
"299 195 OFFCURVE",
"272 224 OFFCURVE",
"272 285 CURVE SMOOTH",
"272 644 LINE",
"30 644 LINE",
"30 254 LINE SMOOTH",
"30 82 OFFCURVE",
"170 -10 OFFCURVE",
"352 -10 CURVE SMOOTH"
);
}
);
width = 704;
}
);
leftKerningGroup = U;
note = U;
rightKerningGroup = U;
unicode = 0055;
},
{
glyphname = Uacute;
lastChange = "2015-10-23 06:06:23 +0000";
layers = (
{
layerId = "03246D8C-E7A1-43FC-9121-0C6BC949C0F5";
name = Bold;
paths = (
{
closed = 1;
nodes = (
"534 -10 OFFCURVE",
"674 82 OFFCURVE",
"674 254 CURVE SMOOTH",
"674 644 LINE",
"432 644 LINE",
"432 285 LINE SMOOTH",
"432 224 OFFCURVE",
"405 195 OFFCURVE",
"352 195 CURVE SMOOTH",
"299 195 OFFCURVE",
"272 224 OFFCURVE",
"272 285 CURVE SMOOTH",
"272 644 LINE",
"30 644 LINE",
"30 254 LINE SMOOTH",
"30 82 OFFCURVE",
"170 -10 OFFCURVE",
"352 -10 CURVE SMOOTH"
);
},
{
closed = 1;
nodes = (
"441 688 LINE",
"546 914 LINE",
"360 914 LINE",
"264 688 LINE"
);
}
);
width = 704;
}
);
leftKerningGroup = U;
note = Uacute;
rightKerningGroup = U;
unicode = 00DA;
},
{
glyphname = Ubreve;
lastChange = "2015-10-23 06:06:22 +0000";
layers = (
{
layerId = "03246D8C-E7A1-43FC-9121-0C6BC949C0F5";
name = Bold;
paths = (
{
closed = 1;
nodes = (
"534 -10 OFFCURVE",
"674 82 OFFCURVE",
"674 254 CURVE SMOOTH",
"674 644 LINE",
"432 644 LINE",
"432 285 LINE SMOOTH",
"432 224 OFFCURVE",
"405 195 OFFCURVE",
"352 195 CURVE SMOOTH",
"299 195 OFFCURVE",
"272 224 OFFCURVE",
"272 285 CURVE SMOOTH",
"272 644 LINE",
"30 644 LINE",
"30 254 LINE SMOOTH",
"30 82 OFFCURVE",
"170 -10 OFFCURVE",
"352 -10 CURVE SMOOTH"
);
},
{
closed = 1;
nodes = (
"486 688 OFFCURVE",
"573 765 OFFCURVE",
"573 908 CURVE",
"418 908 LINE",
"418 863 OFFCURVE",
"403 820 OFFCURVE",
"352 820 CURVE SMOOTH",
"302 820 OFFCURVE",
"287 863 OFFCURVE",
"287 908 CURVE",
"132 908 LINE",
"132 765 OFFCURVE",
"219 688 OFFCURVE",
"352 688 CURVE SMOOTH"
);
}
);
width = 704;
}
);
leftKerningGroup = U;
note = Ubreve;
rightKerningGroup = U;
unicode = 016C;
},
{
glyphname = Ucaron;
lastChange = "2015-11-26 08:49:18 +0000";
layers = (
{
layerId = "03246D8C-E7A1-43FC-9121-0C6BC949C0F5";
name = Bold;
paths = (
{
closed = 1;
nodes = (
"534 -10 OFFCURVE",
"674 82 OFFCURVE",
"674 254 CURVE SMOOTH",
"674 644 LINE",
"432 644 LINE",
"432 285 LINE SMOOTH",
"432 224 OFFCURVE",
"405 195 OFFCURVE",
"352 195 CURVE SMOOTH",
"299 195 OFFCURVE",
"272 224 OFFCURVE",
"272 285 CURVE SMOOTH",
"272 644 LINE",
"30 644 LINE",
"30 254 LINE SMOOTH",
"30 82 OFFCURVE",
"170 -10 OFFCURVE",
"352 -10 CURVE SMOOTH"
);
},
{
closed = 1;
nodes = (
"423 688 LINE",
"598 904 LINE",
"430 904 LINE",
"353 797 LINE",
"280 904 LINE",
"107 904 LINE",
"282 688 LINE"
);
}
);
width = 704;
}
);
leftKerningGroup = U;
note = Ucaron;
rightKerningGroup = U;
unicode = 01D3;
},
{
glyphname = Ucircumflex;
lastChange = "2015-10-23 06:06:22 +0000";
layers = (
{
layerId = "03246D8C-E7A1-43FC-9121-0C6BC949C0F5";
name = Bold;
paths = (
{
closed = 1;
nodes = (
"534 -10 OFFCURVE",
"674 82 OFFCURVE",
"674 254 CURVE SMOOTH",
"674 644 LINE",
"432 644 LINE",
"432 285 LINE SMOOTH",
"432 224 OFFCURVE",
"405 195 OFFCURVE",
"352 195 CURVE SMOOTH",
"299 195 OFFCURVE",
"272 224 OFFCURVE",
"272 285 CURVE SMOOTH",
"272 644 LINE",
"30 644 LINE",
"30 254 LINE SMOOTH",
"30 82 OFFCURVE",
"170 -10 OFFCURVE",
"352 -10 CURVE SMOOTH"
);
},
{
closed = 1;
nodes = (
"280 688 LINE",
"353 795 LINE",
"430 688 LINE",
"598 688 LINE",
"423 904 LINE",
"282 904 LINE",
"107 688 LINE"
);
}
);
width = 704;
}
);
leftKerningGroup = U;
note = Ucircumflex;
rightKerningGroup = U;
unicode = 00DB;
},
{
glyphname = Udieresis;
lastChange = "2015-10-23 06:06:23 +0000";
layers = (
{
layerId = "03246D8C-E7A1-43FC-9121-0C6BC949C0F5";
name = Bold;
paths = (
{
closed = 1;
nodes = (
"534 -10 OFFCURVE",
"674 82 OFFCURVE",
"674 254 CURVE SMOOTH",
"674 644 LINE",
"432 644 LINE",
"432 285 LINE SMOOTH",
"432 224 OFFCURVE",
"405 195 OFFCURVE",
"352 195 CURVE SMOOTH",
"299 195 OFFCURVE",
"272 224 OFFCURVE",
"272 285 CURVE SMOOTH",
"272 644 LINE",
"30 644 LINE",
"30 254 LINE SMOOTH",
"30 82 OFFCURVE",
"170 -10 OFFCURVE",
"352 -10 CURVE SMOOTH"
);
},
{
closed = 1;
nodes = (
"313 718 LINE",
"313 859 LINE",
"157 859 LINE",
"157 718 LINE"
);
},
{
closed = 1;
nodes = (
"548 718 LINE",
"548 859 LINE",
"392 859 LINE",
"392 718 LINE"
);
}
);
width = 704;
}
);
leftKerningGroup = U;
note = Udieresis;
rightKerningGroup = U;
unicode = 00DC;
},
{
glyphname = Udieresisacute;
lastChange = "2015-10-23 06:06:23 +0000";
layers = (
{
layerId = "03246D8C-E7A1-43FC-9121-0C6BC949C0F5";
name = Bold;
paths = (
{
closed = 1;
nodes = (
"534 -10 OFFCURVE",
"674 82 OFFCURVE",
"674 254 CURVE SMOOTH",
"674 644 LINE",
"432 644 LINE",
"432 285 LINE SMOOTH",
"432 224 OFFCURVE",
"405 195 OFFCURVE",
"352 195 CURVE SMOOTH",
"299 195 OFFCURVE",
"272 224 OFFCURVE",
"272 285 CURVE SMOOTH",
"272 644 LINE",
"30 644 LINE",
"30 254 LINE SMOOTH",
"30 82 OFFCURVE",
"170 -10 OFFCURVE",
"352 -10 CURVE SMOOTH"
);
},
{
closed = 1;
nodes = (
"314 698 LINE",
"314 831 LINE",
"162 831 LINE",
"162 698 LINE"
);
},
{
closed = 1;
nodes = (
"543 698 LINE",
"543 831 LINE",
"391 831 LINE",
"391 698 LINE"
);
},
{
closed = 1;
nodes = (
"428 862 LINE",
"502 1007 LINE",
"324 1007 LINE",
"268 862 LINE"
);
}
);
width = 704;
}
);
leftKerningGroup = U;
note = Udieresisacute;
rightKerningGroup = U;
unicode = 01D7;
},
{
glyphname = Udieresiscaron;
lastChange = "2015-10-23 06:06:22 +0000";
layers = (
{
layerId = "03246D8C-E7A1-43FC-9121-0C6BC949C0F5";
name = Bold;
paths = (
{
closed = 1;
nodes = (
"534 -10 OFFCURVE",
"674 82 OFFCURVE",
"674 254 CURVE SMOOTH",
"674 644 LINE",
"432 644 LINE",
"432 285 LINE SMOOTH",
"432 224 OFFCURVE",
"405 195 OFFCURVE",
"352 195 CURVE SMOOTH",
"299 195 OFFCURVE",
"272 224 OFFCURVE",
"272 285 CURVE SMOOTH",
"272 644 LINE",
"30 644 LINE",
"30 254 LINE SMOOTH",
"30 82 OFFCURVE",
"170 -10 OFFCURVE",
"352 -10 CURVE SMOOTH"
);
},
{
closed = 1;
nodes = (
"309 698 LINE",
"309 831 LINE",
"157 831 LINE",
"157 698 LINE"
);
},
{
closed = 1;
nodes = (
"538 698 LINE",
"538 831 LINE",
"386 831 LINE",
"386 698 LINE"
);
},
{
closed = 1;
nodes = (
"435 862 LINE",
"584 1007 LINE",
"411 1007 LINE",
"353 934 LINE",
"297 1007 LINE",
"121 1007 LINE",
"270 862 LINE"
);
}
);
width = 704;
}
);
leftKerningGroup = U;
note = Udieresiscaron;
rightKerningGroup = U;
unicode = 01D9;
},
{
glyphname = Udieresisgrave;
lastChange = "2015-10-23 06:06:22 +0000";
layers = (
{
layerId = "03246D8C-E7A1-43FC-9121-0C6BC949C0F5";
name = Bold;
paths = (
{
closed = 1;
nodes = (
"534 -10 OFFCURVE",
"674 82 OFFCURVE",
"674 254 CURVE SMOOTH",
"674 644 LINE",
"432 644 LINE",
"432 285 LINE SMOOTH",
"432 224 OFFCURVE",
"405 195 OFFCURVE",
"352 195 CURVE SMOOTH",
"299 195 OFFCURVE",
"272 224 OFFCURVE",
"272 285 CURVE SMOOTH",
"272 644 LINE",
"30 644 LINE",
"30 254 LINE SMOOTH",
"30 82 OFFCURVE",
"170 -10 OFFCURVE",
"352 -10 CURVE SMOOTH"
);
},
{
closed = 1;
nodes = (
"314 733 LINE",
"314 866 LINE",
"162 866 LINE",
"162 733 LINE"
);
},
{
closed = 1;
nodes = (
"543 733 LINE",
"543 866 LINE",
"391 866 LINE",
"391 733 LINE"
);
},
{
closed = 1;
nodes = (
"437 897 LINE",
"381 1042 LINE",
"203 1042 LINE",
"277 897 LINE"
);
}
);
width = 704;
}
);
leftKerningGroup = U;
note = Udieresisgrave;
rightKerningGroup = U;
unicode = 01DB;
},
{
glyphname = Udieresismacron;
lastChange = "2015-10-23 06:06:22 +0000";
layers = (
{
layerId = "03246D8C-E7A1-43FC-9121-0C6BC949C0F5";
name = Bold;
paths = (
{
closed = 1;
nodes = (
"534 -10 OFFCURVE",
"674 82 OFFCURVE",
"674 254 CURVE SMOOTH",
"674 644 LINE",
"432 644 LINE",
"432 285 LINE SMOOTH",
"432 224 OFFCURVE",
"405 195 OFFCURVE",
"352 195 CURVE SMOOTH",
"299 195 OFFCURVE",
"272 224 OFFCURVE",
"272 285 CURVE SMOOTH",
"272 644 LINE",
"30 644 LINE",
"30 254 LINE SMOOTH",
"30 82 OFFCURVE",
"170 -10 OFFCURVE",
"352 -10 CURVE SMOOTH"
);
},
{
closed = 1;
nodes = (
"313 697 LINE",
"313 838 LINE",
"157 838 LINE",
"157 697 LINE"
);
},
{
closed = 1;
nodes = (
"548 697 LINE",
"548 838 LINE",
"392 838 LINE",
"392 697 LINE"
);
},
{
closed = 1;
nodes = (
"527 888 LINE",
"527 1028 LINE",
"178 1028 LINE",
"178 888 LINE"
);
}
);
width = 704;
}
);
leftKerningGroup = U;
note = Udieresismacron;
rightKerningGroup = U;
unicode = 01D5;
},
{
glyphname = Udotbelow;
lastChange = "2015-10-23 06:06:22 +0000";
layers = (
{
layerId = "03246D8C-E7A1-43FC-9121-0C6BC949C0F5";
name = Bold;
paths = (
{
closed = 1;
nodes = (
"534 -10 OFFCURVE",
"674 82 OFFCURVE",
"674 254 CURVE SMOOTH",
"674 644 LINE",
"432 644 LINE",
"432 285 LINE SMOOTH",
"432 224 OFFCURVE",
"405 195 OFFCURVE",
"352 195 CURVE SMOOTH",
"299 195 OFFCURVE",
"272 224 OFFCURVE",
"272 285 CURVE SMOOTH",
"272 644 LINE",
"30 644 LINE",
"30 254 LINE SMOOTH",
"30 82 OFFCURVE",
"170 -10 OFFCURVE",
"352 -10 CURVE SMOOTH"
);
},
{
closed = 1;
nodes = (
"430 -213 LINE",
"430 -72 LINE",
"274 -72 LINE",
"274 -213 LINE"
);
}
);
width = 704;
}
);
leftKerningGroup = U;
note = Udotbelow;
rightKerningGroup = U;
unicode = 1EE4;
},
{
glyphname = Ugrave;
lastChange = "2015-10-23 06:06:22 +0000";
layers = (
{
layerId = "03246D8C-E7A1-43FC-9121-0C6BC949C0F5";
name = Bold;
paths = (
{
closed = 1;
nodes = (
"534 -10 OFFCURVE",
"674 82 OFFCURVE",
"674 254 CURVE SMOOTH",
"674 644 LINE",
"432 644 LINE",
"432 285 LINE SMOOTH",
"432 224 OFFCURVE",
"405 195 OFFCURVE",
"352 195 CURVE SMOOTH",
"299 195 OFFCURVE",
"272 224 OFFCURVE",
"272 285 CURVE SMOOTH",
"272 644 LINE",
"30 644 LINE",
"30 254 LINE SMOOTH",
"30 82 OFFCURVE",
"170 -10 OFFCURVE",
"352 -10 CURVE SMOOTH"
);
},
{
closed = 1;
nodes = (
"441 688 LINE",
"345 914 LINE",
"159 914 LINE",
"264 688 LINE"
);
}
);
width = 704;
}
);
leftKerningGroup = U;
note = Ugrave;
rightKerningGroup = U;
unicode = 00D9;
},
{
glyphname = Uhookabove;
lastChange = "2015-10-23 06:06:22 +0000";
layers = (
{
layerId = "03246D8C-E7A1-43FC-9121-0C6BC949C0F5";
name = Bold;
paths = (
{
closed = 1;
nodes = (
"534 -10 OFFCURVE",
"674 82 OFFCURVE",
"674 254 CURVE SMOOTH",
"674 644 LINE",
"432 644 LINE",
"432 285 LINE SMOOTH",
"432 224 OFFCURVE",
"405 195 OFFCURVE",
"352 195 CURVE SMOOTH",
"299 195 OFFCURVE",
"272 224 OFFCURVE",
"272 285 CURVE SMOOTH",
"272 644 LINE",
"30 644 LINE",
"30 254 LINE SMOOTH",
"30 82 OFFCURVE",
"170 -10 OFFCURVE",
"352 -10 CURVE SMOOTH"
);
},
{
closed = 1;
nodes = (
"441 687 LINE",
"441 723 LINE",
"499 741 OFFCURVE",
"523 767 OFFCURVE",
"523 827 CURVE SMOOTH",
"523 887 OFFCURVE",
"469 934 OFFCURVE",
"372 934 CURVE SMOOTH",
"314 934 OFFCURVE",
"274 928 OFFCURVE",
"242 919 CURVE",
"242 825 LINE",
"257 831 OFFCURVE",
"278 835 OFFCURVE",
"298 835 CURVE SMOOTH",
"332 835 OFFCURVE",
"348 827 OFFCURVE",
"348 807 CURVE SMOOTH",
"348 787 OFFCURVE",
"328 772 OFFCURVE",
"263 768 CURVE",
"263 687 LINE"
);
}
);
width = 704;
}
);
leftKerningGroup = U;
note = Uhookabove;
rightKerningGroup = U;
unicode = 1EE6;
},
{
glyphname = Uhorn;
lastChange = "2015-10-23 06:06:20 +0000";
layers = (
{
layerId = "03246D8C-E7A1-43FC-9121-0C6BC949C0F5";
name = Bold;
paths = (
{
closed = 1;
nodes = (
"534 -10 OFFCURVE",
"674 82 OFFCURVE",
"674 254 CURVE SMOOTH",
"674 447 LINE",
"843 451 OFFCURVE",
"915 512 OFFCURVE",
"915 688 CURVE",
"746 688 LINE",
"746 627 OFFCURVE",
"732 605 OFFCURVE",
"674 601 CURVE",
"674 644 LINE",
"432 644 LINE",
"432 285 LINE SMOOTH",
"432 224 OFFCURVE",
"405 195 OFFCURVE",
"352 195 CURVE SMOOTH",
"299 195 OFFCURVE",
"272 224 OFFCURVE",
"272 285 CURVE SMOOTH",
"272 644 LINE",
"30 644 LINE",
"30 254 LINE SMOOTH",
"30 82 OFFCURVE",
"170 -10 OFFCURVE",
"352 -10 CURVE SMOOTH"
);
}
);
width = 910;
}
);
leftKerningGroup = U;
note = Uhorn;
rightKerningGroup = U;
unicode = 01AF;
},
{
glyphname = Uhornacute;
lastChange = "2015-10-23 06:06:22 +0000";
layers = (
{
layerId = "03246D8C-E7A1-43FC-9121-0C6BC949C0F5";
name = Bold;
paths = (
{
closed = 1;
nodes = (
"534 -10 OFFCURVE",
"674 82 OFFCURVE",
"674 254 CURVE SMOOTH",
"674 447 LINE",
"843 451 OFFCURVE",
"915 512 OFFCURVE",
"915 688 CURVE",
"746 688 LINE",
"746 627 OFFCURVE",
"732 605 OFFCURVE",
"674 601 CURVE",
"674 644 LINE",
"432 644 LINE",
"432 285 LINE SMOOTH",
"432 224 OFFCURVE",
"405 195 OFFCURVE",
"352 195 CURVE SMOOTH",
"299 195 OFFCURVE",
"272 224 OFFCURVE",
"272 285 CURVE SMOOTH",
"272 644 LINE",
"30 644 LINE",
"30 254 LINE SMOOTH",
"30 82 OFFCURVE",
"170 -10 OFFCURVE",
"352 -10 CURVE SMOOTH"
);
},
{
closed = 1;
nodes = (
"443 688 LINE",
"548 914 LINE",
"362 914 LINE",
"266 688 LINE"
);
}
);
width = 910;
}
);
leftKerningGroup = U;
note = Uhornacute;
rightKerningGroup = U;
unicode = 1EE8;
},
{
glyphname = Uhorndotbelow;
lastChange = "2015-10-23 06:06:23 +0000";
layers = (
{
layerId = "03246D8C-E7A1-43FC-9121-0C6BC949C0F5";
name = Bold;
paths = (
{
closed = 1;
nodes = (
"534 -10 OFFCURVE",
"674 82 OFFCURVE",
"674 254 CURVE SMOOTH",
"674 447 LINE",
"843 451 OFFCURVE",
"915 512 OFFCURVE",
"915 688 CURVE",
"746 688 LINE",
"746 627 OFFCURVE",
"732 605 OFFCURVE",
"674 601 CURVE",
"674 644 LINE",
"432 644 LINE",
"432 285 LINE SMOOTH",
"432 224 OFFCURVE",
"405 195 OFFCURVE",
"352 195 CURVE SMOOTH",
"299 195 OFFCURVE",
"272 224 OFFCURVE",
"272 285 CURVE SMOOTH",
"272 644 LINE",
"30 644 LINE",
"30 254 LINE SMOOTH",
"30 82 OFFCURVE",
"170 -10 OFFCURVE",
"352 -10 CURVE SMOOTH"
);
},
{
closed = 1;
nodes = (
"432 -213 LINE",
"432 -72 LINE",
"276 -72 LINE",
"276 -213 LINE"
);
}
);
width = 910;
}
);
leftKerningGroup = U;
note = Uhorndotbelow;
rightKerningGroup = U;
unicode = 1EF0;
},
{
glyphname = Uhorngrave;
lastChange = "2015-10-23 06:06:22 +0000";
layers = (
{
layerId = "03246D8C-E7A1-43FC-9121-0C6BC949C0F5";
name = Bold;
paths = (
{
closed = 1;
nodes = (
"534 -10 OFFCURVE",
"674 82 OFFCURVE",
"674 254 CURVE SMOOTH",
"674 447 LINE",
"843 451 OFFCURVE",
"915 512 OFFCURVE",
"915 688 CURVE",
"746 688 LINE",
"746 627 OFFCURVE",
"732 605 OFFCURVE",
"674 601 CURVE",
"674 644 LINE",
"432 644 LINE",
"432 285 LINE SMOOTH",
"432 224 OFFCURVE",
"405 195 OFFCURVE",
"352 195 CURVE SMOOTH",
"299 195 OFFCURVE",
"272 224 OFFCURVE",
"272 285 CURVE SMOOTH",
"272 644 LINE",
"30 644 LINE",
"30 254 LINE SMOOTH",
"30 82 OFFCURVE",
"170 -10 OFFCURVE",
"352 -10 CURVE SMOOTH"
);
},
{
closed = 1;
nodes = (
"449 688 LINE",
"353 914 LINE",
"167 914 LINE",
"272 688 LINE"
);
}
);
width = 910;
}
);
leftKerningGroup = U;
note = Uhorngrave;
rightKerningGroup = U;
unicode = 1EEA;
},
{
glyphname = Uhornhookabove;
lastChange = "2015-10-23 06:06:22 +0000";
layers = (
{
layerId = "03246D8C-E7A1-43FC-9121-0C6BC949C0F5";
name = Bold;
paths = (
{
closed = 1;
nodes = (
"534 -10 OFFCURVE",
"674 82 OFFCURVE",
"674 254 CURVE SMOOTH",
"674 447 LINE",
"843 451 OFFCURVE",
"915 512 OFFCURVE",
"915 688 CURVE",
"746 688 LINE",
"746 627 OFFCURVE",
"732 605 OFFCURVE",
"674 601 CURVE",
"674 644 LINE",
"432 644 LINE",
"432 285 LINE SMOOTH",
"432 224 OFFCURVE",
"405 195 OFFCURVE",
"352 195 CURVE SMOOTH",
"299 195 OFFCURVE",
"272 224 OFFCURVE",
"272 285 CURVE SMOOTH",
"272 644 LINE",
"30 644 LINE",
"30 254 LINE SMOOTH",
"30 82 OFFCURVE",
"170 -10 OFFCURVE",
"352 -10 CURVE SMOOTH"
);
},
{
closed = 1;
nodes = (
"443 688 LINE",
"443 724 LINE",
"501 742 OFFCURVE",
"525 768 OFFCURVE",
"525 828 CURVE SMOOTH",
"525 888 OFFCURVE",
"471 935 OFFCURVE",
"374 935 CURVE SMOOTH",
"316 935 OFFCURVE",
"276 929 OFFCURVE",
"244 920 CURVE",
"244 826 LINE",
"259 832 OFFCURVE",
"280 836 OFFCURVE",
"300 836 CURVE SMOOTH",
"334 836 OFFCURVE",
"350 828 OFFCURVE",
"350 808 CURVE SMOOTH",
"350 788 OFFCURVE",
"330 773 OFFCURVE",
"265 769 CURVE",
"265 688 LINE"
);
}
);
width = 910;
}
);
leftKerningGroup = U;
note = Uhornhookabove;
rightKerningGroup = U;
unicode = 1EEC;
},
{
glyphname = Uhorntilde;
lastChange = "2015-10-23 06:06:23 +0000";
layers = (
{
layerId = "03246D8C-E7A1-43FC-9121-0C6BC949C0F5";
name = Bold;
paths = (
{
closed = 1;
nodes = (
"534 -10 OFFCURVE",
"674 82 OFFCURVE",
"674 254 CURVE SMOOTH",
"674 447 LINE",
"843 451 OFFCURVE",
"915 512 OFFCURVE",
"915 688 CURVE",
"746 688 LINE",
"746 627 OFFCURVE",
"732 605 OFFCURVE",
"674 601 CURVE",
"674 644 LINE",
"432 644 LINE",
"432 285 LINE SMOOTH",
"432 224 OFFCURVE",
"405 195 OFFCURVE",
"352 195 CURVE SMOOTH",
"299 195 OFFCURVE",
"272 224 OFFCURVE",
"272 285 CURVE SMOOTH",
"272 644 LINE",
"30 644 LINE",
"30 254 LINE SMOOTH",
"30 82 OFFCURVE",
"170 -10 OFFCURVE",
"352 -10 CURVE SMOOTH"
);
},
{
closed = 1;
nodes = (
"505 688 OFFCURVE",
"545 705 OFFCURVE",
"558 723 CURVE",
"558 864 LINE",
"542 842 OFFCURVE",
"506 823 OFFCURVE",
"460 823 CURVE SMOOTH",
"391 823 OFFCURVE",
"332 867 OFFCURVE",
"259 867 CURVE SMOOTH",
"217 867 OFFCURVE",
"177 850 OFFCURVE",
"157 832 CURVE",
"157 691 LINE",
"181 715 OFFCURVE",
"216 732 OFFCURVE",
"262 732 CURVE SMOOTH",
"323 732 OFFCURVE",
"391 688 OFFCURVE",
"463 688 CURVE SMOOTH"
);
}
);
width = 910;
}
);
leftKerningGroup = U;
note = Uhorntilde;
rightKerningGroup = U;
unicode = 1EEE;
},
{
glyphname = Uhungarumlaut;
lastChange = "2015-10-23 06:06:22 +0000";
layers = (
{
layerId = "03246D8C-E7A1-43FC-9121-0C6BC949C0F5";
name = Bold;
paths = (
{
closed = 1;
nodes = (
"534 -10 OFFCURVE",
"674 82 OFFCURVE",
"674 254 CURVE SMOOTH",
"674 644 LINE",
"432 644 LINE",
"432 285 LINE SMOOTH",
"432 224 OFFCURVE",
"405 195 OFFCURVE",
"352 195 CURVE SMOOTH",
"299 195 OFFCURVE",
"272 224 OFFCURVE",
"272 285 CURVE SMOOTH",
"272 644 LINE",
"30 644 LINE",
"30 254 LINE SMOOTH",
"30 82 OFFCURVE",
"170 -10 OFFCURVE",
"352 -10 CURVE SMOOTH"
);
},
{
closed = 1;
nodes = (
"297 688 LINE",
"411 891 LINE",
"205 891 LINE",
"110 688 LINE"
);
},
{
closed = 1;
nodes = (
"567 688 LINE",
"681 891 LINE",
"475 891 LINE",
"380 688 LINE"
);
}
);
width = 704;
}
);
leftKerningGroup = U;
note = Uhungarumlaut;
rightKerningGroup = U;
unicode = 0170;
},
{
glyphname = Umacron;
lastChange = "2015-10-23 06:06:22 +0000";
layers = (
{
layerId = "03246D8C-E7A1-43FC-9121-0C6BC949C0F5";
name = Bold;
paths = (
{
closed = 1;
nodes = (
"534 -10 OFFCURVE",
"674 82 OFFCURVE",
"674 254 CURVE SMOOTH",
"674 644 LINE",
"432 644 LINE",
"432 285 LINE SMOOTH",
"432 224 OFFCURVE",
"405 195 OFFCURVE",
"352 195 CURVE SMOOTH",
"299 195 OFFCURVE",
"272 224 OFFCURVE",
"272 285 CURVE SMOOTH",
"272 644 LINE",
"30 644 LINE",
"30 254 LINE SMOOTH",
"30 82 OFFCURVE",
"170 -10 OFFCURVE",
"352 -10 CURVE SMOOTH"
);
},
{
closed = 1;
nodes = (
"527 728 LINE",
"527 868 LINE",
"178 868 LINE",
"178 728 LINE"
);
}
);
width = 704;
}
);
leftKerningGroup = U;
note = Umacron;
rightKerningGroup = U;
unicode = 016A;
},
{
glyphname = Uogonek;
lastChange = "2015-10-23 06:06:22 +0000";
layers = (
{
layerId = "03246D8C-E7A1-43FC-9121-0C6BC949C0F5";
name = Bold;
paths = (
{
closed = 1;
nodes = (
"534 -10 OFFCURVE",
"674 82 OFFCURVE",
"674 254 CURVE SMOOTH",
"674 644 LINE",
"432 644 LINE",
"432 285 LINE SMOOTH",
"432 224 OFFCURVE",
"405 195 OFFCURVE",
"352 195 CURVE SMOOTH",
"299 195 OFFCURVE",
"272 224 OFFCURVE",
"272 285 CURVE SMOOTH",
"272 644 LINE",
"30 644 LINE",
"30 254 LINE SMOOTH",
"30 82 OFFCURVE",
"170 -10 OFFCURVE",
"352 -10 CURVE SMOOTH"
);
},
{
closed = 1;
nodes = (
"413 -220 OFFCURVE",
"460 -210 OFFCURVE",
"483 -202 CURVE",
"483 -96 LINE",
"471 -103 OFFCURVE",
"449 -107 OFFCURVE",
"432 -107 CURVE SMOOTH",
"402 -107 OFFCURVE",
"385 -101 OFFCURVE",
"385 -76 CURVE SMOOTH",
"385 -47 OFFCURVE",
"406 -21 OFFCURVE",
"434 0 CURVE",
"290 0 LINE",
"249 -23 OFFCURVE",
"215 -64 OFFCURVE",
"215 -116 CURVE SMOOTH",
"215 -188 OFFCURVE",
"272 -220 OFFCURVE",
"363 -220 CURVE SMOOTH"
);
}
);
width = 704;
}
);
leftKerningGroup = U;
note = Uogonek;
rightKerningGroup = U;
unicode = 0172;
},
{
glyphname = Uring;
lastChange = "2015-10-23 06:06:22 +0000";
layers = (
{
layerId = "03246D8C-E7A1-43FC-9121-0C6BC949C0F5";
name = Bold;
paths = (
{
closed = 1;
nodes = (
"534 -10 OFFCURVE",
"674 82 OFFCURVE",
"674 254 CURVE SMOOTH",
"674 644 LINE",
"432 644 LINE",
"432 285 LINE SMOOTH",
"432 224 OFFCURVE",
"405 195 OFFCURVE",
"352 195 CURVE SMOOTH",
"299 195 OFFCURVE",
"272 224 OFFCURVE",
"272 285 CURVE SMOOTH",
"272 644 LINE",
"30 644 LINE",
"30 254 LINE SMOOTH",
"30 82 OFFCURVE",
"170 -10 OFFCURVE",
"352 -10 CURVE SMOOTH"
);
},
{
closed = 1;
nodes = (
"453 688 OFFCURVE",
"506 751 OFFCURVE",
"506 831 CURVE SMOOTH",
"506 912 OFFCURVE",
"453 975 OFFCURVE",
"352 975 CURVE SMOOTH",
"252 975 OFFCURVE",
"199 912 OFFCURVE",
"199 831 CURVE SMOOTH",
"199 751 OFFCURVE",
"252 688 OFFCURVE",
"352 688 CURVE SMOOTH"
);
},
{
closed = 1;
nodes = (
"315 780 OFFCURVE",
"298 804 OFFCURVE",
"298 831 CURVE SMOOTH",
"298 858 OFFCURVE",
"315 882 OFFCURVE",
"352 882 CURVE SMOOTH",
"389 882 OFFCURVE",
"406 858 OFFCURVE",
"406 831 CURVE SMOOTH",
"406 804 OFFCURVE",
"389 780 OFFCURVE",
"352 780 CURVE SMOOTH"
);
}
);
width = 704;
}
);
leftKerningGroup = U;
note = Uring;
rightKerningGroup = U;
unicode = 016E;
},
{
glyphname = Utilde;
lastChange = "2015-10-23 06:06:22 +0000";
layers = (
{
layerId = "03246D8C-E7A1-43FC-9121-0C6BC949C0F5";
name = Bold;
paths = (
{
closed = 1;
nodes = (
"534 -10 OFFCURVE",
"674 82 OFFCURVE",
"674 254 CURVE SMOOTH",
"674 644 LINE",
"432 644 LINE",
"432 285 LINE SMOOTH",
"432 224 OFFCURVE",
"405 195 OFFCURVE",
"352 195 CURVE SMOOTH",
"299 195 OFFCURVE",
"272 224 OFFCURVE",
"272 285 CURVE SMOOTH",
"272 644 LINE",
"30 644 LINE",
"30 254 LINE SMOOTH",
"30 82 OFFCURVE",
"170 -10 OFFCURVE",
"352 -10 CURVE SMOOTH"
);
},
{
closed = 1;
nodes = (
"500 693 OFFCURVE",
"540 710 OFFCURVE",
"553 728 CURVE",
"553 869 LINE",
"537 847 OFFCURVE",
"501 828 OFFCURVE",
"455 828 CURVE SMOOTH",
"386 828 OFFCURVE",
"327 872 OFFCURVE",
"254 872 CURVE SMOOTH",
"212 872 OFFCURVE",
"172 855 OFFCURVE",
"152 837 CURVE",
"152 696 LINE",
"176 720 OFFCURVE",
"211 737 OFFCURVE",
"257 737 CURVE SMOOTH",
"318 737 OFFCURVE",
"386 693 OFFCURVE",
"458 693 CURVE SMOOTH"
);
}
);
width = 704;
}
);
leftKerningGroup = U;
note = Utilde;
rightKerningGroup = U;
unicode = 0168;
},
{
glyphname = V;
lastChange = "2015-10-23 06:06:20 +0000";
layers = (
{
layerId = "03246D8C-E7A1-43FC-9121-0C6BC949C0F5";
name = Bold;
paths = (
{
closed = 1;
nodes = (
"514 0 LINE",
"762 644 LINE",
"510 644 LINE",
"388 286 LINE",
"267 644 LINE",
"15 644 LINE",
"263 0 LINE"
);
}
);
width = 777;
}
);
note = V;
unicode = 0056;
},
{
glyphname = W;
lastChange = "2015-10-23 06:06:20 +0000";
layers = (
{
layerId = "03246D8C-E7A1-43FC-9121-0C6BC949C0F5";
name = Bold;
paths = (
{
closed = 1;
nodes = (
"376 0 LINE",
"459 254 LINE",
"536 0 LINE",
"747 0 LINE",
"896 644 LINE",
"661 644 LINE",
"606 397 LINE",
"534 644 LINE",
"337 644 LINE",
"337 535 LINE",
"300 398 LINE",
"251 644 LINE",
"15 644 LINE",
"165 0 LINE"
);
}
);
width = 911;
}
);
leftKerningGroup = W;
note = W;
rightKerningGroup = W;
unicode = 0057;
},
{
glyphname = Wacute;
lastChange = "2015-10-23 06:06:22 +0000";
layers = (
{
layerId = "03246D8C-E7A1-43FC-9121-0C6BC949C0F5";
name = Bold;
paths = (
{
closed = 1;
nodes = (
"376 0 LINE",
"459 254 LINE",
"536 0 LINE",
"747 0 LINE",
"896 644 LINE",
"661 644 LINE",
"606 397 LINE",
"534 644 LINE",
"337 644 LINE",
"337 535 LINE",
"300 398 LINE",
"251 644 LINE",
"15 644 LINE",
"165 0 LINE"
);
},
{
closed = 1;
nodes = (
"519 688 LINE",
"624 914 LINE",
"438 914 LINE",
"342 688 LINE"
);
}
);
width = 911;
}
);
leftKerningGroup = W;
note = Wacute;
rightKerningGroup = W;
unicode = 1E82;
},
{
glyphname = Wcircumflex;
lastChange = "2015-10-23 06:06:22 +0000";
layers = (
{
layerId = "03246D8C-E7A1-43FC-9121-0C6BC949C0F5";
name = Bold;
paths = (
{
closed = 1;
nodes = (
"376 0 LINE",
"459 254 LINE",
"536 0 LINE",
"747 0 LINE",
"896 644 LINE",
"661 644 LINE",
"606 397 LINE",
"534 644 LINE",
"337 644 LINE",
"337 535 LINE",
"300 398 LINE",
"251 644 LINE",
"15 644 LINE",
"165 0 LINE"
);
},
{
closed = 1;
nodes = (
"387 688 LINE",
"460 795 LINE",
"537 688 LINE",
"705 688 LINE",
"530 904 LINE",
"389 904 LINE",
"214 688 LINE"
);
}
);
width = 911;
}
);
leftKerningGroup = W;
note = Wcircumflex;
rightKerningGroup = W;
unicode = 0174;
},
{
glyphname = Wdieresis;
lastChange = "2015-10-23 06:06:22 +0000";
layers = (
{
layerId = "03246D8C-E7A1-43FC-9121-0C6BC949C0F5";
name = Bold;
paths = (
{
closed = 1;
nodes = (
"376 0 LINE",
"459 254 LINE",
"536 0 LINE",
"747 0 LINE",
"896 644 LINE",
"661 644 LINE",
"606 397 LINE",
"534 644 LINE",
"337 644 LINE",
"337 535 LINE",
"300 398 LINE",
"251 644 LINE",
"15 644 LINE",
"165 0 LINE"
);
},
{
closed = 1;
nodes = (
"420 718 LINE",
"420 859 LINE",
"264 859 LINE",
"264 718 LINE"
);
},
{
closed = 1;
nodes = (
"655 718 LINE",
"655 859 LINE",
"499 859 LINE",
"499 718 LINE"
);
}
);
width = 911;
}
);
leftKerningGroup = W;
note = Wdieresis;
rightKerningGroup = W;
unicode = 1E84;
},
{
glyphname = Wgrave;
lastChange = "2015-10-23 06:06:22 +0000";
layers = (
{
layerId = "03246D8C-E7A1-43FC-9121-0C6BC949C0F5";
name = Bold;
paths = (
{
closed = 1;
nodes = (
"376 0 LINE",
"459 254 LINE",
"536 0 LINE",
"747 0 LINE",
"896 644 LINE",
"661 644 LINE",
"606 397 LINE",
"534 644 LINE",
"337 644 LINE",
"337 535 LINE",
"300 398 LINE",
"251 644 LINE",
"15 644 LINE",
"165 0 LINE"
);
},
{
closed = 1;
nodes = (
"532 688 LINE",
"436 914 LINE",
"250 914 LINE",
"355 688 LINE"
);
}
);
width = 911;
}
);
leftKerningGroup = W;
note = Wgrave;
rightKerningGroup = W;
unicode = 1E80;
},
{
glyphname = X;
lastChange = "2015-10-23 06:06:20 +0000";
layers = (
{
layerId = "03246D8C-E7A1-43FC-9121-0C6BC949C0F5";
name = Bold;
paths = (
{
closed = 1;
nodes = (
"308 0 LINE",
"404 131 LINE",
"501 0 LINE",
"794 0 LINE",
"550 329 LINE",
"782 644 LINE",
"493 644 LINE",
"404 525 LINE",
"316 644 LINE",
"27 644 LINE",
"259 329 LINE",
"15 0 LINE"
);
}
);
width = 809;
}
);
note = X;
unicode = 0058;
},
{
glyphname = Y;
lastChange = "2015-10-23 06:06:20 +0000";
layers = (
{
layerId = "03246D8C-E7A1-43FC-9121-0C6BC949C0F5";
name = Bold;
paths = (
{
closed = 1;
nodes = (
"490 0 LINE",
"490 234 LINE",
"723 644 LINE",
"471 644 LINE",
"369 439 LINE",
"267 644 LINE",
"15 644 LINE",
"248 234 LINE",
"248 0 LINE"
);
}
);
width = 738;
}
);
leftKerningGroup = Y;
note = Y;
rightKerningGroup = Y;
unicode = 0059;
},
{
glyphname = Yacute;
lastChange = "2015-10-23 06:06:22 +0000";
layers = (
{
layerId = "03246D8C-E7A1-43FC-9121-0C6BC949C0F5";
name = Bold;
paths = (
{
closed = 1;
nodes = (
"490 0 LINE",
"490 234 LINE",
"723 644 LINE",
"471 644 LINE",
"369 439 LINE",
"267 644 LINE",
"15 644 LINE",
"248 234 LINE",
"248 0 LINE"
);
},
{
closed = 1;
nodes = (
"457 688 LINE",
"562 914 LINE",
"376 914 LINE",
"280 688 LINE"
);
}
);
width = 738;
}
);
leftKerningGroup = Y;
note = Yacute;
rightKerningGroup = Y;
unicode = 00DD;
},
{
glyphname = Ycircumflex;
lastChange = "2015-10-23 06:06:22 +0000";
layers = (
{
layerId = "03246D8C-E7A1-43FC-9121-0C6BC949C0F5";
name = Bold;
paths = (
{
closed = 1;
nodes = (
"490 0 LINE",
"490 234 LINE",
"723 644 LINE",
"471 644 LINE",
"369 439 LINE",
"267 644 LINE",
"15 644 LINE",
"248 234 LINE",
"248 0 LINE"
);
},
{
closed = 1;
nodes = (
"297 688 LINE",
"370 795 LINE",
"447 688 LINE",
"615 688 LINE",
"440 904 LINE",
"299 904 LINE",
"124 688 LINE"
);
}
);
width = 738;
}
);
leftKerningGroup = Y;
note = Ycircumflex;
rightKerningGroup = Y;
unicode = 0176;
},
{
glyphname = Ydieresis;
lastChange = "2015-10-23 06:06:22 +0000";
layers = (
{
layerId = "03246D8C-E7A1-43FC-9121-0C6BC949C0F5";
name = Bold;
paths = (
{
closed = 1;
nodes = (
"490 0 LINE",
"490 234 LINE",
"723 644 LINE",
"471 644 LINE",
"369 439 LINE",
"267 644 LINE",
"15 644 LINE",
"248 234 LINE",
"248 0 LINE"
);
},
{
closed = 1;
nodes = (
"330 718 LINE",
"330 859 LINE",
"174 859 LINE",
"174 718 LINE"
);
},
{
closed = 1;
nodes = (
"565 718 LINE",
"565 859 LINE",
"409 859 LINE",
"409 718 LINE"
);
}
);
width = 738;
}
);
leftKerningGroup = Y;
note = Ydieresis;
rightKerningGroup = Y;
unicode = 0178;
},
{
glyphname = Ydotaccent;
lastChange = "2015-10-23 06:06:22 +0000";
layers = (
{
layerId = "03246D8C-E7A1-43FC-9121-0C6BC949C0F5";
name = Bold;
paths = (
{
closed = 1;
nodes = (
"490 0 LINE",
"490 234 LINE",
"723 644 LINE",
"471 644 LINE",
"369 439 LINE",
"267 644 LINE",
"15 644 LINE",
"248 234 LINE",
"248 0 LINE"
);
},
{
closed = 1;
nodes = (
"447 718 LINE",
"447 859 LINE",
"291 859 LINE",
"291 718 LINE"
);
}
);
width = 738;
}
);
leftKerningGroup = Y;
note = Ydotaccent;
rightKerningGroup = Y;
unicode = 1E8E;
},
{
glyphname = Ydotbelow;
lastChange = "2015-10-23 06:06:22 +0000";
layers = (
{
layerId = "03246D8C-E7A1-43FC-9121-0C6BC949C0F5";
name = Bold;
paths = (
{
closed = 1;
nodes = (
"490 0 LINE",
"490 234 LINE",
"723 644 LINE",
"471 644 LINE",
"369 439 LINE",
"267 644 LINE",
"15 644 LINE",
"248 234 LINE",
"248 0 LINE"
);
},
{
closed = 1;
nodes = (
"447 -213 LINE",
"447 -72 LINE",
"291 -72 LINE",
"291 -213 LINE"
);
}
);
width = 738;
}
);
leftKerningGroup = Y;
note = Ydotbelow;
rightKerningGroup = Y;
unicode = 1EF4;
},
{
glyphname = Ygrave;
lastChange = "2015-10-23 06:06:22 +0000";
layers = (
{
layerId = "03246D8C-E7A1-43FC-9121-0C6BC949C0F5";
name = Bold;
paths = (
{
closed = 1;
nodes = (
"490 0 LINE",
"490 234 LINE",
"723 644 LINE",
"471 644 LINE",
"369 439 LINE",
"267 644 LINE",
"15 644 LINE",
"248 234 LINE",
"248 0 LINE"
);
},
{
closed = 1;
nodes = (
"461 688 LINE",
"365 914 LINE",
"179 914 LINE",
"284 688 LINE"
);
}
);
width = 738;
}
);
leftKerningGroup = Y;
note = Ygrave;
rightKerningGroup = Y;
unicode = 1EF2;
},
{
glyphname = Yhookabove;
lastChange = "2015-10-23 06:06:22 +0000";
layers = (
{
layerId = "03246D8C-E7A1-43FC-9121-0C6BC949C0F5";
name = Bold;
paths = (
{
closed = 1;
nodes = (
"490 0 LINE",
"490 234 LINE",
"723 644 LINE",
"471 644 LINE",
"369 439 LINE",
"267 644 LINE",
"15 644 LINE",
"248 234 LINE",
"248 0 LINE"
);
},
{
closed = 1;
nodes = (
"460 687 LINE",
"460 723 LINE",
"518 741 OFFCURVE",
"542 767 OFFCURVE",
"542 827 CURVE SMOOTH",
"542 887 OFFCURVE",
"488 934 OFFCURVE",
"391 934 CURVE SMOOTH",
"333 934 OFFCURVE",
"293 928 OFFCURVE",
"261 919 CURVE",
"261 825 LINE",
"276 831 OFFCURVE",
"297 835 OFFCURVE",
"317 835 CURVE SMOOTH",
"351 835 OFFCURVE",
"367 827 OFFCURVE",
"367 807 CURVE SMOOTH",
"367 787 OFFCURVE",
"347 772 OFFCURVE",
"282 768 CURVE",
"282 687 LINE"
);
}
);
width = 738;
}
);
leftKerningGroup = Y;
note = Yhookabove;
rightKerningGroup = Y;
unicode = 1EF6;
},
{
glyphname = Ytilde;
lastChange = "2015-10-23 06:06:22 +0000";
layers = (
{
layerId = "03246D8C-E7A1-43FC-9121-0C6BC949C0F5";
name = Bold;
paths = (
{
closed = 1;
nodes = (
"490 0 LINE",
"490 234 LINE",
"723 644 LINE",
"471 644 LINE",
"369 439 LINE",
"267 644 LINE",
"15 644 LINE",
"248 234 LINE",
"248 0 LINE"
);
},
{
closed = 1;
nodes = (
"517 693 OFFCURVE",
"557 710 OFFCURVE",
"570 728 CURVE",
"570 869 LINE",
"554 847 OFFCURVE",
"518 828 OFFCURVE",
"472 828 CURVE SMOOTH",
"403 828 OFFCURVE",
"344 872 OFFCURVE",
"271 872 CURVE SMOOTH",
"229 872 OFFCURVE",
"189 855 OFFCURVE",
"169 837 CURVE",
"169 696 LINE",
"193 720 OFFCURVE",
"228 737 OFFCURVE",
"274 737 CURVE SMOOTH",
"335 737 OFFCURVE",
"403 693 OFFCURVE",
"475 693 CURVE SMOOTH"
);
}
);
width = 738;
}
);
leftKerningGroup = Y;
note = Ytilde;
rightKerningGroup = Y;
unicode = 1EF8;
},
{
glyphname = Z;
lastChange = "2015-10-23 06:06:20 +0000";
layers = (
{
layerId = "03246D8C-E7A1-43FC-9121-0C6BC949C0F5";
name = Bold;
paths = (
{
closed = 1;
nodes = (
"576 0 LINE",
"576 184 LINE",
"337 184 LINE",
"570 507 LINE",
"570 644 LINE",
"29 644 LINE",
"29 446 LINE",
"251 446 LINE",
"15 119 LINE",
"15 0 LINE"
);
}
);
width = 586;
}
);
leftKerningGroup = Z;
note = Z;
rightKerningGroup = Z;
unicode = 005A;
},
{
glyphname = Zacute;
lastChange = "2015-10-23 06:06:23 +0000";
layers = (
{
layerId = "03246D8C-E7A1-43FC-9121-0C6BC949C0F5";
name = Bold;
paths = (
{
closed = 1;
nodes = (
"576 0 LINE",
"576 184 LINE",
"337 184 LINE",
"570 507 LINE",
"570 644 LINE",
"29 644 LINE",
"29 446 LINE",
"251 446 LINE",
"15 119 LINE",
"15 0 LINE"
);
},
{
closed = 1;
nodes = (
"369 688 LINE",
"474 914 LINE",
"288 914 LINE",
"192 688 LINE"
);
}
);
width = 586;
}
);
leftKerningGroup = Z;
note = Zacute;
rightKerningGroup = Z;
unicode = 0179;
},
{
glyphname = Zcaron;
lastChange = "2015-10-23 06:06:22 +0000";
layers = (
{
layerId = "03246D8C-E7A1-43FC-9121-0C6BC949C0F5";
name = Bold;
paths = (
{
closed = 1;
nodes = (
"576 0 LINE",
"576 184 LINE",
"337 184 LINE",
"570 507 LINE",
"570 644 LINE",
"29 644 LINE",
"29 446 LINE",
"251 446 LINE",
"15 119 LINE",
"15 0 LINE"
);
},
{
closed = 1;
nodes = (
"384 688 LINE",
"559 904 LINE",
"391 904 LINE",
"314 797 LINE",
"241 904 LINE",
"68 904 LINE",
"243 688 LINE"
);
}
);
width = 586;
}
);
leftKerningGroup = Z;
note = Zcaron;
rightKerningGroup = Z;
unicode = 017D;
},
{
glyphname = Zdotaccent;
lastChange = "2015-10-23 06:06:23 +0000";
layers = (
{
layerId = "03246D8C-E7A1-43FC-9121-0C6BC949C0F5";
name = Bold;
paths = (
{
closed = 1;
nodes = (
"576 0 LINE",
"576 184 LINE",
"337 184 LINE",
"570 507 LINE",
"570 644 LINE",
"29 644 LINE",
"29 446 LINE",
"251 446 LINE",
"15 119 LINE",
"15 0 LINE"
);
},
{
closed = 1;
nodes = (
"382 718 LINE",
"382 859 LINE",
"226 859 LINE",
"226 718 LINE"
);
}
);
width = 586;
}
);
leftKerningGroup = Z;
note = Zdotaccent;
rightKerningGroup = Z;
unicode = 017B;
},
{
glyphname = Zdotbelow;
lastChange = "2015-10-23 06:06:22 +0000";
layers = (
{
layerId = "03246D8C-E7A1-43FC-9121-0C6BC949C0F5";
name = Bold;
paths = (
{
closed = 1;
nodes = (
"576 0 LINE",
"576 184 LINE",
"337 184 LINE",
"570 507 LINE",
"570 644 LINE",
"29 644 LINE",
"29 446 LINE",
"251 446 LINE",
"15 119 LINE",
"15 0 LINE"
);
},
{
closed = 1;
nodes = (
"392 -213 LINE",
"392 -72 LINE",
"236 -72 LINE",
"236 -213 LINE"
);
}
);
width = 586;
}
);
leftKerningGroup = Z;
note = Zdotbelow;
rightKerningGroup = Z;
unicode = 1E92;
},
{
glyphname = a;
lastChange = "2015-10-23 06:06:22 +0000";
layers = (
{
layerId = "03246D8C-E7A1-43FC-9121-0C6BC949C0F5";
name = Bold;
paths = (
{
closed = 1;
nodes = (
"254 -10 OFFCURVE",
"303 8 OFFCURVE",
"335 34 CURVE",
"345 0 LINE",
"557 0 LINE",
"557 283 LINE SMOOTH",
"557 421 OFFCURVE",
"448 484 OFFCURVE",
"290 484 CURVE SMOOTH",
"216 484 OFFCURVE",
"127 470 OFFCURVE",
"75 448 CURVE",
"75 318 LINE",
"128 334 OFFCURVE",
"191 343 OFFCURVE",
"242 343 CURVE SMOOTH",
"299 343 OFFCURVE",
"327 330 OFFCURVE",
"327 315 CURVE SMOOTH",
"327 310 LINE",
"221 310 LINE SMOOTH",
"81 310 OFFCURVE",
"15 254 OFFCURVE",
"15 148 CURVE SMOOTH",
"15 36 OFFCURVE",
"91 -10 OFFCURVE",
"182 -10 CURVE SMOOTH"
);
},
{
closed = 1;
nodes = (
"249 122 OFFCURVE",
"238 134 OFFCURVE",
"238 155 CURVE SMOOTH",
"238 179 OFFCURVE",
"252 188 OFFCURVE",
"283 188 CURVE SMOOTH",
"327 188 LINE",
"327 144 LINE",
"314 131 OFFCURVE",
"298 122 OFFCURVE",
"273 122 CURVE SMOOTH"
);
}
);
width = 587;
}
);
leftKerningGroup = a;
note = a;
rightKerningGroup = a;
unicode = 0061;
},
{
glyphname = aacute;
lastChange = "2015-10-23 06:06:22 +0000";
layers = (
{
layerId = "03246D8C-E7A1-43FC-9121-0C6BC949C0F5";
name = Bold;
paths = (
{
closed = 1;
nodes = (
"254 -10 OFFCURVE",
"303 8 OFFCURVE",
"335 34 CURVE",
"345 0 LINE",
"557 0 LINE",
"557 283 LINE SMOOTH",
"557 421 OFFCURVE",
"448 484 OFFCURVE",
"290 484 CURVE SMOOTH",
"216 484 OFFCURVE",
"127 470 OFFCURVE",
"75 448 CURVE",
"75 318 LINE",
"128 334 OFFCURVE",
"191 343 OFFCURVE",
"242 343 CURVE SMOOTH",
"299 343 OFFCURVE",
"327 330 OFFCURVE",
"327 315 CURVE SMOOTH",
"327 310 LINE",
"221 310 LINE SMOOTH",
"81 310 OFFCURVE",
"15 254 OFFCURVE",
"15 148 CURVE SMOOTH",
"15 36 OFFCURVE",
"91 -10 OFFCURVE",
"182 -10 CURVE SMOOTH"
);
},
{
closed = 1;
nodes = (
"249 122 OFFCURVE",
"238 134 OFFCURVE",
"238 155 CURVE SMOOTH",
"238 179 OFFCURVE",
"252 188 OFFCURVE",
"283 188 CURVE SMOOTH",
"327 188 LINE",
"327 144 LINE",
"314 131 OFFCURVE",
"298 122 OFFCURVE",
"273 122 CURVE SMOOTH"
);
},
{
closed = 1;
nodes = (
"384 522 LINE",
"489 748 LINE",
"303 748 LINE",
"207 522 LINE"
);
}
);
width = 587;
}
);
leftKerningGroup = a;
note = aacute;
rightKerningGroup = a;
unicode = 00E1;
},
{
glyphname = abreve;
lastChange = "2015-10-23 06:06:22 +0000";
layers = (
{
layerId = "03246D8C-E7A1-43FC-9121-0C6BC949C0F5";
name = Bold;
paths = (
{
closed = 1;
nodes = (
"254 -10 OFFCURVE",
"303 8 OFFCURVE",
"335 34 CURVE",
"345 0 LINE",
"557 0 LINE",
"557 283 LINE SMOOTH",
"557 421 OFFCURVE",
"448 484 OFFCURVE",
"290 484 CURVE SMOOTH",
"216 484 OFFCURVE",
"127 470 OFFCURVE",
"75 448 CURVE",
"75 318 LINE",
"128 334 OFFCURVE",
"191 343 OFFCURVE",
"242 343 CURVE SMOOTH",
"299 343 OFFCURVE",
"327 330 OFFCURVE",
"327 315 CURVE SMOOTH",
"327 310 LINE",
"221 310 LINE SMOOTH",
"81 310 OFFCURVE",
"15 254 OFFCURVE",
"15 148 CURVE SMOOTH",
"15 36 OFFCURVE",
"91 -10 OFFCURVE",
"182 -10 CURVE SMOOTH"
);
},
{
closed = 1;
nodes = (
"249 122 OFFCURVE",
"238 134 OFFCURVE",
"238 155 CURVE SMOOTH",
"238 179 OFFCURVE",
"252 188 OFFCURVE",
"283 188 CURVE SMOOTH",
"327 188 LINE",
"327 144 LINE",
"314 131 OFFCURVE",
"298 122 OFFCURVE",
"273 122 CURVE SMOOTH"
);
},
{
closed = 1;
nodes = (
"447 522 OFFCURVE",
"534 599 OFFCURVE",
"534 742 CURVE",
"379 742 LINE",
"379 697 OFFCURVE",
"364 654 OFFCURVE",
"313 654 CURVE SMOOTH",
"263 654 OFFCURVE",
"248 697 OFFCURVE",
"248 742 CURVE",
"93 742 LINE",
"93 599 OFFCURVE",
"180 522 OFFCURVE",
"313 522 CURVE SMOOTH"
);
}
);
width = 587;
}
);
leftKerningGroup = a;
note = abreve;
rightKerningGroup = a;
unicode = 0103;
},
{
glyphname = abreveacute;
lastChange = "2015-10-23 06:06:22 +0000";
layers = (
{
layerId = "03246D8C-E7A1-43FC-9121-0C6BC949C0F5";
name = Bold;
paths = (
{
closed = 1;
nodes = (
"254 -10 OFFCURVE",
"303 8 OFFCURVE",
"335 34 CURVE",
"345 0 LINE",
"557 0 LINE",
"557 283 LINE SMOOTH",
"557 421 OFFCURVE",
"448 484 OFFCURVE",
"290 484 CURVE SMOOTH",
"216 484 OFFCURVE",
"127 470 OFFCURVE",
"75 448 CURVE",
"75 318 LINE",
"128 334 OFFCURVE",
"191 343 OFFCURVE",
"242 343 CURVE SMOOTH",
"299 343 OFFCURVE",
"327 330 OFFCURVE",
"327 315 CURVE SMOOTH",
"327 310 LINE",
"221 310 LINE SMOOTH",
"81 310 OFFCURVE",
"15 254 OFFCURVE",
"15 148 CURVE SMOOTH",
"15 36 OFFCURVE",
"91 -10 OFFCURVE",
"182 -10 CURVE SMOOTH"
);
},
{
closed = 1;
nodes = (
"249 122 OFFCURVE",
"238 134 OFFCURVE",
"238 155 CURVE SMOOTH",
"238 179 OFFCURVE",
"252 188 OFFCURVE",
"283 188 CURVE SMOOTH",
"327 188 LINE",
"327 144 LINE",
"314 131 OFFCURVE",
"298 122 OFFCURVE",
"273 122 CURVE SMOOTH"
);
},
{
closed = 1;
nodes = (
"432 522 OFFCURVE",
"510 581 OFFCURVE",
"510 710 CURVE",
"376 710 LINE",
"376 670 OFFCURVE",
"358 639 OFFCURVE",
"311 639 CURVE SMOOTH",
"265 639 OFFCURVE",
"247 670 OFFCURVE",
"247 710 CURVE",
"113 710 LINE",
"113 581 OFFCURVE",
"191 522 OFFCURVE",
"311 522 CURVE SMOOTH"
);
},
{
closed = 1;
nodes = (
"391 729 LINE",
"474 901 LINE",
"318 901 LINE",
"243 729 LINE"
);
}
);
width = 587;
}
);
leftKerningGroup = a;
note = abreveacute;
rightKerningGroup = a;
unicode = 1EAF;
},
{
glyphname = abrevedotbelow;
lastChange = "2015-11-26 08:49:39 +0000";
layers = (
{
layerId = "03246D8C-E7A1-43FC-9121-0C6BC949C0F5";
name = Bold;
paths = (
{
closed = 1;
nodes = (
"254 -10 OFFCURVE",
"303 8 OFFCURVE",
"335 34 CURVE",
"345 0 LINE",
"557 0 LINE",
"557 283 LINE SMOOTH",
"557 421 OFFCURVE",
"448 484 OFFCURVE",
"290 484 CURVE SMOOTH",
"216 484 OFFCURVE",
"127 470 OFFCURVE",
"75 448 CURVE",
"75 318 LINE",
"128 334 OFFCURVE",
"191 343 OFFCURVE",
"242 343 CURVE SMOOTH",
"299 343 OFFCURVE",
"327 330 OFFCURVE",
"327 315 CURVE SMOOTH",
"327 310 LINE",
"221 310 LINE SMOOTH",
"81 310 OFFCURVE",
"15 254 OFFCURVE",
"15 148 CURVE SMOOTH",
"15 36 OFFCURVE",
"91 -10 OFFCURVE",
"182 -10 CURVE SMOOTH"
);
},
{
closed = 1;
nodes = (
"249 122 OFFCURVE",
"238 134 OFFCURVE",
"238 155 CURVE SMOOTH",
"238 179 OFFCURVE",
"252 188 OFFCURVE",
"283 188 CURVE SMOOTH",
"327 188 LINE",
"327 144 LINE",
"314 131 OFFCURVE",
"298 122 OFFCURVE",
"273 122 CURVE SMOOTH"
);
},
{
closed = 1;
nodes = (
"455 522 OFFCURVE",
"542 599 OFFCURVE",
"542 742 CURVE",
"387 742 LINE",
"387 697 OFFCURVE",
"372 654 OFFCURVE",
"321 654 CURVE SMOOTH",
"271 654 OFFCURVE",
"256 697 OFFCURVE",
"256 742 CURVE",
"101 742 LINE",
"101 599 OFFCURVE",
"188 522 OFFCURVE",
"321 522 CURVE SMOOTH"
);
},
{
closed = 1;
nodes = (
"401 -213 LINE",
"401 -72 LINE",
"245 -72 LINE",
"245 -213 LINE"
);
}
);
width = 587;
}
);
leftKerningGroup = a;
note = abrevedotbelow;
rightKerningGroup = a;
unicode = 1EB7;
},
{
glyphname = abrevegrave;
lastChange = "2015-10-23 06:06:22 +0000";
layers = (
{
layerId = "03246D8C-E7A1-43FC-9121-0C6BC949C0F5";
name = Bold;
paths = (
{
closed = 1;
nodes = (
"254 -10 OFFCURVE",
"303 8 OFFCURVE",
"335 34 CURVE",
"345 0 LINE",
"557 0 LINE",
"557 283 LINE SMOOTH",
"557 421 OFFCURVE",
"448 484 OFFCURVE",
"290 484 CURVE SMOOTH",
"216 484 OFFCURVE",
"127 470 OFFCURVE",
"75 448 CURVE",
"75 318 LINE",
"128 334 OFFCURVE",
"191 343 OFFCURVE",
"242 343 CURVE SMOOTH",
"299 343 OFFCURVE",
"327 330 OFFCURVE",
"327 315 CURVE SMOOTH",
"327 310 LINE",
"221 310 LINE SMOOTH",
"81 310 OFFCURVE",
"15 254 OFFCURVE",
"15 148 CURVE SMOOTH",
"15 36 OFFCURVE",
"91 -10 OFFCURVE",
"182 -10 CURVE SMOOTH"
);
},
{
closed = 1;
nodes = (
"249 122 OFFCURVE",
"238 134 OFFCURVE",
"238 155 CURVE SMOOTH",
"238 179 OFFCURVE",
"252 188 OFFCURVE",
"283 188 CURVE SMOOTH",
"327 188 LINE",
"327 144 LINE",
"314 131 OFFCURVE",
"298 122 OFFCURVE",
"273 122 CURVE SMOOTH"
);
},
{
closed = 1;
nodes = (
"429 522 OFFCURVE",
"507 581 OFFCURVE",
"507 710 CURVE",
"373 710 LINE",
"373 670 OFFCURVE",
"355 639 OFFCURVE",
"309 639 CURVE SMOOTH",
"262 639 OFFCURVE",
"244 670 OFFCURVE",
"244 710 CURVE",
"110 710 LINE",
"110 581 OFFCURVE",
"188 522 OFFCURVE",
"309 522 CURVE SMOOTH"
);
},
{
closed = 1;
nodes = (
"377 729 LINE",
"302 901 LINE",
"146 901 LINE",
"229 729 LINE"
);
}
);
width = 587;
}
);
leftKerningGroup = a;
note = abrevegrave;
rightKerningGroup = a;
unicode = 1EB1;
},
{
glyphname = abrevehookabove;
lastChange = "2015-11-26 08:49:55 +0000";
layers = (
{
layerId = "03246D8C-E7A1-43FC-9121-0C6BC949C0F5";
name = Bold;
paths = (
{
closed = 1;
nodes = (
"254 -10 OFFCURVE",
"303 8 OFFCURVE",
"335 34 CURVE",
"345 0 LINE",
"557 0 LINE",
"557 283 LINE SMOOTH",
"557 421 OFFCURVE",
"448 484 OFFCURVE",
"290 484 CURVE SMOOTH",
"216 484 OFFCURVE",
"127 470 OFFCURVE",
"75 448 CURVE",
"75 318 LINE",
"128 334 OFFCURVE",
"191 343 OFFCURVE",
"242 343 CURVE SMOOTH",
"299 343 OFFCURVE",
"327 330 OFFCURVE",
"327 315 CURVE SMOOTH",
"327 310 LINE",
"221 310 LINE SMOOTH",
"81 310 OFFCURVE",
"15 254 OFFCURVE",
"15 148 CURVE SMOOTH",
"15 36 OFFCURVE",
"91 -10 OFFCURVE",
"182 -10 CURVE SMOOTH"
);
},
{
closed = 1;
nodes = (
"249 122 OFFCURVE",
"238 134 OFFCURVE",
"238 155 CURVE SMOOTH",
"238 179 OFFCURVE",
"252 188 OFFCURVE",
"283 188 CURVE SMOOTH",
"327 188 LINE",
"327 144 LINE",
"314 131 OFFCURVE",
"298 122 OFFCURVE",
"273 122 CURVE SMOOTH"
);
},
{
closed = 1;
nodes = (
"419 522 OFFCURVE",
"497 581 OFFCURVE",
"497 710 CURVE",
"363 710 LINE",
"363 670 OFFCURVE",
"345 639 OFFCURVE",
"299 639 CURVE SMOOTH",
"252 639 OFFCURVE",
"234 670 OFFCURVE",
"234 710 CURVE",
"100 710 LINE",
"100 581 OFFCURVE",
"178 522 OFFCURVE",
"299 522 CURVE SMOOTH"
);
},
{
closed = 1;
nodes = (
"376 730 LINE",
"376 757 LINE",
"427 773 OFFCURVE",
"446 797 OFFCURVE",
"446 843 CURVE SMOOTH",
"446 894 OFFCURVE",
"400 935 OFFCURVE",
"317 935 CURVE SMOOTH",
"275 935 OFFCURVE",
"228 929 OFFCURVE",
"201 922 CURVE",
"201 840 LINE",
"214 845 OFFCURVE",
"232 851 OFFCURVE",
"249 851 CURVE SMOOTH",
"278 851 OFFCURVE",
"293 846 OFFCURVE",
"293 826 CURVE SMOOTH",
"293 808 OFFCURVE",
"270 795 OFFCURVE",
"219 793 CURVE",
"219 730 LINE"
);
}
);
width = 587;
}
);
leftKerningGroup = a;
note = abrevehookabove;
rightKerningGroup = a;
unicode = 1EB3;
},
{
glyphname = abrevetilde;
lastChange = "2015-11-26 08:49:59 +0000";
layers = (
{
layerId = "03246D8C-E7A1-43FC-9121-0C6BC949C0F5";
name = Bold;
paths = (
{
closed = 1;
nodes = (
"254 -10 OFFCURVE",
"303 8 OFFCURVE",
"335 34 CURVE",
"345 0 LINE",
"557 0 LINE",
"557 283 LINE SMOOTH",
"557 421 OFFCURVE",
"448 484 OFFCURVE",
"290 484 CURVE SMOOTH",
"216 484 OFFCURVE",
"127 470 OFFCURVE",
"75 448 CURVE",
"75 318 LINE",
"128 334 OFFCURVE",
"191 343 OFFCURVE",
"242 343 CURVE SMOOTH",
"299 343 OFFCURVE",
"327 330 OFFCURVE",
"327 315 CURVE SMOOTH",
"327 310 LINE",
"221 310 LINE SMOOTH",
"81 310 OFFCURVE",
"15 254 OFFCURVE",
"15 148 CURVE SMOOTH",
"15 36 OFFCURVE",
"91 -10 OFFCURVE",
"182 -10 CURVE SMOOTH"
);
},
{
closed = 1;
nodes = (
"249 122 OFFCURVE",
"238 134 OFFCURVE",
"238 155 CURVE SMOOTH",
"238 179 OFFCURVE",
"252 188 OFFCURVE",
"283 188 CURVE SMOOTH",
"327 188 LINE",
"327 144 LINE",
"314 131 OFFCURVE",
"298 122 OFFCURVE",
"273 122 CURVE SMOOTH"
);
},
{
closed = 1;
nodes = (
"417 522 OFFCURVE",
"495 581 OFFCURVE",
"495 710 CURVE",
"361 710 LINE",
"361 670 OFFCURVE",
"343 639 OFFCURVE",
"297 639 CURVE SMOOTH",
"250 639 OFFCURVE",
"232 670 OFFCURVE",
"232 710 CURVE",
"98 710 LINE",
"98 581 OFFCURVE",
"176 522 OFFCURVE",
"297 522 CURVE SMOOTH"
);
},
{
closed = 1;
nodes = (
"439 735 OFFCURVE",
"478 751 OFFCURVE",
"490 768 CURVE",
"490 893 LINE",
"475 872 OFFCURVE",
"440 854 OFFCURVE",
"396 854 CURVE SMOOTH",
"331 854 OFFCURVE",
"274 896 OFFCURVE",
"204 896 CURVE SMOOTH",
"164 896 OFFCURVE",
"126 880 OFFCURVE",
"107 863 CURVE",
"107 738 LINE",
"130 761 OFFCURVE",
"163 777 OFFCURVE",
"207 777 CURVE SMOOTH",
"266 777 OFFCURVE",
"331 735 OFFCURVE",
"399 735 CURVE SMOOTH"
);
}
);
width = 587;
}
);
leftKerningGroup = a;
note = abrevetilde;
rightKerningGroup = a;
unicode = 1EB5;
},
{
glyphname = acaron;
lastChange = "2015-10-23 06:06:23 +0000";
layers = (
{
layerId = "03246D8C-E7A1-43FC-9121-0C6BC949C0F5";
name = Bold;
paths = (
{
closed = 1;
nodes = (
"254 -10 OFFCURVE",
"303 8 OFFCURVE",
"335 34 CURVE",
"345 0 LINE",
"557 0 LINE",
"557 283 LINE SMOOTH",
"557 421 OFFCURVE",
"448 484 OFFCURVE",
"290 484 CURVE SMOOTH",
"216 484 OFFCURVE",
"127 470 OFFCURVE",
"75 448 CURVE",
"75 318 LINE",
"128 334 OFFCURVE",
"191 343 OFFCURVE",
"242 343 CURVE SMOOTH",
"299 343 OFFCURVE",
"327 330 OFFCURVE",
"327 315 CURVE SMOOTH",
"327 310 LINE",
"221 310 LINE SMOOTH",
"81 310 OFFCURVE",
"15 254 OFFCURVE",
"15 148 CURVE SMOOTH",
"15 36 OFFCURVE",
"91 -10 OFFCURVE",
"182 -10 CURVE SMOOTH"
);
},
{
closed = 1;
nodes = (
"249 122 OFFCURVE",
"238 134 OFFCURVE",
"238 155 CURVE SMOOTH",
"238 179 OFFCURVE",
"252 188 OFFCURVE",
"283 188 CURVE SMOOTH",
"327 188 LINE",
"327 144 LINE",
"314 131 OFFCURVE",
"298 122 OFFCURVE",
"273 122 CURVE SMOOTH"
);
},
{
closed = 1;
nodes = (
"372 522 LINE",
"547 738 LINE",
"379 738 LINE",
"302 631 LINE",
"229 738 LINE",
"56 738 LINE",
"231 522 LINE"
);
}
);
width = 587;
}
);
leftKerningGroup = a;
note = acaron;
rightKerningGroup = a;
unicode = 01CE;
},
{
glyphname = acircumflex;
lastChange = "2015-11-26 08:50:08 +0000";
layers = (
{
layerId = "03246D8C-E7A1-43FC-9121-0C6BC949C0F5";
name = Bold;
paths = (
{
closed = 1;
nodes = (
"254 -10 OFFCURVE",
"303 8 OFFCURVE",
"335 34 CURVE",
"345 0 LINE",
"557 0 LINE",
"557 283 LINE SMOOTH",
"557 421 OFFCURVE",
"448 484 OFFCURVE",
"290 484 CURVE SMOOTH",
"216 484 OFFCURVE",
"127 470 OFFCURVE",
"75 448 CURVE",
"75 318 LINE",
"128 334 OFFCURVE",
"191 343 OFFCURVE",
"242 343 CURVE SMOOTH",
"299 343 OFFCURVE",
"327 330 OFFCURVE",
"327 315 CURVE SMOOTH",
"327 310 LINE",
"221 310 LINE SMOOTH",
"81 310 OFFCURVE",
"15 254 OFFCURVE",
"15 148 CURVE SMOOTH",
"15 36 OFFCURVE",
"91 -10 OFFCURVE",
"182 -10 CURVE SMOOTH"
);
},
{
closed = 1;
nodes = (
"249 122 OFFCURVE",
"238 134 OFFCURVE",
"238 155 CURVE SMOOTH",
"238 179 OFFCURVE",
"252 188 OFFCURVE",
"283 188 CURVE SMOOTH",
"327 188 LINE",
"327 144 LINE",
"314 131 OFFCURVE",
"298 122 OFFCURVE",
"273 122 CURVE SMOOTH"
);
},
{
closed = 1;
nodes = (
"231 522 LINE",
"304 629 LINE",
"381 522 LINE",
"549 522 LINE",
"374 738 LINE",
"233 738 LINE",
"58 522 LINE"
);
}
);
width = 587;
}
);
leftKerningGroup = a;
note = acircumflex;
rightKerningGroup = a;
unicode = 00E2;
},
{
glyphname = acircumflexacute;
lastChange = "2015-10-23 06:06:22 +0000";
layers = (
{
layerId = "03246D8C-E7A1-43FC-9121-0C6BC949C0F5";
name = Bold;
paths = (
{
closed = 1;
nodes = (
"254 -10 OFFCURVE",
"303 8 OFFCURVE",
"335 34 CURVE",
"345 0 LINE",
"557 0 LINE",
"557 283 LINE SMOOTH",
"557 421 OFFCURVE",
"448 484 OFFCURVE",
"290 484 CURVE SMOOTH",
"216 484 OFFCURVE",
"127 470 OFFCURVE",
"75 448 CURVE",
"75 318 LINE",
"128 334 OFFCURVE",
"191 343 OFFCURVE",
"242 343 CURVE SMOOTH",
"299 343 OFFCURVE",
"327 330 OFFCURVE",
"327 315 CURVE SMOOTH",
"327 310 LINE",
"221 310 LINE SMOOTH",
"81 310 OFFCURVE",
"15 254 OFFCURVE",
"15 148 CURVE SMOOTH",
"15 36 OFFCURVE",
"91 -10 OFFCURVE",
"182 -10 CURVE SMOOTH"
);
},
{
closed = 1;
nodes = (
"249 122 OFFCURVE",
"238 134 OFFCURVE",
"238 155 CURVE SMOOTH",
"238 179 OFFCURVE",
"252 188 OFFCURVE",
"283 188 CURVE SMOOTH",
"327 188 LINE",
"327 144 LINE",
"314 131 OFFCURVE",
"298 122 OFFCURVE",
"273 122 CURVE SMOOTH"
);
},
{
closed = 1;
nodes = (
"256 522 LINE",
"309 598 LINE",
"365 522 LINE",
"554 522 LINE",
"396 690 LINE",
"221 690 LINE",
"63 522 LINE"
);
},
{
closed = 1;
nodes = (
"620 654 LINE",
"703 826 LINE",
"527 826 LINE",
"452 654 LINE"
);
}
);
width = 587;
}
);
leftKerningGroup = a;
note = acircumflexacute;
rightKerningGroup = a;
unicode = 1EA5;
},
{
glyphname = acircumflexdotbelow;
lastChange = "2015-11-26 08:50:13 +0000";
layers = (
{
layerId = "03246D8C-E7A1-43FC-9121-0C6BC949C0F5";
name = Bold;
paths = (
{
closed = 1;
nodes = (
"254 -10 OFFCURVE",
"303 8 OFFCURVE",
"335 34 CURVE",
"345 0 LINE",
"557 0 LINE",
"557 283 LINE SMOOTH",
"557 421 OFFCURVE",
"448 484 OFFCURVE",
"290 484 CURVE SMOOTH",
"216 484 OFFCURVE",
"127 470 OFFCURVE",
"75 448 CURVE",
"75 318 LINE",
"128 334 OFFCURVE",
"191 343 OFFCURVE",
"242 343 CURVE SMOOTH",
"299 343 OFFCURVE",
"327 330 OFFCURVE",
"327 315 CURVE SMOOTH",
"327 310 LINE",
"221 310 LINE SMOOTH",
"81 310 OFFCURVE",
"15 254 OFFCURVE",
"15 148 CURVE SMOOTH",
"15 36 OFFCURVE",
"91 -10 OFFCURVE",
"182 -10 CURVE SMOOTH"
);
},
{
closed = 1;
nodes = (
"249 122 OFFCURVE",
"238 134 OFFCURVE",
"238 155 CURVE SMOOTH",
"238 179 OFFCURVE",
"252 188 OFFCURVE",
"283 188 CURVE SMOOTH",
"327 188 LINE",
"327 144 LINE",
"314 131 OFFCURVE",
"298 122 OFFCURVE",
"273 122 CURVE SMOOTH"
);
},
{
closed = 1;
nodes = (
"234 522 LINE",
"307 629 LINE",
"384 522 LINE",
"552 522 LINE",
"377 738 LINE",
"236 738 LINE",
"61 522 LINE"
);
},
{
closed = 1;
nodes = (
"384 -213 LINE",
"384 -72 LINE",
"228 -72 LINE",
"228 -213 LINE"
);
}
);
width = 587;
}
);
leftKerningGroup = a;
note = acircumflexdotbelow;
rightKerningGroup = a;
unicode = 1EAD;
},
{
glyphname = acircumflexgrave;
lastChange = "2015-10-23 06:06:22 +0000";
layers = (
{
layerId = "03246D8C-E7A1-43FC-9121-0C6BC949C0F5";
name = Bold;
paths = (
{
closed = 1;
nodes = (
"254 -10 OFFCURVE",
"303 8 OFFCURVE",
"335 34 CURVE",
"345 0 LINE",
"557 0 LINE",
"557 283 LINE SMOOTH",
"557 421 OFFCURVE",
"448 484 OFFCURVE",
"290 484 CURVE SMOOTH",
"216 484 OFFCURVE",
"127 470 OFFCURVE",
"75 448 CURVE",
"75 318 LINE",
"128 334 OFFCURVE",
"191 343 OFFCURVE",
"242 343 CURVE SMOOTH",
"299 343 OFFCURVE",
"327 330 OFFCURVE",
"327 315 CURVE SMOOTH",
"327 310 LINE",
"221 310 LINE SMOOTH",
"81 310 OFFCURVE",
"15 254 OFFCURVE",
"15 148 CURVE SMOOTH",
"15 36 OFFCURVE",
"91 -10 OFFCURVE",
"182 -10 CURVE SMOOTH"
);
},
{
closed = 1;
nodes = (
"249 122 OFFCURVE",
"238 134 OFFCURVE",
"238 155 CURVE SMOOTH",
"238 179 OFFCURVE",
"252 188 OFFCURVE",
"283 188 CURVE SMOOTH",
"327 188 LINE",
"327 144 LINE",
"314 131 OFFCURVE",
"298 122 OFFCURVE",
"273 122 CURVE SMOOTH"
);
},
{
closed = 1;
nodes = (
"161 654 LINE",
"86 826 LINE",
"-90 826 LINE",
"-7 654 LINE"
);
},
{
closed = 1;
nodes = (
"248 522 LINE",
"304 598 LINE",
"357 522 LINE",
"550 522 LINE",
"392 690 LINE",
"217 690 LINE",
"59 522 LINE"
);
}
);
width = 587;
}
);
leftKerningGroup = a;
note = acircumflexgrave;
rightKerningGroup = a;
unicode = 1EA7;
},
{
glyphname = acircumflexhookabove;
lastChange = "2015-10-23 06:06:22 +0000";
layers = (
{
layerId = "03246D8C-E7A1-43FC-9121-0C6BC949C0F5";
name = Bold;
paths = (
{
closed = 1;
nodes = (
"254 -10 OFFCURVE",
"303 8 OFFCURVE",
"335 34 CURVE",
"345 0 LINE",
"557 0 LINE",
"557 283 LINE SMOOTH",
"557 421 OFFCURVE",
"448 484 OFFCURVE",
"290 484 CURVE SMOOTH",
"216 484 OFFCURVE",
"127 470 OFFCURVE",
"75 448 CURVE",
"75 318 LINE",
"128 334 OFFCURVE",
"191 343 OFFCURVE",
"242 343 CURVE SMOOTH",
"299 343 OFFCURVE",
"327 330 OFFCURVE",
"327 315 CURVE SMOOTH",
"327 310 LINE",
"221 310 LINE SMOOTH",
"81 310 OFFCURVE",
"15 254 OFFCURVE",
"15 148 CURVE SMOOTH",
"15 36 OFFCURVE",
"91 -10 OFFCURVE",
"182 -10 CURVE SMOOTH"
);
},
{
closed = 1;
nodes = (
"249 122 OFFCURVE",
"238 134 OFFCURVE",
"238 155 CURVE SMOOTH",
"238 179 OFFCURVE",
"252 188 OFFCURVE",
"283 188 CURVE SMOOTH",
"327 188 LINE",
"327 144 LINE",
"314 131 OFFCURVE",
"298 122 OFFCURVE",
"273 122 CURVE SMOOTH"
);
},
{
closed = 1;
nodes = (
"248 522 LINE",
"301 598 LINE",
"357 522 LINE",
"546 522 LINE",
"388 690 LINE",
"213 690 LINE",
"55 522 LINE"
);
},
{
closed = 1;
nodes = (
"612 631 LINE",
"612 662 LINE",
"660 671 OFFCURVE",
"682 705 OFFCURVE",
"682 751 CURVE SMOOTH",
"682 802 OFFCURVE",
"636 843 OFFCURVE",
"553 843 CURVE SMOOTH",
"503 843 OFFCURVE",
"464 838 OFFCURVE",
"437 831 CURVE",
"437 739 LINE",
"450 744 OFFCURVE",
"468 749 OFFCURVE",
"485 749 CURVE SMOOTH",
"507 749 OFFCURVE",
"519 746 OFFCURVE",
"519 734 CURVE SMOOTH",
"519 722 OFFCURVE",
"506 713 OFFCURVE",
"455 711 CURVE",
"455 631 LINE"
);
}
);
width = 587;
}
);
leftKerningGroup = a;
note = acircumflexhookabove;
rightKerningGroup = a;
unicode = 1EA9;
},
{
glyphname = acircumflextilde;
lastChange = "2015-10-23 06:06:23 +0000";
layers = (
{
layerId = "03246D8C-E7A1-43FC-9121-0C6BC949C0F5";
name = Bold;
paths = (
{
closed = 1;
nodes = (
"254 -10 OFFCURVE",
"303 8 OFFCURVE",
"335 34 CURVE",
"345 0 LINE",
"557 0 LINE",
"557 283 LINE SMOOTH",
"557 421 OFFCURVE",
"448 484 OFFCURVE",
"290 484 CURVE SMOOTH",
"216 484 OFFCURVE",
"127 470 OFFCURVE",
"75 448 CURVE",
"75 318 LINE",
"128 334 OFFCURVE",
"191 343 OFFCURVE",
"242 343 CURVE SMOOTH",
"299 343 OFFCURVE",
"327 330 OFFCURVE",
"327 315 CURVE SMOOTH",
"327 310 LINE",
"221 310 LINE SMOOTH",
"81 310 OFFCURVE",
"15 254 OFFCURVE",
"15 148 CURVE SMOOTH",
"15 36 OFFCURVE",
"91 -10 OFFCURVE",
"182 -10 CURVE SMOOTH"
);
},
{
closed = 1;
nodes = (
"249 122 OFFCURVE",
"238 134 OFFCURVE",
"238 155 CURVE SMOOTH",
"238 179 OFFCURVE",
"252 188 OFFCURVE",
"283 188 CURVE SMOOTH",
"327 188 LINE",
"327 144 LINE",
"314 131 OFFCURVE",
"298 122 OFFCURVE",
"273 122 CURVE SMOOTH"
);
},
{
closed = 1;
nodes = (
"248 522 LINE",
"301 598 LINE",
"357 522 LINE",
"546 522 LINE",
"388 690 LINE",
"213 690 LINE",
"55 522 LINE"
);
},
{
closed = 1;
nodes = (
"448 705 OFFCURVE",
"487 721 OFFCURVE",
"499 738 CURVE",
"499 873 LINE",
"484 852 OFFCURVE",
"449 834 OFFCURVE",
"405 834 CURVE SMOOTH",
"340 834 OFFCURVE",
"283 876 OFFCURVE",
"213 876 CURVE SMOOTH",
"173 876 OFFCURVE",
"135 860 OFFCURVE",
"116 843 CURVE",
"116 708 LINE",
"139 731 OFFCURVE",
"172 747 OFFCURVE",
"216 747 CURVE SMOOTH",
"275 747 OFFCURVE",
"340 705 OFFCURVE",
"408 705 CURVE SMOOTH"
);
}
);
width = 587;
}
);
leftKerningGroup = a;
note = acircumflextilde;
rightKerningGroup = a;
unicode = 1EAB;
},
{
glyphname = adieresis;
lastChange = "2015-10-23 06:06:22 +0000";
layers = (
{
layerId = "03246D8C-E7A1-43FC-9121-0C6BC949C0F5";
name = Bold;
paths = (
{
closed = 1;
nodes = (
"254 -10 OFFCURVE",
"303 8 OFFCURVE",
"335 34 CURVE",
"345 0 LINE",
"557 0 LINE",
"557 283 LINE SMOOTH",
"557 421 OFFCURVE",
"448 484 OFFCURVE",
"290 484 CURVE SMOOTH",
"216 484 OFFCURVE",
"127 470 OFFCURVE",
"75 448 CURVE",
"75 318 LINE",
"128 334 OFFCURVE",
"191 343 OFFCURVE",
"242 343 CURVE SMOOTH",
"299 343 OFFCURVE",
"327 330 OFFCURVE",
"327 315 CURVE SMOOTH",
"327 310 LINE",
"221 310 LINE SMOOTH",
"81 310 OFFCURVE",
"15 254 OFFCURVE",
"15 148 CURVE SMOOTH",
"15 36 OFFCURVE",
"91 -10 OFFCURVE",
"182 -10 CURVE SMOOTH"
);
},
{
closed = 1;
nodes = (
"249 122 OFFCURVE",
"238 134 OFFCURVE",
"238 155 CURVE SMOOTH",
"238 179 OFFCURVE",
"252 188 OFFCURVE",
"283 188 CURVE SMOOTH",
"327 188 LINE",
"327 144 LINE",
"314 131 OFFCURVE",
"298 122 OFFCURVE",
"273 122 CURVE SMOOTH"
);
},
{
closed = 1;
nodes = (
"277 552 LINE",
"277 693 LINE",
"121 693 LINE",
"121 552 LINE"
);
},
{
closed = 1;
nodes = (
"512 552 LINE",
"512 693 LINE",
"356 693 LINE",
"356 552 LINE"
);
}
);
width = 587;
}
);
leftKerningGroup = a;
note = adieresis;
rightKerningGroup = a;
unicode = 00E4;
},
{
glyphname = adotbelow;
lastChange = "2015-11-26 08:50:18 +0000";
layers = (
{
layerId = "03246D8C-E7A1-43FC-9121-0C6BC949C0F5";
name = Bold;
paths = (
{
closed = 1;
nodes = (
"254 -10 OFFCURVE",
"303 8 OFFCURVE",
"335 34 CURVE",
"345 0 LINE",
"557 0 LINE",
"557 283 LINE SMOOTH",
"557 421 OFFCURVE",
"448 484 OFFCURVE",
"290 484 CURVE SMOOTH",
"216 484 OFFCURVE",
"127 470 OFFCURVE",
"75 448 CURVE",
"75 318 LINE",
"128 334 OFFCURVE",
"191 343 OFFCURVE",
"242 343 CURVE SMOOTH",
"299 343 OFFCURVE",
"327 330 OFFCURVE",
"327 315 CURVE SMOOTH",
"327 310 LINE",
"221 310 LINE SMOOTH",
"81 310 OFFCURVE",
"15 254 OFFCURVE",
"15 148 CURVE SMOOTH",
"15 36 OFFCURVE",
"91 -10 OFFCURVE",
"182 -10 CURVE SMOOTH"
);
},
{
closed = 1;
nodes = (
"249 122 OFFCURVE",
"238 134 OFFCURVE",
"238 155 CURVE SMOOTH",
"238 179 OFFCURVE",
"252 188 OFFCURVE",
"283 188 CURVE SMOOTH",
"327 188 LINE",
"327 144 LINE",
"314 131 OFFCURVE",
"298 122 OFFCURVE",
"273 122 CURVE SMOOTH"
);
},
{
closed = 1;
nodes = (
"396 -213 LINE",
"396 -72 LINE",
"240 -72 LINE",
"240 -213 LINE"
);
}
);
width = 587;
}
);
leftKerningGroup = a;
note = adotbelow;
rightKerningGroup = a;
unicode = 1EA1;
},
{
glyphname = agrave;
lastChange = "2015-10-23 06:06:22 +0000";
layers = (
{
layerId = "03246D8C-E7A1-43FC-9121-0C6BC949C0F5";
name = Bold;
paths = (
{
closed = 1;
nodes = (
"254 -10 OFFCURVE",
"303 8 OFFCURVE",
"335 34 CURVE",
"345 0 LINE",
"557 0 LINE",
"557 283 LINE SMOOTH",
"557 421 OFFCURVE",
"448 484 OFFCURVE",
"290 484 CURVE SMOOTH",
"216 484 OFFCURVE",
"127 470 OFFCURVE",
"75 448 CURVE",
"75 318 LINE",
"128 334 OFFCURVE",
"191 343 OFFCURVE",
"242 343 CURVE SMOOTH",
"299 343 OFFCURVE",
"327 330 OFFCURVE",
"327 315 CURVE SMOOTH",
"327 310 LINE",
"221 310 LINE SMOOTH",
"81 310 OFFCURVE",
"15 254 OFFCURVE",
"15 148 CURVE SMOOTH",
"15 36 OFFCURVE",
"91 -10 OFFCURVE",
"182 -10 CURVE SMOOTH"
);
},
{
closed = 1;
nodes = (
"249 122 OFFCURVE",
"238 134 OFFCURVE",
"238 155 CURVE SMOOTH",
"238 179 OFFCURVE",
"252 188 OFFCURVE",
"283 188 CURVE SMOOTH",
"327 188 LINE",
"327 144 LINE",
"314 131 OFFCURVE",
"298 122 OFFCURVE",
"273 122 CURVE SMOOTH"
);
},
{
closed = 1;
nodes = (
"394 522 LINE",
"298 748 LINE",
"112 748 LINE",
"217 522 LINE"
);
}
);
width = 587;
}
);
leftKerningGroup = a;
note = agrave;
rightKerningGroup = a;
unicode = 00E0;
},
{
glyphname = ahookabove;
lastChange = "2015-10-23 06:06:22 +0000";
layers = (
{
layerId = "03246D8C-E7A1-43FC-9121-0C6BC949C0F5";
name = Bold;
paths = (
{
closed = 1;
nodes = (
"254 -10 OFFCURVE",
"303 8 OFFCURVE",
"335 34 CURVE",
"345 0 LINE",
"557 0 LINE",
"557 283 LINE SMOOTH",
"557 421 OFFCURVE",
"448 484 OFFCURVE",
"290 484 CURVE SMOOTH",
"216 484 OFFCURVE",
"127 470 OFFCURVE",
"75 448 CURVE",
"75 318 LINE",
"128 334 OFFCURVE",
"191 343 OFFCURVE",
"242 343 CURVE SMOOTH",
"299 343 OFFCURVE",
"327 330 OFFCURVE",
"327 315 CURVE SMOOTH",
"327 310 LINE",
"221 310 LINE SMOOTH",
"81 310 OFFCURVE",
"15 254 OFFCURVE",
"15 148 CURVE SMOOTH",
"15 36 OFFCURVE",
"91 -10 OFFCURVE",
"182 -10 CURVE SMOOTH"
);
},
{
closed = 1;
nodes = (
"249 122 OFFCURVE",
"238 134 OFFCURVE",
"238 155 CURVE SMOOTH",
"238 179 OFFCURVE",
"252 188 OFFCURVE",
"283 188 CURVE SMOOTH",
"327 188 LINE",
"327 144 LINE",
"314 131 OFFCURVE",
"298 122 OFFCURVE",
"273 122 CURVE SMOOTH"
);
},
{
closed = 1;
nodes = (
"387 522 LINE",
"387 558 LINE",
"445 576 OFFCURVE",
"469 602 OFFCURVE",
"469 662 CURVE SMOOTH",
"469 722 OFFCURVE",
"415 769 OFFCURVE",
"318 769 CURVE SMOOTH",
"260 769 OFFCURVE",
"220 763 OFFCURVE",
"188 754 CURVE",
"188 660 LINE",
"203 666 OFFCURVE",
"224 670 OFFCURVE",
"244 670 CURVE SMOOTH",
"278 670 OFFCURVE",
"294 662 OFFCURVE",
"294 642 CURVE SMOOTH",
"294 622 OFFCURVE",
"274 607 OFFCURVE",
"209 603 CURVE",
"209 522 LINE"
);
}
);
width = 587;
}
);
leftKerningGroup = a;
note = ahookabove;
rightKerningGroup = a;
unicode = 1EA3;
},
{
glyphname = "alpha-latin";
lastChange = "2015-10-23 06:06:23 +0000";
layers = (
{
layerId = "03246D8C-E7A1-43FC-9121-0C6BC949C0F5";
name = Bold;
paths = (
{
closed = 1;
nodes = (
"285 -10 OFFCURVE",
"337 6 OFFCURVE",
"372 31 CURVE",
"383 0 LINE",
"593 0 LINE",
"593 474 LINE",
"355 474 LINE",
"355 449 LINE",
"331 469 OFFCURVE",
"292 484 OFFCURVE",
"243 484 CURVE SMOOTH",
"101 484 OFFCURVE",
"15 383 OFFCURVE",
"15 216 CURVE SMOOTH",
"15 61 OFFCURVE",
"91 -10 OFFCURVE",
"227 -10 CURVE SMOOTH"
);
},
{
closed = 1;
nodes = (
"281 163 OFFCURVE",
"262 172 OFFCURVE",
"262 224 CURVE SMOOTH",
"262 281 OFFCURVE",
"277 311 OFFCURVE",
"309 311 CURVE SMOOTH",
"327 311 OFFCURVE",
"338 307 OFFCURVE",
"351 296 CURVE",
"351 178 LINE",
"341 169 OFFCURVE",
"327 163 OFFCURVE",
"309 163 CURVE SMOOTH"
);
}
);
width = 628;
}
);
leftKerningGroup = a;
note = ascript;
rightKerningGroup = a;
unicode = 0251;
},
{
glyphname = amacron;
lastChange = "2015-10-23 06:06:23 +0000";
layers = (
{
layerId = "03246D8C-E7A1-43FC-9121-0C6BC949C0F5";
name = Bold;
paths = (
{
closed = 1;
nodes = (
"254 -10 OFFCURVE",
"303 8 OFFCURVE",
"335 34 CURVE",
"345 0 LINE",
"557 0 LINE",
"557 283 LINE SMOOTH",
"557 421 OFFCURVE",
"448 484 OFFCURVE",
"290 484 CURVE SMOOTH",
"216 484 OFFCURVE",
"127 470 OFFCURVE",
"75 448 CURVE",
"75 318 LINE",
"128 334 OFFCURVE",
"191 343 OFFCURVE",
"242 343 CURVE SMOOTH",
"299 343 OFFCURVE",
"327 330 OFFCURVE",
"327 315 CURVE SMOOTH",
"327 310 LINE",
"221 310 LINE SMOOTH",
"81 310 OFFCURVE",
"15 254 OFFCURVE",
"15 148 CURVE SMOOTH",
"15 36 OFFCURVE",
"91 -10 OFFCURVE",
"182 -10 CURVE SMOOTH"
);
},
{
closed = 1;
nodes = (
"249 122 OFFCURVE",
"238 134 OFFCURVE",
"238 155 CURVE SMOOTH",
"238 179 OFFCURVE",
"252 188 OFFCURVE",
"283 188 CURVE SMOOTH",
"327 188 LINE",
"327 144 LINE",
"314 131 OFFCURVE",
"298 122 OFFCURVE",
"273 122 CURVE SMOOTH"
);
},
{
closed = 1;
nodes = (
"498 532 LINE",
"498 672 LINE",
"149 672 LINE",
"149 532 LINE"
);
}
);
width = 587;
}
);
leftKerningGroup = a;
note = amacron;
rightKerningGroup = a;
unicode = 0101;
},
{
glyphname = aogonek;
lastChange = "2015-11-26 08:50:27 +0000";
layers = (
{
layerId = "03246D8C-E7A1-43FC-9121-0C6BC949C0F5";
name = Bold;
paths = (
{
closed = 1;
nodes = (
"254 -10 OFFCURVE",
"303 8 OFFCURVE",
"335 34 CURVE",
"345 0 LINE",
"557 0 LINE",
"557 283 LINE SMOOTH",
"557 421 OFFCURVE",
"448 484 OFFCURVE",
"290 484 CURVE SMOOTH",
"216 484 OFFCURVE",
"127 470 OFFCURVE",
"75 448 CURVE",
"75 318 LINE",
"128 334 OFFCURVE",
"191 343 OFFCURVE",
"242 343 CURVE SMOOTH",
"299 343 OFFCURVE",
"327 330 OFFCURVE",
"327 315 CURVE SMOOTH",
"327 310 LINE",
"221 310 LINE SMOOTH",
"81 310 OFFCURVE",
"15 254 OFFCURVE",
"15 148 CURVE SMOOTH",
"15 36 OFFCURVE",
"91 -10 OFFCURVE",
"182 -10 CURVE SMOOTH"
);
},
{
closed = 1;
nodes = (
"249 122 OFFCURVE",
"238 134 OFFCURVE",
"238 155 CURVE SMOOTH",
"238 179 OFFCURVE",
"252 188 OFFCURVE",
"283 188 CURVE SMOOTH",
"327 188 LINE",
"327 144 LINE",
"314 131 OFFCURVE",
"298 122 OFFCURVE",
"273 122 CURVE SMOOTH"
);
},
{
closed = 1;
nodes = (
"468 -220 OFFCURVE",
"515 -210 OFFCURVE",
"538 -202 CURVE",
"538 -96 LINE",
"526 -103 OFFCURVE",
"504 -107 OFFCURVE",
"487 -107 CURVE SMOOTH",
"457 -107 OFFCURVE",
"440 -101 OFFCURVE",
"440 -76 CURVE SMOOTH",
"440 -47 OFFCURVE",
"461 -21 OFFCURVE",
"489 0 CURVE",
"345 0 LINE",
"304 -23 OFFCURVE",
"270 -64 OFFCURVE",
"270 -116 CURVE SMOOTH",
"270 -188 OFFCURVE",
"327 -220 OFFCURVE",
"418 -220 CURVE SMOOTH"
);
}
);
width = 587;
}
);
leftKerningGroup = a;
note = aogonek;
rightKerningGroup = a;
unicode = 0105;
},
{
glyphname = aring;
lastChange = "2015-11-26 08:50:34 +0000";
layers = (
{
layerId = "03246D8C-E7A1-43FC-9121-0C6BC949C0F5";
name = Bold;
paths = (
{
closed = 1;
nodes = (
"254 -10 OFFCURVE",
"303 8 OFFCURVE",
"335 34 CURVE",
"345 0 LINE",
"557 0 LINE",
"557 283 LINE SMOOTH",
"557 421 OFFCURVE",
"448 484 OFFCURVE",
"290 484 CURVE SMOOTH",
"216 484 OFFCURVE",
"127 470 OFFCURVE",
"75 448 CURVE",
"75 318 LINE",
"128 334 OFFCURVE",
"191 343 OFFCURVE",
"242 343 CURVE SMOOTH",
"299 343 OFFCURVE",
"327 330 OFFCURVE",
"327 315 CURVE SMOOTH",
"327 310 LINE",
"221 310 LINE SMOOTH",
"81 310 OFFCURVE",
"15 254 OFFCURVE",
"15 148 CURVE SMOOTH",
"15 36 OFFCURVE",
"91 -10 OFFCURVE",
"182 -10 CURVE SMOOTH"
);
},
{
closed = 1;
nodes = (
"249 122 OFFCURVE",
"238 134 OFFCURVE",
"238 155 CURVE SMOOTH",
"238 179 OFFCURVE",
"252 188 OFFCURVE",
"283 188 CURVE SMOOTH",
"327 188 LINE",
"327 144 LINE",
"314 131 OFFCURVE",
"298 122 OFFCURVE",
"273 122 CURVE SMOOTH"
);
},
{
closed = 1;
nodes = (
"420 522 OFFCURVE",
"473 585 OFFCURVE",
"473 665 CURVE SMOOTH",
"473 746 OFFCURVE",
"420 809 OFFCURVE",
"319 809 CURVE SMOOTH",
"219 809 OFFCURVE",
"166 746 OFFCURVE",
"166 665 CURVE SMOOTH",
"166 585 OFFCURVE",
"219 522 OFFCURVE",
"319 522 CURVE SMOOTH"
);
},
{
closed = 1;
nodes = (
"282 614 OFFCURVE",
"265 638 OFFCURVE",
"265 665 CURVE SMOOTH",
"265 692 OFFCURVE",
"282 716 OFFCURVE",
"319 716 CURVE SMOOTH",
"356 716 OFFCURVE",
"373 692 OFFCURVE",
"373 665 CURVE SMOOTH",
"373 638 OFFCURVE",
"356 614 OFFCURVE",
"319 614 CURVE SMOOTH"
);
}
);
width = 587;
}
);
leftKerningGroup = a;
note = aring;
rightKerningGroup = a;
unicode = 00E5;
},
{
glyphname = aringacute;
lastChange = "2015-11-26 08:50:46 +0000";
layers = (
{
layerId = "03246D8C-E7A1-43FC-9121-0C6BC949C0F5";
name = Bold;
paths = (
{
closed = 1;
nodes = (
"254 -10 OFFCURVE",
"303 8 OFFCURVE",
"335 34 CURVE",
"345 0 LINE",
"557 0 LINE",
"557 283 LINE SMOOTH",
"557 421 OFFCURVE",
"448 484 OFFCURVE",
"290 484 CURVE SMOOTH",
"216 484 OFFCURVE",
"127 470 OFFCURVE",
"75 448 CURVE",
"75 318 LINE",
"128 334 OFFCURVE",
"191 343 OFFCURVE",
"242 343 CURVE SMOOTH",
"299 343 OFFCURVE",
"327 330 OFFCURVE",
"327 315 CURVE SMOOTH",
"327 310 LINE",
"221 310 LINE SMOOTH",
"81 310 OFFCURVE",
"15 254 OFFCURVE",
"15 148 CURVE SMOOTH",
"15 36 OFFCURVE",
"91 -10 OFFCURVE",
"182 -10 CURVE SMOOTH"
);
},
{
closed = 1;
nodes = (
"249 122 OFFCURVE",
"238 134 OFFCURVE",
"238 155 CURVE SMOOTH",
"238 179 OFFCURVE",
"252 188 OFFCURVE",
"283 188 CURVE SMOOTH",
"327 188 LINE",
"327 144 LINE",
"314 131 OFFCURVE",
"298 122 OFFCURVE",
"273 122 CURVE SMOOTH"
);
},
{
closed = 1;
nodes = (
"420 522 OFFCURVE",
"473 585 OFFCURVE",
"473 665 CURVE SMOOTH",
"473 746 OFFCURVE",
"420 809 OFFCURVE",
"319 809 CURVE SMOOTH",
"219 809 OFFCURVE",
"166 746 OFFCURVE",
"166 665 CURVE SMOOTH",
"166 585 OFFCURVE",
"219 522 OFFCURVE",
"319 522 CURVE SMOOTH"
);
},
{
closed = 1;
nodes = (
"282 614 OFFCURVE",
"265 638 OFFCURVE",
"265 665 CURVE SMOOTH",
"265 692 OFFCURVE",
"282 716 OFFCURVE",
"319 716 CURVE SMOOTH",
"356 716 OFFCURVE",
"373 692 OFFCURVE",
"373 665 CURVE SMOOTH",
"373 638 OFFCURVE",
"356 614 OFFCURVE",
"319 614 CURVE SMOOTH"
);
},
{
closed = 1;
nodes = (
"384 843 LINE",
"489 1023 LINE",
"303 1023 LINE",
"207 843 LINE"
);
}
);
width = 587;
}
);
leftKerningGroup = a;
note = aringacute;
rightKerningGroup = a;
unicode = 01FB;
},
{
glyphname = atilde;
lastChange = "2015-10-23 06:06:22 +0000";
layers = (
{
layerId = "03246D8C-E7A1-43FC-9121-0C6BC949C0F5";
name = Bold;
paths = (
{
closed = 1;
nodes = (
"254 -10 OFFCURVE",
"303 8 OFFCURVE",
"335 34 CURVE",
"345 0 LINE",
"557 0 LINE",
"557 283 LINE SMOOTH",
"557 421 OFFCURVE",
"448 484 OFFCURVE",
"290 484 CURVE SMOOTH",
"216 484 OFFCURVE",
"127 470 OFFCURVE",
"75 448 CURVE",
"75 318 LINE",
"128 334 OFFCURVE",
"191 343 OFFCURVE",
"242 343 CURVE SMOOTH",
"299 343 OFFCURVE",
"327 330 OFFCURVE",
"327 315 CURVE SMOOTH",
"327 310 LINE",
"221 310 LINE SMOOTH",
"81 310 OFFCURVE",
"15 254 OFFCURVE",
"15 148 CURVE SMOOTH",
"15 36 OFFCURVE",
"91 -10 OFFCURVE",
"182 -10 CURVE SMOOTH"
);
},
{
closed = 1;
nodes = (
"249 122 OFFCURVE",
"238 134 OFFCURVE",
"238 155 CURVE SMOOTH",
"238 179 OFFCURVE",
"252 188 OFFCURVE",
"283 188 CURVE SMOOTH",
"327 188 LINE",
"327 144 LINE",
"314 131 OFFCURVE",
"298 122 OFFCURVE",
"273 122 CURVE SMOOTH"
);
},
{
closed = 1;
nodes = (
"465 527 OFFCURVE",
"505 544 OFFCURVE",
"518 562 CURVE",
"518 703 LINE",
"502 681 OFFCURVE",
"466 662 OFFCURVE",
"420 662 CURVE SMOOTH",
"351 662 OFFCURVE",
"292 706 OFFCURVE",
"219 706 CURVE SMOOTH",
"177 706 OFFCURVE",
"137 689 OFFCURVE",
"117 671 CURVE",
"117 530 LINE",
"141 554 OFFCURVE",
"176 571 OFFCURVE",
"222 571 CURVE SMOOTH",
"283 571 OFFCURVE",
"351 527 OFFCURVE",
"423 527 CURVE SMOOTH"
);
}
);
width = 587;
}
);
leftKerningGroup = a;
note = atilde;
rightKerningGroup = a;
unicode = 00E3;
},
{
glyphname = ae;
lastChange = "2015-10-23 06:06:23 +0000";
layers = (
{
layerId = "03246D8C-E7A1-43FC-9121-0C6BC949C0F5";
name = Bold;
paths = (
{
closed = 1;
nodes = (
"339 -10 OFFCURVE",
"398 21 OFFCURVE",
"447 62 CURVE",
"487 16 OFFCURVE",
"570 -10 OFFCURVE",
"638 -10 CURVE SMOOTH",
"734 -10 OFFCURVE",
"800 2 OFFCURVE",
"850 26 CURVE",
"850 156 LINE",
"818 144 OFFCURVE",
"757 132 OFFCURVE",
"697 132 CURVE SMOOTH",
"623 132 OFFCURVE",
"578 147 OFFCURVE",
"558 172 CURVE",
"874 172 LINE",
"874 253 LINE SMOOTH",
"874 401 OFFCURVE",
"768 484 OFFCURVE",
"606 484 CURVE SMOOTH",
"545 484 OFFCURVE",
"485 465 OFFCURVE",
"447 437 CURVE",
"409 467 OFFCURVE",
"350 484 OFFCURVE",
"290 484 CURVE SMOOTH",
"216 484 OFFCURVE",
"127 470 OFFCURVE",
"75 448 CURVE",
"75 318 LINE",
"128 334 OFFCURVE",
"191 343 OFFCURVE",
"242 343 CURVE SMOOTH",
"299 343 OFFCURVE",
"327 330 OFFCURVE",
"327 315 CURVE SMOOTH",
"327 310 LINE",
"221 310 LINE SMOOTH",
"81 310 OFFCURVE",
"15 254 OFFCURVE",
"15 148 CURVE SMOOTH",
"15 36 OFFCURVE",
"110 -10 OFFCURVE",
"221 -10 CURVE SMOOTH"
);
},
{
closed = 1;
nodes = (
"249 122 OFFCURVE",
"238 134 OFFCURVE",
"238 155 CURVE SMOOTH",
"238 179 OFFCURVE",
"252 188 OFFCURVE",
"283 188 CURVE SMOOTH",
"327 188 LINE",
"327 144 LINE",
"315 129 OFFCURVE",
"298 122 OFFCURVE",
"273 122 CURVE SMOOTH"
);
},
{
closed = 1;
nodes = (
"558 320 OFFCURVE",
"574 341 OFFCURVE",
"614 341 CURVE SMOOTH",
"655 341 OFFCURVE",
"667 321 OFFCURVE",
"667 302 CURVE SMOOTH",
"667 293 LINE",
"558 293 LINE"
);
}
);
width = 889;
}
);
leftKerningGroup = a;
note = ae;
rightKerningGroup = e;
unicode = 00E6;
},
{
glyphname = aeacute;
lastChange = "2015-10-23 06:06:23 +0000";
layers = (
{
layerId = "03246D8C-E7A1-43FC-9121-0C6BC949C0F5";
name = Bold;
paths = (
{
closed = 1;
nodes = (
"339 -10 OFFCURVE",
"398 21 OFFCURVE",
"447 62 CURVE",
"487 16 OFFCURVE",
"570 -10 OFFCURVE",
"638 -10 CURVE SMOOTH",
"734 -10 OFFCURVE",
"800 2 OFFCURVE",
"850 26 CURVE",
"850 156 LINE",
"818 144 OFFCURVE",
"757 132 OFFCURVE",
"697 132 CURVE SMOOTH",
"623 132 OFFCURVE",
"578 147 OFFCURVE",
"558 172 CURVE",
"874 172 LINE",
"874 253 LINE SMOOTH",
"874 401 OFFCURVE",
"768 484 OFFCURVE",
"606 484 CURVE SMOOTH",
"545 484 OFFCURVE",
"485 465 OFFCURVE",
"447 437 CURVE",
"409 467 OFFCURVE",
"350 484 OFFCURVE",
"290 484 CURVE SMOOTH",
"216 484 OFFCURVE",
"127 470 OFFCURVE",
"75 448 CURVE",
"75 318 LINE",
"128 334 OFFCURVE",
"191 343 OFFCURVE",
"242 343 CURVE SMOOTH",
"299 343 OFFCURVE",
"327 330 OFFCURVE",
"327 315 CURVE SMOOTH",
"327 310 LINE",
"221 310 LINE SMOOTH",
"81 310 OFFCURVE",
"15 254 OFFCURVE",
"15 148 CURVE SMOOTH",
"15 36 OFFCURVE",
"110 -10 OFFCURVE",
"221 -10 CURVE SMOOTH"
);
},
{
closed = 1;
nodes = (
"249 122 OFFCURVE",
"238 134 OFFCURVE",
"238 155 CURVE SMOOTH",
"238 179 OFFCURVE",
"252 188 OFFCURVE",
"283 188 CURVE SMOOTH",
"327 188 LINE",
"327 144 LINE",
"315 129 OFFCURVE",
"298 122 OFFCURVE",
"273 122 CURVE SMOOTH"
);
},
{
closed = 1;
nodes = (
"558 320 OFFCURVE",
"574 341 OFFCURVE",
"614 341 CURVE SMOOTH",
"655 341 OFFCURVE",
"667 321 OFFCURVE",
"667 302 CURVE SMOOTH",
"667 293 LINE",
"558 293 LINE"
);
},
{
closed = 1;
nodes = (
"511 522 LINE",
"616 748 LINE",
"430 748 LINE",
"334 522 LINE"
);
}
);
width = 889;
}
);
leftKerningGroup = a;
note = aeacute;
rightKerningGroup = e;
unicode = 01FD;
},
